<svg xmlns="http://www.w3.org/2000/svg" width="96.412" height="96.411" viewBox="0 0 96.412 96.411">
  <g id="_3" data-name="3" transform="translate(0 -0.002)">
    <path id="Path_660517" data-name="Path 660517" d="M93.126,0H30.834a3.289,3.289,0,0,0-3.286,3.286V7.194A3.288,3.288,0,0,0,30.6,10.468V44.013l-5.454-4.907a1.435,1.435,0,0,0-.12-.1c-.282-.2-.583-.4-.891-.589a15.832,15.832,0,0,0-2.638-1.3,9.9,9.9,0,0,0,4.224-8.1V22.77a9.88,9.88,0,1,0-19.76,0v6.251a9.9,9.9,0,0,0,4.222,8.1A15.807,15.807,0,0,0,0,51.918v1.275a1.412,1.412,0,0,0,2.825,0V51.918a13,13,0,0,1,3.953-9.351l7.654,8.644V62.8H8.9V51.838a1.412,1.412,0,0,0-2.825,0v11.9H2.825V59.783a1.412,1.412,0,0,0-2.825,0v5.369A7.5,7.5,0,0,0,6.075,72.5V94.194c0,.011,0,.022,0,.033A2.188,2.188,0,0,0,8.26,96.413H23.428a2.188,2.188,0,0,0,2.186-2.185h0V52.139l3.042,2.736A4.664,4.664,0,0,0,30.6,55.924v7.589a4.148,4.148,0,0,0,4.143,4.145h2.785V93.642a2.773,2.773,0,0,0,2.77,2.77h4.128a2.773,2.773,0,0,0,2.77-2.77V81.519a1.412,1.412,0,0,0-2.825,0V93.588H40.356V67.657h4.018v7.271a1.412,1.412,0,1,0,2.825,0V67.657H75.321V93.642a2.774,2.774,0,0,0,2.771,2.771h4.127a2.774,2.774,0,0,0,2.771-2.771V67.657h4.224a4.149,4.149,0,0,0,4.145-4.145V10.468a3.287,3.287,0,0,0,3.054-3.274V3.288A3.29,3.29,0,0,0,93.126,0ZM22.671,40.834l-5.415,6.117v-3.48a4.922,4.922,0,0,0,3.38-3.657,13.034,13.034,0,0,1,2.027,1.015Zm-6.827-25.12A7.055,7.055,0,0,1,22.9,22.77v1.277c-5.576,1.126-11.831-1.21-14.054-2.162A7.065,7.065,0,0,1,15.845,15.714ZM8.789,29.02v-4.1A31.212,31.212,0,0,0,19.7,27.174a19.36,19.36,0,0,0,3.2-.256v2.1a7.071,7.071,0,0,1-4.146,6.428,1.412,1.412,0,0,0-.829,1.287v2.04a2.08,2.08,0,0,1-4.16,0v-2.04a1.413,1.413,0,0,0-.829-1.287A7.071,7.071,0,0,1,8.789,29.02ZM9.013,40.83a12.961,12.961,0,0,1,2.038-1.018,4.921,4.921,0,0,0,3.381,3.66V46.95ZM22.792,89.287a5.408,5.408,0,0,0-2.274-.729,5.629,5.629,0,0,0-3.263.714V70.614a1.412,1.412,0,1,0-2.825,0V89.265a5.556,5.556,0,0,0-2.969-.726,5.416,5.416,0,0,0-2.563.754V71.222c0-.005,0-.011,0-.016V65.625H22.793V89.287ZM3.045,66.565H6.074v3.026a4.681,4.681,0,0,1-3.029-3.026ZM8.969,93.588a2.817,2.817,0,0,1,2.593-2.226,2.769,2.769,0,0,1,2.817,2.226H8.969Zm8.338,0a2.77,2.77,0,0,1,2.967-2.217,2.8,2.8,0,0,1,2.445,2.217Zm7.842-45.67a1.412,1.412,0,0,0-2.357,1.05V62.8H17.257V51.212l7.592-8.577,5.616,5.052a1.412,1.412,0,0,0,2.046-.166l3.32-4.137,2.652,2.652-5.23,6.522a1.869,1.869,0,0,1-1.3.692l-.034,0c-.033,0-.085,0-.122,0a1.853,1.853,0,0,1-1.245-.479ZM40.305,40.78a1.868,1.868,0,0,1,.29,2.622l-.335.417-2.651-2.651.079-.1A1.865,1.865,0,0,1,40.305,40.78ZM82.164,93.588H78.145V67.657h4.019Zm7.048-28.756H34.746a1.321,1.321,0,0,1-1.318-1.32V55.785a4.715,4.715,0,0,0,2.026-1.459L42.8,45.169a4.7,4.7,0,0,0,.042-5.811l8.854-22.122a1.412,1.412,0,0,0-2.622-1.05L40.448,37.733A4.7,4.7,0,0,0,35.484,39.3l-2.056,2.562V10.479h57.1V63.513a1.321,1.321,0,0,1-1.32,1.32ZM93.587,7.194a.462.462,0,0,1-.461.461H30.834a.462.462,0,0,1-.461-.461V3.288a.462.462,0,0,1,.461-.461H93.126a.462.462,0,0,1,.461.461V7.194Z" fill="#fd9827"/>
    <path id="Path_660518" data-name="Path 660518" d="M301.043,114.487H299.6V95.1a1.412,1.412,0,1,0-2.825,0v19.386H293.4V84.056h3.382v4.5a1.412,1.412,0,1,0,2.825,0V83.73a2.5,2.5,0,0,0-2.5-2.5h-4.035a2.5,2.5,0,0,0-2.5,2.5v30.758H287.7V92.173a2.5,2.5,0,0,0-2.5-2.5h-4.035a2.5,2.5,0,0,0-2.5,2.5v22.315h-2.878V107.6a2.5,2.5,0,0,0-2.5-2.5h-4.035a2.5,2.5,0,0,0-2.5,2.5v6.884h-1.44a1.412,1.412,0,1,0,0,2.825h35.725a1.412,1.412,0,1,0,0-2.825Zm-31.46,0v-6.557h3.38v6.557Zm11.908,0V92.5h3.38v21.987Z" transform="translate(-214.211 -65.933)" fill="#fd9827"/>
    <path id="Path_660519" data-name="Path 660519" d="M347.91,283.816H323.058a1.412,1.412,0,0,0,0,2.825H347.91a1.412,1.412,0,0,0,0-2.825Z" transform="translate(-261.078 -230.37)" fill="#fd9827"/>
    <path id="Path_660520" data-name="Path 660520" d="M393.741,312.05h-14.22a1.412,1.412,0,0,0,0,2.825h14.22a1.412,1.412,0,0,0,0-2.825Z" transform="translate(-306.909 -253.288)" fill="#fd9827"/>
    <path id="Path_660521" data-name="Path 660521" d="M207.029,312.05h-5.657a1.412,1.412,0,0,0,0,2.825h5.657a1.412,1.412,0,0,0,0-2.825Z" transform="translate(-162.306 -253.288)" fill="#fd9827"/>
    <path id="Path_660522" data-name="Path 660522" d="M198.964,68.441h-5.657a1.412,1.412,0,1,0,0,2.825h5.657a1.412,1.412,0,1,0,0-2.825Z" transform="translate(-155.759 -55.552)" fill="#fd9827"/>
    <path id="Path_660523" data-name="Path 660523" d="M198.964,91.1h-5.657a1.412,1.412,0,1,0,0,2.825h5.657a1.412,1.412,0,1,0,0-2.825Z" transform="translate(-155.759 -73.945)" fill="#fd9827"/>
    <path id="Path_660524" data-name="Path 660524" d="M198.964,113.762h-5.657a1.412,1.412,0,1,0,0,2.825h5.657a1.412,1.412,0,1,0,0-2.825Z" transform="translate(-155.759 -92.338)" fill="#fd9827"/>
  </g>
</svg>
