<svg xmlns="http://www.w3.org/2000/svg" xmlns:xlink="http://www.w3.org/1999/xlink" width="823" height="575.479" viewBox="0 0 823 575.479">
  <defs>
    <filter id="Path_121298" x="667.741" y="434.404" width="23.735" height="23.754" filterUnits="userSpaceOnUse">
      <feOffset dy="1" input="SourceAlpha"/>
      <feGaussianBlur stdDeviation="0.5" result="blur"/>
      <feFlood flood-opacity="0.306"/>
      <feComposite operator="in" in2="blur"/>
      <feComposite in="SourceGraphic"/>
    </filter>
    <filter id="Path_121299" x="673.96" y="438.618" width="49.66" height="41.657" filterUnits="userSpaceOnUse">
      <feOffset dy="3" input="SourceAlpha"/>
      <feGaussianBlur stdDeviation="0.5" result="blur-2"/>
      <feFlood flood-opacity="0.161"/>
      <feComposite operator="in" in2="blur-2"/>
      <feComposite in="SourceGraphic"/>
    </filter>
  </defs>
  <g id="_2" data-name="2" transform="translate(-388.5 -1007)">
    <g id="Group_969905" data-name="Group 969905" transform="translate(0 -45.625)">
      <g id="Group_968464" data-name="Group 968464" transform="translate(280.747 320.805)">
        <g id="Group_968455" data-name="Group 968455" transform="translate(354.107 843.006)">
          <g id="Group_968448" data-name="Group 968448" transform="translate(4.294 4.17)">
            <path id="Path_659271" data-name="Path 659271" d="M299.25,872.112a159.964,159.964,0,0,1-24.565-85.436" transform="translate(-274.685 -786.676)" fill="none" stroke="#ef9c44" stroke-miterlimit="10" stroke-width="2"/>
            <path id="Path_659272" data-name="Path 659272" d="M361.328,901.667A161.354,161.354,0,0,1,290.018,840" transform="translate(-265.453 -754.567)" fill="none" stroke="#c2c859" stroke-miterlimit="10" stroke-width="3"/>
            <path id="Path_659273" data-name="Path 659273" d="M465.089,878.248a161.185,161.185,0,0,1-130.561.391" transform="translate(-238.653 -731.54)" fill="none" stroke="#ef9c44" stroke-miterlimit="10" stroke-width="6"/>
            <path id="Path_659274" data-name="Path 659274" d="M485.187,841.239a161.377,161.377,0,0,1-69.166,59.292" transform="translate(-189.585 -753.823)" fill="none" stroke="#c2c859" stroke-miterlimit="10" stroke-width="5"/>
            <path id="Path_659275" data-name="Path 659275" d="M485.022,786.676a159.974,159.974,0,0,1-25.829,87.416" transform="translate(-163.591 -786.676)" fill="none" stroke="#ef9c44" stroke-miterlimit="10" stroke-width="1"/>
          </g>
          <g id="Group_968449" data-name="Group 968449" transform="translate(322.867 1.368)">
            <path id="Path_659276" data-name="Path 659276" d="M479.212,787.766a2.841,2.841,0,1,1-2.841-2.839A2.841,2.841,0,0,1,479.212,787.766Z" transform="translate(-473.531 -784.927)" fill="#fff" stroke="#ef9c44" stroke-miterlimit="10" stroke-width="1"/>
          </g>
          <g id="Group_968450" data-name="Group 968450">
            <path id="Path_659277" data-name="Path 659277" d="M280.421,788.28a4.208,4.208,0,1,1-4.209-4.207A4.208,4.208,0,0,1,280.421,788.28Z" transform="translate(-272.005 -784.073)" fill="#ef9c44"/>
          </g>
          <g id="Group_968451" data-name="Group 968451" transform="translate(294.205 85.879)">
            <path id="Path_659278" data-name="Path 659278" d="M467.1,843.406a5.729,5.729,0,1,1-5.729-5.729A5.729,5.729,0,0,1,467.1,843.406Z" transform="translate(-455.641 -837.677)" fill="#fff" stroke="#c2c859" stroke-miterlimit="10" stroke-width="1"/>
          </g>
          <g id="Group_968452" data-name="Group 968452" transform="translate(25.474 87.61)">
            <path id="Path_659279" data-name="Path 659279" d="M297.529,843.568a4.812,4.812,0,1,1-4.813-4.811A4.811,4.811,0,0,1,297.529,843.568Z" transform="translate(-287.905 -838.757)" fill="#fff" stroke="#c2c859" stroke-miterlimit="10" stroke-width="1.5"/>
          </g>
          <g id="Group_968453" data-name="Group 968453" transform="translate(223.767 143.666)">
            <path id="Path_659280" data-name="Path 659280" d="M426.112,880.964a7.218,7.218,0,1,1-7.219-7.218A7.219,7.219,0,0,1,426.112,880.964Z" transform="translate(-411.675 -873.746)" fill="#fff" stroke="#73564b" stroke-miterlimit="10" stroke-width="1.26"/>
          </g>
          <g id="Group_968454" data-name="Group 968454" transform="translate(94.391 145.021)">
            <path id="Path_659281" data-name="Path 659281" d="M342.648,880.454a5.863,5.863,0,1,1-5.862-5.862A5.863,5.863,0,0,1,342.648,880.454Z" transform="translate(-330.922 -874.592)" fill="#fff" stroke="#73564b" stroke-miterlimit="10" stroke-width="1.624"/>
          </g>
        </g>
        <g id="Group_968462" data-name="Group 968462" transform="translate(135.648 863.946)">
          <g id="Group_968461" data-name="Group 968461">
            <g id="Group_968456" data-name="Group 968456" transform="translate(268.624 196.054)">
              <path id="Path_659282" data-name="Path 659282" d="M418.161,925.036a213.476,213.476,0,0,1-46.444-5.09,18.166,18.166,0,0,0-20.967,11.6l-46.335,127.792a18.193,18.193,0,0,0,12.232,23.767,386.717,386.717,0,0,0,203.024,0,18.194,18.194,0,0,0,12.232-23.767L485.57,931.547a18.166,18.166,0,0,0-20.967-11.6A213.44,213.44,0,0,1,418.161,925.036Z" transform="translate(-303.317 -919.515)" fill="#d8dbe8"/>
            </g>
            <g id="Group_968457" data-name="Group 968457" transform="translate(74.013 119.266)">
              <path id="Path_659283" data-name="Path 659283" d="M304.552,874.465,190.224,947.92a18.236,18.236,0,0,0-4.628,26.416,386.077,386.077,0,0,0,145.662,116.408A18.239,18.239,0,0,0,356,1080.386L402.338,952.6a18.275,18.275,0,0,0-8.864-22.447,213.865,213.865,0,0,1-65.057-51.995A18.28,18.28,0,0,0,304.552,874.465Z" transform="translate(-181.845 -871.586)" fill="#d8dbe8"/>
            </g>
            <g id="Group_968458" data-name="Group 968458" transform="translate(471.34 119.267)">
              <path id="Path_659284" data-name="Path 659284" d="M430.938,952.595l46.333,127.792a18.241,18.241,0,0,0,24.748,10.358A386.063,386.063,0,0,0,647.679,974.335a18.234,18.234,0,0,0-4.629-26.415L528.724,874.466a18.279,18.279,0,0,0-23.865,3.688A213.891,213.891,0,0,1,439.8,930.149,18.272,18.272,0,0,0,430.938,952.595Z" transform="translate(-429.848 -871.587)" fill="#d8dbe8"/>
            </g>
            <g id="Group_968459" data-name="Group 968459" transform="translate(574.313)">
              <path id="Path_659285" data-name="Path 659285" d="M514.553,813.15a211.54,211.54,0,0,1-18.636,63.593,18.3,18.3,0,0,0,6.545,23.29L616.8,973.494a18.217,18.217,0,0,0,25.908-6.7A382.248,382.248,0,0,0,686.685,816.83a18.234,18.234,0,0,0-18.176-19.687H532.634A18.264,18.264,0,0,0,514.553,813.15Z" transform="translate(-494.121 -797.143)" fill="#d8dbe8"/>
            </g>
            <g id="Group_968460" data-name="Group 968460">
              <path id="Path_659286" data-name="Path 659286" d="M289.758,797.143H153.883a18.234,18.234,0,0,0-18.176,19.687A382.249,382.249,0,0,0,179.685,966.8a18.216,18.216,0,0,0,25.908,6.694L319.931,900.03a18.3,18.3,0,0,0,6.546-23.288,211.551,211.551,0,0,1-18.636-63.593A18.266,18.266,0,0,0,289.758,797.143Z" transform="translate(-135.648 -797.143)" fill="#d8dbe8"/>
            </g>
          </g>
        </g>
        <circle id="Ellipse_5391" data-name="Ellipse 5391" cx="110.149" cy="110.149" r="110.149" transform="translate(408.967 736.627)" fill="#d8dbe8"/>
        <g id="Group_968463" data-name="Group 968463" transform="translate(135.648 859.139)">
          <path id="Path_659287" data-name="Path 659287" d="M418.161,922.036a213.476,213.476,0,0,1-46.444-5.09,18.165,18.165,0,0,0-20.967,11.6l-46.335,127.792a18.193,18.193,0,0,0,12.232,23.767,386.717,386.717,0,0,0,203.024,0,18.194,18.194,0,0,0,12.232-23.767L485.57,928.547a18.165,18.165,0,0,0-20.967-11.6A213.44,213.44,0,0,1,418.161,922.036Z" transform="translate(-34.693 -720.462)" fill="#fff"/>
          <path id="Path_659288" data-name="Path 659288" d="M304.552,871.465,190.224,944.92a18.236,18.236,0,0,0-4.628,26.416,386.08,386.08,0,0,0,145.662,116.408A18.239,18.239,0,0,0,356,1077.386L402.338,949.6a18.275,18.275,0,0,0-8.864-22.447,213.863,213.863,0,0,1-65.057-51.995A18.28,18.28,0,0,0,304.552,871.465Z" transform="translate(-107.832 -749.32)" fill="#fff"/>
          <path id="Path_659289" data-name="Path 659289" d="M430.938,949.595l46.333,127.792a18.241,18.241,0,0,0,24.748,10.358A386.063,386.063,0,0,0,647.679,971.335a18.234,18.234,0,0,0-4.629-26.416L528.724,871.466a18.279,18.279,0,0,0-23.865,3.688A213.889,213.889,0,0,1,439.8,927.149,18.272,18.272,0,0,0,430.938,949.595Z" transform="translate(41.493 -749.32)" fill="#fff"/>
          <path id="Path_659290" data-name="Path 659290" d="M514.553,810.15a211.54,211.54,0,0,1-18.636,63.593,18.3,18.3,0,0,0,6.545,23.29L616.8,970.494a18.217,18.217,0,0,0,25.908-6.7A382.249,382.249,0,0,0,686.685,813.83a18.234,18.234,0,0,0-18.176-19.687H532.634A18.264,18.264,0,0,0,514.553,810.15Z" transform="translate(80.192 -794.143)" fill="#fff"/>
          <path id="Path_659291" data-name="Path 659291" d="M289.758,794.143H153.883a18.234,18.234,0,0,0-18.176,19.687A382.25,382.25,0,0,0,179.685,963.8a18.216,18.216,0,0,0,25.908,6.693L319.931,897.03a18.3,18.3,0,0,0,6.546-23.288,211.553,211.553,0,0,1-18.636-63.593A18.266,18.266,0,0,0,289.758,794.143Z" transform="translate(-135.648 -794.143)" fill="#fff"/>
        </g>
        <circle id="Ellipse_5392" data-name="Ellipse 5392" cx="110.149" cy="110.149" r="110.149" transform="translate(408.967 731.821)" fill="#fff"/>
      </g>
      <path id="Path_660527" data-name="Path 660527" d="M9.848,12.016A1.2,1.2,0,0,0,9.379,11a6.148,6.148,0,0,0-1.687-.75,11.963,11.963,0,0,1-1.93-.777,3.153,3.153,0,0,1-1.937-2.82A2.747,2.747,0,0,1,4.344,5,3.389,3.389,0,0,1,5.836,3.875,5.616,5.616,0,0,1,8.02,3.469a5.112,5.112,0,0,1,2.172.441,3.458,3.458,0,0,1,1.48,1.246A3.261,3.261,0,0,1,12.2,6.984H9.855A1.534,1.534,0,0,0,9.363,5.77,2.023,2.023,0,0,0,7.98,5.336,2.162,2.162,0,0,0,6.645,5.7a1.146,1.146,0,0,0-.477.957,1.1,1.1,0,0,0,.559.93,6.311,6.311,0,0,0,1.645.7,7.106,7.106,0,0,1,2.914,1.492A2.972,2.972,0,0,1,12.2,12a2.737,2.737,0,0,1-1.117,2.316,4.891,4.891,0,0,1-3.008.84,5.808,5.808,0,0,1-2.391-.48,3.783,3.783,0,0,1-1.645-1.316,3.371,3.371,0,0,1-.566-1.937H5.824q0,1.883,2.25,1.883a2.189,2.189,0,0,0,1.3-.34A1.106,1.106,0,0,0,9.848,12.016ZM16.02,15H13.754V6.547H16.02Zm-2.4-10.641a1.112,1.112,0,0,1,.34-.836,1.465,1.465,0,0,1,1.848,0,1.105,1.105,0,0,1,.344.836A1.108,1.108,0,0,1,15.8,5.2a1.448,1.448,0,0,1-1.836,0A1.108,1.108,0,0,1,13.621,4.359Zm3.93,6.352a4.954,4.954,0,0,1,.926-3.133,3,3,0,0,1,2.5-1.187,2.631,2.631,0,0,1,2.164.953l.094-.8h2.047v8.172a3.613,3.613,0,0,1-.5,1.93,3.236,3.236,0,0,1-1.418,1.25,4.985,4.985,0,0,1-2.141.43,4.635,4.635,0,0,1-1.812-.371A3.217,3.217,0,0,1,18.066,17l1-1.375a2.645,2.645,0,0,0,2.047.945,1.936,1.936,0,0,0,1.4-.48,1.8,1.8,0,0,0,.5-1.363v-.453a2.612,2.612,0,0,1-2.055.883,2.992,2.992,0,0,1-2.465-1.191,4.953,4.953,0,0,1-.941-3.16Zm2.258.168a3.085,3.085,0,0,0,.461,1.8,1.466,1.466,0,0,0,1.266.653,1.568,1.568,0,0,0,1.477-.775V9a1.564,1.564,0,0,0-1.461-.775,1.476,1.476,0,0,0-1.277.665A3.477,3.477,0,0,0,19.809,10.879ZM29.09,6.547l.07.977a2.951,2.951,0,0,1,2.43-1.133,2.453,2.453,0,0,1,2,.789,3.682,3.682,0,0,1,.672,2.359V15H32V9.594a1.465,1.465,0,0,0-.312-1.043,1.4,1.4,0,0,0-1.039-.324,1.553,1.553,0,0,0-1.43.813V15H26.965V6.547ZM38.355,15H36.09V6.547h2.266Zm-2.4-10.641a1.112,1.112,0,0,1,.34-.836,1.465,1.465,0,0,1,1.848,0,1.105,1.105,0,0,1,.344.836,1.108,1.108,0,0,1-.348.844,1.448,1.448,0,0,1-1.836,0A1.108,1.108,0,0,1,35.957,4.359ZM40.762,15V8.2H39.5V6.547h1.258V6.156a3.17,3.17,0,0,1,.98-2.457,3.945,3.945,0,0,1,2.723-.863,9.031,9.031,0,0,1,2.563.461L46.7,5.164a10,10,0,0,0-1.187-.293,5.835,5.835,0,0,0-.906-.066q-1.578,0-1.578,1.4v.344h1.664V8.2H43.027V15Zm7.32,0H45.816V6.547h2.266Zm5.383-1.664a1.481,1.481,0,0,0,1.016-.344,1.2,1.2,0,0,0,.406-.914H57a2.9,2.9,0,0,1-.469,1.574,3.093,3.093,0,0,1-1.262,1.109,3.949,3.949,0,0,1-1.77.395A3.67,3.67,0,0,1,50.645,14,4.56,4.56,0,0,1,49.6,10.82v-.148a4.508,4.508,0,0,1,1.039-3.117,3.627,3.627,0,0,1,2.852-1.164,3.555,3.555,0,0,1,2.543.9A3.2,3.2,0,0,1,57,9.7H54.887a1.551,1.551,0,0,0-.406-1.072,1.51,1.51,0,0,0-2.223.163,3.333,3.333,0,0,0-.4,1.866v.235a3.375,3.375,0,0,0,.4,1.878A1.377,1.377,0,0,0,53.465,13.336ZM63.191,15a2.507,2.507,0,0,1-.227-.758,2.732,2.732,0,0,1-2.133.914,3,3,0,0,1-2.059-.719,2.312,2.312,0,0,1-.816-1.812,2.389,2.389,0,0,1,1-2.062,4.915,4.915,0,0,1,2.879-.727h1.039V9.352a1.393,1.393,0,0,0-.3-.937,1.183,1.183,0,0,0-.949-.352,1.345,1.345,0,0,0-.895.273.929.929,0,0,0-.324.75H58.145A2.268,2.268,0,0,1,58.6,7.727a3,3,0,0,1,1.281-.98,4.669,4.669,0,0,1,1.859-.355,3.689,3.689,0,0,1,2.48.785,2.747,2.747,0,0,1,.918,2.207v3.664a4.041,4.041,0,0,0,.336,1.82V15Zm-1.867-1.57a1.945,1.945,0,0,0,.922-.223,1.462,1.462,0,0,0,.625-.6V11.156h-.844q-1.7,0-1.8,1.172l-.008.133a.9.9,0,0,0,.3.7A1.153,1.153,0,0,0,61.324,13.43Zm5.2-2.719a5.094,5.094,0,0,1,.887-3.148,2.877,2.877,0,0,1,2.426-1.172,2.589,2.589,0,0,1,2.039.922V3h2.266V15H72.1l-.109-.9a2.657,2.657,0,0,1-2.172,1.055,2.869,2.869,0,0,1-2.395-1.176A5.258,5.258,0,0,1,66.52,10.711Zm2.258.168a3.337,3.337,0,0,0,.414,1.823,1.349,1.349,0,0,0,1.2.634,1.511,1.511,0,0,0,1.477-.884V9.111a1.489,1.489,0,0,0-1.461-.884Q68.777,8.227,68.777,10.879Zm6.758-.184a5.013,5.013,0,0,1,.484-2.242A3.546,3.546,0,0,1,77.414,6.93a4.069,4.069,0,0,1,2.113-.539A3.849,3.849,0,0,1,82.32,7.438a4.2,4.2,0,0,1,1.207,2.844l.016.578a4.418,4.418,0,0,1-1.086,3.121,4.209,4.209,0,0,1-5.832,0,4.5,4.5,0,0,1-1.09-3.187Zm2.258.16a3.16,3.16,0,0,0,.453,1.843,1.628,1.628,0,0,0,2.578.008,3.457,3.457,0,0,0,.461-2.015,3.128,3.128,0,0,0-.461-1.831,1.5,1.5,0,0,0-1.3-.649,1.474,1.474,0,0,0-1.281.646A3.516,3.516,0,0,0,77.793,10.856Z" transform="translate(484 1184.531)" fill="#12263f"/>
      <path id="Path_660528" data-name="Path 660528" d="M5.555,15H3.211V3.625H5.555ZM9.7,6.547l.07.945a2.971,2.971,0,0,1,2.43-1.1A2.255,2.255,0,0,1,14.438,7.68a2.9,2.9,0,0,1,2.539-1.289,2.521,2.521,0,0,1,2.047.8A3.681,3.681,0,0,1,19.7,9.6V15H17.43V9.609a1.61,1.61,0,0,0-.281-1.051,1.246,1.246,0,0,0-.992-.332A1.409,1.409,0,0,0,14.75,9.2l.008,5.8H12.5V9.617a1.59,1.59,0,0,0-.289-1.062,1.259,1.259,0,0,0-.984-.328,1.463,1.463,0,0,0-1.391.8V15H7.578V6.547Zm19.344,4.3a5.07,5.07,0,0,1-.887,3.129,2.843,2.843,0,0,1-2.395,1.176,2.633,2.633,0,0,1-2.07-.891V18.25H21.43V6.547h2.094l.078.828a2.654,2.654,0,0,1,2.141-.984,2.862,2.862,0,0,1,2.43,1.156,5.207,5.207,0,0,1,.867,3.188Zm-2.258-.164a3.327,3.327,0,0,0-.418-1.82,1.361,1.361,0,0,0-1.215-.641,1.478,1.478,0,0,0-1.461.813V12.5a1.5,1.5,0,0,0,1.477.836Q26.781,13.336,26.781,10.688Zm3.3.008a5.013,5.013,0,0,1,.484-2.242A3.546,3.546,0,0,1,31.965,6.93a4.069,4.069,0,0,1,2.113-.539,3.849,3.849,0,0,1,2.793,1.047,4.2,4.2,0,0,1,1.207,2.844l.016.578a4.418,4.418,0,0,1-1.086,3.121,3.775,3.775,0,0,1-2.914,1.176,3.793,3.793,0,0,1-2.918-1.172,4.5,4.5,0,0,1-1.09-3.187Zm2.258.16A3.16,3.16,0,0,0,32.8,12.7a1.628,1.628,0,0,0,2.578.008,3.457,3.457,0,0,0,.461-2.015,3.128,3.128,0,0,0-.461-1.831,1.5,1.5,0,0,0-1.3-.649,1.474,1.474,0,0,0-1.281.646A3.516,3.516,0,0,0,32.344,10.856ZM44.234,8.664a6.134,6.134,0,0,0-.812-.062,1.654,1.654,0,0,0-1.68.867V15H39.484V6.547h2.133l.063,1.008a2.092,2.092,0,0,1,1.883-1.164,2.366,2.366,0,0,1,.7.1Zm4.18-4.2V6.547h1.445V8.2H48.414v4.219a1.007,1.007,0,0,0,.18.672.9.9,0,0,0,.688.2,3.6,3.6,0,0,0,.664-.055v1.711a4.648,4.648,0,0,1-1.367.2,2.156,2.156,0,0,1-2.422-2.4V8.2H44.922V6.547h1.234V4.469ZM56.016,15a2.507,2.507,0,0,1-.227-.758,2.732,2.732,0,0,1-2.133.914,3,3,0,0,1-2.059-.719,2.312,2.312,0,0,1-.816-1.812,2.389,2.389,0,0,1,1-2.062,4.915,4.915,0,0,1,2.879-.727H55.7V9.352a1.393,1.393,0,0,0-.3-.937,1.183,1.183,0,0,0-.949-.352,1.345,1.345,0,0,0-.895.273.929.929,0,0,0-.324.75H50.969a2.268,2.268,0,0,1,.453-1.359,3,3,0,0,1,1.281-.98,4.669,4.669,0,0,1,1.859-.355,3.689,3.689,0,0,1,2.48.785,2.747,2.747,0,0,1,.918,2.207v3.664a4.041,4.041,0,0,0,.336,1.82V15Zm-1.867-1.57a1.945,1.945,0,0,0,.922-.223,1.462,1.462,0,0,0,.625-.6V11.156h-.844q-1.7,0-1.8,1.172l-.008.133a.9.9,0,0,0,.3.7A1.153,1.153,0,0,0,54.148,13.43Zm7.625-6.883.07.977a2.951,2.951,0,0,1,2.43-1.133,2.453,2.453,0,0,1,2,.789,3.682,3.682,0,0,1,.672,2.359V15H64.688V9.594a1.465,1.465,0,0,0-.312-1.043,1.4,1.4,0,0,0-1.039-.324,1.553,1.553,0,0,0-1.43.813V15H59.648V6.547Zm10.4,6.789a1.481,1.481,0,0,0,1.016-.344,1.2,1.2,0,0,0,.406-.914h2.117a2.9,2.9,0,0,1-.469,1.574,3.093,3.093,0,0,1-1.262,1.109,3.949,3.949,0,0,1-1.77.395A3.67,3.67,0,0,1,69.352,14,4.56,4.56,0,0,1,68.3,10.82v-.148a4.508,4.508,0,0,1,1.039-3.117A3.627,3.627,0,0,1,72.2,6.391a3.555,3.555,0,0,1,2.543.9,3.2,3.2,0,0,1,.973,2.4H73.594a1.551,1.551,0,0,0-.406-1.072,1.51,1.51,0,0,0-2.223.163,3.333,3.333,0,0,0-.4,1.866v.235a3.375,3.375,0,0,0,.4,1.878A1.377,1.377,0,0,0,72.172,13.336ZM79.383,15H77.117V6.547h2.266Zm-2.4-10.641a1.112,1.112,0,0,1,.34-.836,1.465,1.465,0,0,1,1.848,0,1.105,1.105,0,0,1,.344.836,1.108,1.108,0,0,1-.348.844,1.448,1.448,0,0,1-1.836,0A1.108,1.108,0,0,1,76.984,4.359ZM86.141,15a2.507,2.507,0,0,1-.227-.758,2.732,2.732,0,0,1-2.133.914,3,3,0,0,1-2.059-.719,2.312,2.312,0,0,1-.816-1.812,2.389,2.389,0,0,1,1-2.062,4.915,4.915,0,0,1,2.879-.727H85.82V9.352a1.393,1.393,0,0,0-.3-.937,1.183,1.183,0,0,0-.949-.352,1.345,1.345,0,0,0-.895.273.929.929,0,0,0-.324.75H81.094a2.268,2.268,0,0,1,.453-1.359,3,3,0,0,1,1.281-.98,4.669,4.669,0,0,1,1.859-.355,3.689,3.689,0,0,1,2.48.785,2.747,2.747,0,0,1,.918,2.207v3.664a4.041,4.041,0,0,0,.336,1.82V15Zm-1.867-1.57a1.945,1.945,0,0,0,.922-.223,1.462,1.462,0,0,0,.625-.6V11.156h-.844q-1.7,0-1.8,1.172l-.008.133a.9.9,0,0,0,.3.7A1.153,1.153,0,0,0,84.273,13.43Z" transform="translate(571 1349.281)" fill="#12263f"/>
      <path id="Path_660529" data-name="Path 660529" d="M10.414,12.18l2.578-8.555H15.6L11.641,15H9.2L5.25,3.625h2.6ZM18.906,15H16.641V6.547h2.266Zm-2.4-10.641a1.112,1.112,0,0,1,.34-.836,1.465,1.465,0,0,1,1.848,0,1.105,1.105,0,0,1,.344.836,1.108,1.108,0,0,1-.348.844,1.448,1.448,0,0,1-1.836,0A1.108,1.108,0,0,1,16.508,4.359Zm3.93,6.352a4.954,4.954,0,0,1,.926-3.133,3,3,0,0,1,2.5-1.187,2.631,2.631,0,0,1,2.164.953l.094-.8h2.047v8.172a3.613,3.613,0,0,1-.5,1.93,3.236,3.236,0,0,1-1.418,1.25,4.985,4.985,0,0,1-2.141.43,4.635,4.635,0,0,1-1.812-.371A3.217,3.217,0,0,1,20.953,17l1-1.375A2.645,2.645,0,0,0,24,16.57a1.936,1.936,0,0,0,1.4-.48,1.8,1.8,0,0,0,.5-1.363v-.453a2.612,2.612,0,0,1-2.055.883,2.992,2.992,0,0,1-2.465-1.191,4.953,4.953,0,0,1-.941-3.16Zm2.258.168a3.085,3.085,0,0,0,.461,1.8,1.466,1.466,0,0,0,1.266.653,1.568,1.568,0,0,0,1.477-.775V9a1.564,1.564,0,0,0-1.461-.775,1.476,1.476,0,0,0-1.277.665A3.477,3.477,0,0,0,22.7,10.879Zm11.094,4.277a4.15,4.15,0,0,1-3.027-1.141,4.054,4.054,0,0,1-1.168-3.039v-.219a5.106,5.106,0,0,1,.492-2.277A3.612,3.612,0,0,1,31.48,6.934a3.914,3.914,0,0,1,2.059-.543,3.508,3.508,0,0,1,2.73,1.094,4.444,4.444,0,0,1,1,3.1v.922H31.883a2.1,2.1,0,0,0,.66,1.328,2,2,0,0,0,1.395.5,2.437,2.437,0,0,0,2.039-.945l1.109,1.242a3.389,3.389,0,0,1-1.375,1.121A4.511,4.511,0,0,1,33.789,15.156Zm-.258-6.945a1.411,1.411,0,0,0-1.09.455,2.357,2.357,0,0,0-.535,1.3h3.141V9.788a1.681,1.681,0,0,0-.406-1.165A1.456,1.456,0,0,0,33.531,8.211Zm7.094-1.664.07.977a2.951,2.951,0,0,1,2.43-1.133,2.453,2.453,0,0,1,2,.789A3.682,3.682,0,0,1,45.8,9.539V15H43.539V9.594a1.465,1.465,0,0,0-.312-1.043,1.4,1.4,0,0,0-1.039-.324,1.553,1.553,0,0,0-1.43.813V15H38.5V6.547Zm10.4,6.789a1.481,1.481,0,0,0,1.016-.344,1.2,1.2,0,0,0,.406-.914h2.117a2.9,2.9,0,0,1-.469,1.574,3.093,3.093,0,0,1-1.262,1.109,3.949,3.949,0,0,1-1.77.395A3.67,3.67,0,0,1,48.2,14a4.56,4.56,0,0,1-1.047-3.184v-.148A4.508,4.508,0,0,1,48.2,7.555a3.627,3.627,0,0,1,2.852-1.164,3.555,3.555,0,0,1,2.543.9,3.2,3.2,0,0,1,.973,2.4H52.445a1.551,1.551,0,0,0-.406-1.072,1.51,1.51,0,0,0-2.223.163,3.333,3.333,0,0,0-.4,1.866v.235a3.375,3.375,0,0,0,.4,1.878A1.377,1.377,0,0,0,51.023,13.336ZM58.234,15H55.969V6.547h2.266Zm-2.4-10.641a1.112,1.112,0,0,1,.34-.836,1.465,1.465,0,0,1,1.848,0,1.105,1.105,0,0,1,.344.836,1.108,1.108,0,0,1-.348.844,1.448,1.448,0,0,1-1.836,0A1.108,1.108,0,0,1,55.836,4.359ZM64.992,15a2.507,2.507,0,0,1-.227-.758,2.732,2.732,0,0,1-2.133.914,3,3,0,0,1-2.059-.719,2.312,2.312,0,0,1-.816-1.812,2.389,2.389,0,0,1,1-2.062,4.915,4.915,0,0,1,2.879-.727h1.039V9.352a1.393,1.393,0,0,0-.3-.937,1.183,1.183,0,0,0-.949-.352,1.345,1.345,0,0,0-.895.273.929.929,0,0,0-.324.75H59.945A2.268,2.268,0,0,1,60.4,7.727a3,3,0,0,1,1.281-.98,4.669,4.669,0,0,1,1.859-.355,3.689,3.689,0,0,1,2.48.785,2.747,2.747,0,0,1,.918,2.207v3.664a4.041,4.041,0,0,0,.336,1.82V15Zm-1.867-1.57a1.945,1.945,0,0,0,.922-.223,1.462,1.462,0,0,0,.625-.6V11.156h-.844q-1.7,0-1.8,1.172l-.008.133a.9.9,0,0,0,.3.7A1.153,1.153,0,0,0,63.125,13.43Z" transform="translate(763.395 1401.531)" fill="#12263f"/>
      <path id="Path_660526" data-name="Path 660526" d="M19.012,11.211A4.025,4.025,0,0,1,17.656,14.1a4.76,4.76,0,0,1-3.223,1.055,4.28,4.28,0,0,1-3.441-1.473A6.038,6.038,0,0,1,9.738,9.641v-.7a6.819,6.819,0,0,1,.578-2.891,4.332,4.332,0,0,1,1.652-1.918,4.629,4.629,0,0,1,2.5-.668,4.637,4.637,0,0,1,3.172,1.055,4.326,4.326,0,0,1,1.391,2.961H16.684a2.376,2.376,0,0,0-.613-1.6,2.271,2.271,0,0,0-1.605-.5,1.991,1.991,0,0,0-1.754.84,4.707,4.707,0,0,0-.6,2.605V9.7a5.038,5.038,0,0,0,.559,2.7,1.954,1.954,0,0,0,1.762.852,2.314,2.314,0,0,0,1.621-.5,2.241,2.241,0,0,0,.613-1.535ZM25.3,15a2.507,2.507,0,0,1-.227-.758,2.732,2.732,0,0,1-2.133.914,3,3,0,0,1-2.059-.719,2.312,2.312,0,0,1-.816-1.812,2.389,2.389,0,0,1,1-2.062,4.915,4.915,0,0,1,2.879-.727H24.98V9.352a1.393,1.393,0,0,0-.3-.937,1.183,1.183,0,0,0-.949-.352,1.345,1.345,0,0,0-.895.273.929.929,0,0,0-.324.75H20.254a2.268,2.268,0,0,1,.453-1.359,3,3,0,0,1,1.281-.98,4.669,4.669,0,0,1,1.859-.355,3.689,3.689,0,0,1,2.48.785,2.747,2.747,0,0,1,.918,2.207v3.664a4.041,4.041,0,0,0,.336,1.82V15Zm-1.867-1.57a1.945,1.945,0,0,0,.922-.223,1.462,1.462,0,0,0,.625-.6V11.156h-.844q-1.7,0-1.8,1.172l-.008.133a.9.9,0,0,0,.3.7A1.153,1.153,0,0,0,23.434,13.43Zm10.3-4.766a6.134,6.134,0,0,0-.812-.062,1.654,1.654,0,0,0-1.68.867V15H28.98V6.547h2.133l.063,1.008a2.092,2.092,0,0,1,1.883-1.164,2.366,2.366,0,0,1,.7.1ZM39.48,15a2.507,2.507,0,0,1-.227-.758,2.732,2.732,0,0,1-2.133.914,3,3,0,0,1-2.059-.719,2.312,2.312,0,0,1-.816-1.812,2.389,2.389,0,0,1,1-2.062,4.915,4.915,0,0,1,2.879-.727H39.16V9.352a1.393,1.393,0,0,0-.3-.937,1.183,1.183,0,0,0-.949-.352,1.345,1.345,0,0,0-.895.273.929.929,0,0,0-.324.75H34.434a2.268,2.268,0,0,1,.453-1.359,3,3,0,0,1,1.281-.98,4.669,4.669,0,0,1,1.859-.355,3.689,3.689,0,0,1,2.48.785,2.747,2.747,0,0,1,.918,2.207v3.664a4.041,4.041,0,0,0,.336,1.82V15Zm-1.867-1.57a1.945,1.945,0,0,0,.922-.223,1.462,1.462,0,0,0,.625-.6V11.156h-.844q-1.7,0-1.8,1.172l-.008.133a.9.9,0,0,0,.3.7A1.153,1.153,0,0,0,37.613,13.43Zm9.063-.094a1.481,1.481,0,0,0,1.016-.344,1.2,1.2,0,0,0,.406-.914h2.117a2.9,2.9,0,0,1-.469,1.574,3.093,3.093,0,0,1-1.262,1.109,3.949,3.949,0,0,1-1.77.395A3.67,3.67,0,0,1,43.855,14a4.56,4.56,0,0,1-1.047-3.184v-.148a4.508,4.508,0,0,1,1.039-3.117A3.627,3.627,0,0,1,46.7,6.391a3.555,3.555,0,0,1,2.543.9,3.2,3.2,0,0,1,.973,2.4H48.1a1.551,1.551,0,0,0-.406-1.072,1.51,1.51,0,0,0-2.223.163,3.333,3.333,0,0,0-.4,1.866v.235a3.375,3.375,0,0,0,.4,1.878A1.377,1.377,0,0,0,46.676,13.336Zm7.531-8.867V6.547h1.445V8.2H54.207v4.219a1.007,1.007,0,0,0,.18.672.9.9,0,0,0,.688.2,3.6,3.6,0,0,0,.664-.055v1.711a4.648,4.648,0,0,1-1.367.2,2.156,2.156,0,0,1-2.422-2.4V8.2H50.715V6.547h1.234V4.469ZM60.8,15.156a4.15,4.15,0,0,1-3.027-1.141,4.054,4.054,0,0,1-1.168-3.039v-.219A5.106,5.106,0,0,1,57.1,8.48a3.612,3.612,0,0,1,1.395-1.547,3.914,3.914,0,0,1,2.059-.543,3.508,3.508,0,0,1,2.73,1.094,4.444,4.444,0,0,1,1,3.1v.922H58.895a2.1,2.1,0,0,0,.66,1.328,2,2,0,0,0,1.395.5,2.437,2.437,0,0,0,2.039-.945L64.1,13.633a3.389,3.389,0,0,1-1.375,1.121A4.511,4.511,0,0,1,60.8,15.156Zm-.258-6.945a1.411,1.411,0,0,0-1.09.455,2.357,2.357,0,0,0-.535,1.3h3.141V9.788a1.681,1.681,0,0,0-.406-1.165A1.456,1.456,0,0,0,60.543,8.211Zm9.766.453A6.134,6.134,0,0,0,69.5,8.6a1.654,1.654,0,0,0-1.68.867V15H65.559V6.547h2.133l.063,1.008a2.092,2.092,0,0,1,1.883-1.164,2.366,2.366,0,0,1,.7.1ZM73.832,15H71.574V6.547h2.258ZM73.168,3.117h2.461L73.465,5.539H71.629Zm7.188,9.547a.727.727,0,0,0-.41-.652,4.659,4.659,0,0,0-1.316-.426q-3.016-.633-3.016-2.562a2.323,2.323,0,0,1,.934-1.879,3.766,3.766,0,0,1,2.441-.754,4.053,4.053,0,0,1,2.574.758,2.388,2.388,0,0,1,.965,1.969H80.27a1.092,1.092,0,0,0-.312-.8A1.322,1.322,0,0,0,78.98,8a1.351,1.351,0,0,0-.883.258.814.814,0,0,0-.312.656.7.7,0,0,0,.355.605,3.657,3.657,0,0,0,1.2.4,9.8,9.8,0,0,1,1.422.379,2.336,2.336,0,0,1,1.789,2.273,2.2,2.2,0,0,1-.992,1.871A4.28,4.28,0,0,1,79,15.156a4.47,4.47,0,0,1-1.887-.379,3.166,3.166,0,0,1-1.293-1.039,2.414,2.414,0,0,1-.469-1.426h2.141a1.179,1.179,0,0,0,.445.922,1.766,1.766,0,0,0,1.109.32,1.635,1.635,0,0,0,.98-.246A.766.766,0,0,0,80.355,12.664Zm6.352-8.2V6.547h1.445V8.2H86.707v4.219a1.007,1.007,0,0,0,.18.672.9.9,0,0,0,.688.2,3.6,3.6,0,0,0,.664-.055v1.711a4.648,4.648,0,0,1-1.367.2,2.156,2.156,0,0,1-2.422-2.4V8.2H83.215V6.547h1.234V4.469ZM91.793,15H89.527V6.547h2.266Zm-2.4-10.641a1.112,1.112,0,0,1,.34-.836,1.465,1.465,0,0,1,1.848,0,1.105,1.105,0,0,1,.344.836,1.108,1.108,0,0,1-.348.844,1.448,1.448,0,0,1-1.836,0A1.108,1.108,0,0,1,89.395,4.359Zm7.773,8.977a1.481,1.481,0,0,0,1.016-.344,1.2,1.2,0,0,0,.406-.914h2.117a2.9,2.9,0,0,1-.469,1.574,3.093,3.093,0,0,1-1.262,1.109,3.949,3.949,0,0,1-1.77.395A3.67,3.67,0,0,1,94.348,14,4.56,4.56,0,0,1,93.3,10.82v-.148A4.508,4.508,0,0,1,94.34,7.555a3.627,3.627,0,0,1,2.852-1.164,3.555,3.555,0,0,1,2.543.9,3.2,3.2,0,0,1,.973,2.4H98.59a1.551,1.551,0,0,0-.406-1.072,1.51,1.51,0,0,0-2.223.163,3.333,3.333,0,0,0-.4,1.866v.235a3.375,3.375,0,0,0,.4,1.878A1.377,1.377,0,0,0,97.168,13.336ZM106.895,15a2.507,2.507,0,0,1-.227-.758,2.732,2.732,0,0,1-2.133.914,3,3,0,0,1-2.059-.719,2.312,2.312,0,0,1-.816-1.812,2.389,2.389,0,0,1,1-2.062,4.915,4.915,0,0,1,2.879-.727h1.039V9.352a1.393,1.393,0,0,0-.3-.937,1.183,1.183,0,0,0-.949-.352,1.345,1.345,0,0,0-.895.273.929.929,0,0,0-.324.75h-2.258a2.268,2.268,0,0,1,.453-1.359,3,3,0,0,1,1.281-.98,4.669,4.669,0,0,1,1.859-.355,3.689,3.689,0,0,1,2.48.785,2.747,2.747,0,0,1,.918,2.207v3.664a4.041,4.041,0,0,0,.336,1.82V15Zm-1.867-1.57a1.945,1.945,0,0,0,.922-.223,1.462,1.462,0,0,0,.625-.6V11.156h-.844q-1.7,0-1.8,1.172l-.008.133a.9.9,0,0,0,.3.7A1.153,1.153,0,0,0,105.027,13.43Zm10.125-.766a.727.727,0,0,0-.41-.652,4.659,4.659,0,0,0-1.316-.426q-3.016-.633-3.016-2.562a2.323,2.323,0,0,1,.934-1.879,3.766,3.766,0,0,1,2.441-.754,4.053,4.053,0,0,1,2.574.758,2.388,2.388,0,0,1,.965,1.969h-2.258a1.092,1.092,0,0,0-.312-.8A1.322,1.322,0,0,0,113.777,8a1.351,1.351,0,0,0-.883.258.814.814,0,0,0-.312.656.7.7,0,0,0,.355.605,3.657,3.657,0,0,0,1.2.4,9.8,9.8,0,0,1,1.422.379,2.336,2.336,0,0,1,1.789,2.273,2.2,2.2,0,0,1-.992,1.871,4.28,4.28,0,0,1-2.562.715,4.47,4.47,0,0,1-1.887-.379,3.166,3.166,0,0,1-1.293-1.039,2.414,2.414,0,0,1-.469-1.426h2.141a1.179,1.179,0,0,0,.445.922,1.766,1.766,0,0,0,1.109.32,1.635,1.635,0,0,0,.98-.246A.766.766,0,0,0,115.152,12.664ZM1.367,34.711a5.094,5.094,0,0,1,.887-3.148A2.877,2.877,0,0,1,4.68,30.391a2.589,2.589,0,0,1,2.039.922V27H8.984V39H6.945l-.109-.9a2.657,2.657,0,0,1-2.172,1.055A2.869,2.869,0,0,1,2.27,37.98,5.258,5.258,0,0,1,1.367,34.711Zm2.258.168A3.337,3.337,0,0,0,4.039,36.7a1.349,1.349,0,0,0,1.2.634,1.511,1.511,0,0,0,1.477-.884V33.111a1.489,1.489,0,0,0-1.461-.884Q3.625,32.227,3.625,34.879Zm11,4.277A4.15,4.15,0,0,1,11.6,38.016a4.054,4.054,0,0,1-1.168-3.039v-.219a5.106,5.106,0,0,1,.492-2.277,3.612,3.612,0,0,1,1.395-1.547,3.914,3.914,0,0,1,2.059-.543,3.508,3.508,0,0,1,2.73,1.094,4.444,4.444,0,0,1,1,3.1v.922H12.719a2.1,2.1,0,0,0,.66,1.328,2,2,0,0,0,1.395.5,2.437,2.437,0,0,0,2.039-.945l1.109,1.242a3.389,3.389,0,0,1-1.375,1.121A4.511,4.511,0,0,1,14.625,39.156Zm-.258-6.945a1.411,1.411,0,0,0-1.09.455,2.357,2.357,0,0,0-.535,1.3h3.141v-.181a1.681,1.681,0,0,0-.406-1.165A1.456,1.456,0,0,0,14.367,32.211ZM25.75,39H23.484V27H25.75Zm6.758,0a2.507,2.507,0,0,1-.227-.758,2.732,2.732,0,0,1-2.133.914,3,3,0,0,1-2.059-.719,2.312,2.312,0,0,1-.816-1.812,2.389,2.389,0,0,1,1-2.062,4.915,4.915,0,0,1,2.879-.727h1.039v-.484a1.393,1.393,0,0,0-.3-.937,1.183,1.183,0,0,0-.949-.352,1.345,1.345,0,0,0-.895.273.929.929,0,0,0-.324.75H27.461a2.268,2.268,0,0,1,.453-1.359,3,3,0,0,1,1.281-.98,4.669,4.669,0,0,1,1.859-.355,3.689,3.689,0,0,1,2.48.785,2.747,2.747,0,0,1,.918,2.207v3.664a4.041,4.041,0,0,0,.336,1.82V39Zm-1.867-1.57a1.945,1.945,0,0,0,.922-.223,1.462,1.462,0,0,0,.625-.6V35.156h-.844q-1.7,0-1.8,1.172l-.008.133a.9.9,0,0,0,.3.7A1.153,1.153,0,0,0,30.641,37.43ZM42.555,39H40.289V30.547h2.266Zm-2.4-10.641a1.112,1.112,0,0,1,.34-.836,1.465,1.465,0,0,1,1.848,0,1.193,1.193,0,0,1,0,1.68,1.448,1.448,0,0,1-1.836,0A1.108,1.108,0,0,1,40.156,28.359Zm6.336,2.188.07.977a2.951,2.951,0,0,1,2.43-1.133,2.453,2.453,0,0,1,2,.789,3.682,3.682,0,0,1,.672,2.359V39H49.406V33.594a1.465,1.465,0,0,0-.312-1.043,1.4,1.4,0,0,0-1.039-.324,1.553,1.553,0,0,0-1.43.813V39H44.367V30.547ZM53.992,39V32.2H52.734V30.547h1.258v-.719a2.918,2.918,0,0,1,.816-2.207,3.162,3.162,0,0,1,2.285-.785,5.278,5.278,0,0,1,1.148.156l-.023,1.75a2.878,2.878,0,0,0-.687-.07q-1.273,0-1.273,1.2v.68h1.68V32.2h-1.68V39Zm4.766-4.3a5.013,5.013,0,0,1,.484-2.242,3.546,3.546,0,0,1,1.395-1.523,4.069,4.069,0,0,1,2.113-.539,3.849,3.849,0,0,1,2.793,1.047,4.2,4.2,0,0,1,1.207,2.844l.016.578A4.418,4.418,0,0,1,65.68,37.98a4.209,4.209,0,0,1-5.832,0,4.5,4.5,0,0,1-1.09-3.187Zm2.258.16a3.16,3.16,0,0,0,.453,1.843,1.628,1.628,0,0,0,2.578.008,3.457,3.457,0,0,0,.461-2.015,3.128,3.128,0,0,0-.461-1.831,1.5,1.5,0,0,0-1.3-.649,1.474,1.474,0,0,0-1.281.646A3.516,3.516,0,0,0,61.016,34.856Zm11.891-2.192a6.134,6.134,0,0,0-.812-.062,1.654,1.654,0,0,0-1.68.867V39H68.156V30.547h2.133l.063,1.008a2.092,2.092,0,0,1,1.883-1.164,2.366,2.366,0,0,1,.7.1Zm3.2-2.117.07.945a2.971,2.971,0,0,1,2.43-1.1,2.255,2.255,0,0,1,2.242,1.289,2.9,2.9,0,0,1,2.539-1.289,2.521,2.521,0,0,1,2.047.8,3.681,3.681,0,0,1,.672,2.41V39H83.844V33.609a1.61,1.61,0,0,0-.281-1.051,1.246,1.246,0,0,0-.992-.332,1.409,1.409,0,0,0-1.406.969l.008,5.8H78.914V33.617a1.59,1.59,0,0,0-.289-1.062,1.259,1.259,0,0,0-.984-.328,1.463,1.463,0,0,0-1.391.8V39H73.992V30.547ZM92.742,39a2.507,2.507,0,0,1-.227-.758,2.732,2.732,0,0,1-2.133.914,3,3,0,0,1-2.059-.719,2.312,2.312,0,0,1-.816-1.812,2.389,2.389,0,0,1,1-2.062,4.915,4.915,0,0,1,2.879-.727h1.039v-.484a1.393,1.393,0,0,0-.3-.937,1.183,1.183,0,0,0-.949-.352,1.345,1.345,0,0,0-.895.273.929.929,0,0,0-.324.75H87.7a2.268,2.268,0,0,1,.453-1.359,3,3,0,0,1,1.281-.98,4.669,4.669,0,0,1,1.859-.355,3.689,3.689,0,0,1,2.48.785,2.747,2.747,0,0,1,.918,2.207v3.664a4.041,4.041,0,0,0,.336,1.82V39Zm-1.867-1.57a1.945,1.945,0,0,0,.922-.223,1.462,1.462,0,0,0,.625-.6V35.156h-.844q-1.7,0-1.8,1.172l-.008.133a.9.9,0,0,0,.3.7A1.153,1.153,0,0,0,90.875,37.43Zm9.063-.094a1.481,1.481,0,0,0,1.016-.344,1.2,1.2,0,0,0,.406-.914h2.117a2.9,2.9,0,0,1-.469,1.574,3.093,3.093,0,0,1-1.262,1.109,3.949,3.949,0,0,1-1.77.395A3.67,3.67,0,0,1,97.117,38,4.56,4.56,0,0,1,96.07,34.82v-.148a4.508,4.508,0,0,1,1.039-3.117,3.627,3.627,0,0,1,2.852-1.164,3.555,3.555,0,0,1,2.543.9,3.2,3.2,0,0,1,.973,2.4h-2.117a1.551,1.551,0,0,0-.406-1.072,1.51,1.51,0,0,0-2.223.163,3.333,3.333,0,0,0-.4,1.866v.235a3.375,3.375,0,0,0,.4,1.878A1.377,1.377,0,0,0,99.938,37.336ZM107.148,39h-2.266V30.547h2.266Zm-2.4-10.641a1.112,1.112,0,0,1,.34-.836,1.465,1.465,0,0,1,1.848,0,1.193,1.193,0,0,1,0,1.68,1.448,1.448,0,0,1-1.836,0A1.108,1.108,0,0,1,104.75,28.359Zm3.906,6.336a5.013,5.013,0,0,1,.484-2.242,3.546,3.546,0,0,1,1.395-1.523,4.069,4.069,0,0,1,2.113-.539,3.849,3.849,0,0,1,2.793,1.047,4.2,4.2,0,0,1,1.207,2.844l.016.578a4.418,4.418,0,0,1-1.086,3.121,4.209,4.209,0,0,1-5.832,0,4.5,4.5,0,0,1-1.09-3.187Zm2.258.16a3.16,3.16,0,0,0,.453,1.843,1.628,1.628,0,0,0,2.578.008,3.457,3.457,0,0,0,.461-2.015,3.128,3.128,0,0,0-.461-1.831,1.5,1.5,0,0,0-1.3-.649,1.474,1.474,0,0,0-1.281.646A3.516,3.516,0,0,0,110.914,34.856ZM113.094,27h2.461l-2.164,2.422h-1.836Zm7.039,3.547.07.977a2.951,2.951,0,0,1,2.43-1.133,2.453,2.453,0,0,1,2,.789,3.682,3.682,0,0,1,.672,2.359V39h-2.258V33.594a1.465,1.465,0,0,0-.312-1.043,1.4,1.4,0,0,0-1.039-.324,1.553,1.553,0,0,0-1.43.813V39h-2.258V30.547Z" transform="translate(736.395 1081.531)" fill="#12263f"/>
      <path id="Path_660530" data-name="Path 660530" d="M6.734,12.18,9.313,3.625h2.609L7.961,15H5.516L1.57,3.625h2.6ZM17.383,15a2.507,2.507,0,0,1-.227-.758,2.732,2.732,0,0,1-2.133.914,3,3,0,0,1-2.059-.719,2.312,2.312,0,0,1-.816-1.812,2.389,2.389,0,0,1,1-2.062,4.915,4.915,0,0,1,2.879-.727h1.039V9.352a1.393,1.393,0,0,0-.3-.937,1.183,1.183,0,0,0-.949-.352,1.345,1.345,0,0,0-.895.273.929.929,0,0,0-.324.75H12.336a2.268,2.268,0,0,1,.453-1.359,3,3,0,0,1,1.281-.98,4.669,4.669,0,0,1,1.859-.355,3.689,3.689,0,0,1,2.48.785,2.747,2.747,0,0,1,.918,2.207v3.664a4.041,4.041,0,0,0,.336,1.82V15Zm-1.867-1.57a1.945,1.945,0,0,0,.922-.223,1.462,1.462,0,0,0,.625-.6V11.156h-.844q-1.7,0-1.8,1.172l-.008.133a.9.9,0,0,0,.3.7A1.153,1.153,0,0,0,15.516,13.43ZM23.445,15H21.18V3h2.266Zm4.242,0H25.422V6.547h2.266Zm-2.4-10.641a1.112,1.112,0,0,1,.34-.836,1.465,1.465,0,0,1,1.848,0,1.105,1.105,0,0,1,.344.836,1.108,1.108,0,0,1-.348.844,1.448,1.448,0,0,1-1.836,0A1.108,1.108,0,0,1,25.289,4.359ZM29.2,10.711a5.094,5.094,0,0,1,.887-3.148,2.877,2.877,0,0,1,2.426-1.172,2.589,2.589,0,0,1,2.039.922V3h2.266V15H34.773l-.109-.9a2.657,2.657,0,0,1-2.172,1.055A2.869,2.869,0,0,1,30.1,13.98,5.258,5.258,0,0,1,29.2,10.711Zm2.258.168a3.337,3.337,0,0,0,.414,1.823,1.349,1.349,0,0,0,1.2.634,1.511,1.511,0,0,0,1.477-.884V9.111a1.489,1.489,0,0,0-1.461-.884Q31.453,8.227,31.453,10.879Zm11,4.277a4.15,4.15,0,0,1-3.027-1.141,4.054,4.054,0,0,1-1.168-3.039v-.219A5.106,5.106,0,0,1,38.75,8.48a3.612,3.612,0,0,1,1.395-1.547A3.914,3.914,0,0,1,42.2,6.391a3.508,3.508,0,0,1,2.73,1.094,4.444,4.444,0,0,1,1,3.1v.922H40.547a2.1,2.1,0,0,0,.66,1.328,2,2,0,0,0,1.395.5,2.437,2.437,0,0,0,2.039-.945l1.109,1.242a3.389,3.389,0,0,1-1.375,1.121A4.511,4.511,0,0,1,42.453,15.156ZM42.2,8.211a1.411,1.411,0,0,0-1.09.455,2.357,2.357,0,0,0-.535,1.3h3.141V9.788A1.681,1.681,0,0,0,43.3,8.623,1.456,1.456,0,0,0,42.2,8.211ZM49.8,13.18h4.133V15H46.922V13.625L50.9,8.367H47.039V6.547h6.773v1.33Z" transform="translate(955.31 1349.281)" fill="#12263f"/>
      <path id="Path_660525" data-name="Path 660525" d="M7.816,12.18l2.578-8.555H13L9.043,15H6.6L2.652,3.625h2.6ZM18.465,15a2.507,2.507,0,0,1-.227-.758,2.732,2.732,0,0,1-2.133.914,3,3,0,0,1-2.059-.719,2.312,2.312,0,0,1-.816-1.812,2.389,2.389,0,0,1,1-2.062,4.915,4.915,0,0,1,2.879-.727h1.039V9.352a1.393,1.393,0,0,0-.3-.937,1.183,1.183,0,0,0-.949-.352A1.345,1.345,0,0,0,16,8.336a.929.929,0,0,0-.324.75H13.418a2.268,2.268,0,0,1,.453-1.359,3,3,0,0,1,1.281-.98,4.669,4.669,0,0,1,1.859-.355,3.689,3.689,0,0,1,2.48.785,2.747,2.747,0,0,1,.918,2.207v3.664a4.041,4.041,0,0,0,.336,1.82V15ZM16.6,13.43a1.945,1.945,0,0,0,.922-.223,1.462,1.462,0,0,0,.625-.6V11.156H17.3q-1.7,0-1.8,1.172l-.008.133a.9.9,0,0,0,.3.7A1.153,1.153,0,0,0,16.6,13.43ZM24.527,15H22.262V3h2.266Zm1.508-4.3a5.013,5.013,0,0,1,.484-2.242A3.546,3.546,0,0,1,27.914,6.93a4.069,4.069,0,0,1,2.113-.539A3.849,3.849,0,0,1,32.82,7.438a4.2,4.2,0,0,1,1.207,2.844l.016.578a4.418,4.418,0,0,1-1.086,3.121,3.775,3.775,0,0,1-2.914,1.176,3.793,3.793,0,0,1-2.918-1.172,4.5,4.5,0,0,1-1.09-3.187Zm2.258.16a3.16,3.16,0,0,0,.453,1.843,1.628,1.628,0,0,0,2.578.008,3.457,3.457,0,0,0,.461-2.015,3.128,3.128,0,0,0-.461-1.831,1.5,1.5,0,0,0-1.3-.649,1.474,1.474,0,0,0-1.281.646A3.516,3.516,0,0,0,28.293,10.856ZM40.184,8.664a6.134,6.134,0,0,0-.812-.062,1.654,1.654,0,0,0-1.68.867V15H35.434V6.547h2.133l.063,1.008a2.092,2.092,0,0,1,1.883-1.164,2.366,2.366,0,0,1,.7.1Z" transform="translate(1048.5 1184.531)" fill="#12263f"/>
      <g id="Group_968466" data-name="Group 968466" transform="translate(-289.848 -6282.469)">
        <circle id="Ellipse_4022" data-name="Ellipse 4022" cx="49.69" cy="49.69" r="49.69" transform="translate(679.848 7505.49)" fill="#efedee" stroke="#c2c859" stroke-miterlimit="10" stroke-width="3"/>
        <g id="Group_53704" data-name="Group 53704" transform="translate(697.844 7523.487)">
          <circle id="Ellipse_4023" data-name="Ellipse 4023" cx="31.693" cy="31.693" r="31.693" fill="#fff"/>
          <g id="Group_53703" data-name="Group 53703" transform="translate(8.209 8.209)">
            <path id="Path_659292" data-name="Path 659292" d="M23.484,0A23.484,23.484,0,1,1,0,23.484,23.484,23.484,0,0,1,23.484,0Z" fill="#c0c942"/>
          </g>
        </g>
      </g>
      <g id="Group_968470" data-name="Group 968470" transform="translate(430.773 -6282.469)">
        <circle id="Ellipse_4022-2" data-name="Ellipse 4022" cx="49.69" cy="49.69" r="49.69" transform="translate(679.848 7505.49)" fill="#efedee" stroke="#c2c859" stroke-miterlimit="10" stroke-width="3"/>
        <g id="Group_53704-2" data-name="Group 53704" transform="translate(697.844 7523.487)">
          <circle id="Ellipse_4023-2" data-name="Ellipse 4023" cx="31.693" cy="31.693" r="31.693" fill="#fff"/>
          <g id="Group_53703-2" data-name="Group 53703" transform="translate(8.209 8.209)">
            <path id="Path_659292-2" data-name="Path 659292" d="M23.484,0A23.484,23.484,0,1,1,0,23.484,23.484,23.484,0,0,1,23.484,0Z" fill="#c0c942"/>
          </g>
        </g>
      </g>
      <g id="Group_968467" data-name="Group 968467" transform="translate(-185.538 -6076.469)">
        <circle id="Ellipse_4022-3" data-name="Ellipse 4022" cx="49.69" cy="49.69" r="49.69" transform="translate(679.848 7505.49)" fill="#efedee" stroke="#c2c859" stroke-miterlimit="10" stroke-width="3"/>
        <g id="Group_53704-3" data-name="Group 53704" transform="translate(697.844 7523.487)">
          <circle id="Ellipse_4023-3" data-name="Ellipse 4023" cx="31.693" cy="31.693" r="31.693" fill="#fff"/>
          <g id="Group_53703-3" data-name="Group 53703" transform="translate(8.209 8.209)">
            <path id="Path_659292-3" data-name="Path 659292" d="M23.484,0A23.484,23.484,0,1,1,0,23.484,23.484,23.484,0,0,1,23.484,0Z" fill="#c0c942"/>
          </g>
        </g>
      </g>
      <g id="Group_968468" data-name="Group 968468" transform="translate(321.463 -6076.469)">
        <circle id="Ellipse_4022-4" data-name="Ellipse 4022" cx="49.69" cy="49.69" r="49.69" transform="translate(679.848 7505.49)" fill="#efedee" stroke="#c2c859" stroke-miterlimit="10" stroke-width="3"/>
        <g id="Group_53704-4" data-name="Group 53704" transform="translate(697.844 7523.487)">
          <circle id="Ellipse_4023-4" data-name="Ellipse 4023" cx="31.693" cy="31.693" r="31.693" fill="#fff"/>
          <g id="Group_53703-4" data-name="Group 53703" transform="translate(8.209 8.209)">
            <path id="Path_659292-4" data-name="Path 659292" d="M23.484,0A23.484,23.484,0,1,1,0,23.484,23.484,23.484,0,0,1,23.484,0Z" fill="#c0c942"/>
          </g>
        </g>
      </g>
      <g id="Group_968469" data-name="Group 968469" transform="translate(70.547 -5978.266)">
        <circle id="Ellipse_4022-5" data-name="Ellipse 4022" cx="49.69" cy="49.69" r="49.69" transform="translate(679.848 7505.49)" fill="#efedee" stroke="#c2c859" stroke-miterlimit="10" stroke-width="3"/>
        <g id="Group_53704-5" data-name="Group 53704" transform="translate(697.844 7523.487)">
          <circle id="Ellipse_4023-5" data-name="Ellipse 4023" cx="31.693" cy="31.693" r="31.693" fill="#fff"/>
          <g id="Group_53703-5" data-name="Group 53703" transform="translate(8.209 8.209)">
            <path id="Path_659292-5" data-name="Path 659292" d="M23.484,0A23.484,23.484,0,1,1,0,23.484,23.484,23.484,0,0,1,23.484,0Z" fill="#c0c942"/>
          </g>
        </g>
      </g>
      <g id="visual-language" transform="translate(491.889 1203.28)">
        <path id="Path_659296" data-name="Path 659296" d="M204.419,60,196,87.5l8.419,27.5a27.5,27.5,0,1,0,0-55Z" transform="translate(-168.807 -51.889)" fill="#ff4181"/>
        <path id="Path_659297" data-name="Path 659297" d="M60,87.5A27.5,27.5,0,0,0,87.5,115V60A27.5,27.5,0,0,0,60,87.5Z" transform="translate(-51.889 -51.889)" fill="#ff755c"/>
        <path id="Path_659298" data-name="Path 659298" d="M221.612,137,216,153.7l5.612,16.7a31.494,31.494,0,0,0,27.5-16.7A31.494,31.494,0,0,0,221.612,137Z" transform="translate(-186.001 -118.086)" fill="#fff5d9"/>
        <path id="Path_659299" data-name="Path 659299" d="M60,153.7a31.494,31.494,0,0,0,27.5,16.7V137A31.494,31.494,0,0,0,60,153.7Z" transform="translate(-51.889 -118.086)" fill="#fff"/>
        <path id="Path_659300" data-name="Path 659300" d="M224.682,137l-5.111,16.7,5.111,16.7a16.7,16.7,0,0,0,0-33.394Z" transform="translate(-189.071 -118.086)" fill="#6fa953"/>
        <path id="Path_659301" data-name="Path 659301" d="M137,153.7a16.7,16.7,0,0,0,16.7,16.7V137A16.7,16.7,0,0,0,137,153.7Z" transform="translate(-118.086 -118.086)" fill="#85c250"/>
        <path id="Path_659302" data-name="Path 659302" d="M240.473,197l-2.534,8.278,2.534,8.278a8.278,8.278,0,1,0,0-16.557Z" transform="translate(-204.862 -169.667)" fill="#092a40"/>
        <path id="Path_659303" data-name="Path 659303" d="M197,205.278a8.278,8.278,0,0,0,8.278,8.278V197A8.278,8.278,0,0,0,197,205.278Z" transform="translate(-169.667 -169.667)" fill="#174461"/>
      </g>
      <g id="alert" transform="translate(582.852 1374.779)">
        <path id="Path_659320" data-name="Path 659320" d="M2,29.5A27.5,27.5,0,1,1,29.5,57,27.5,27.5,0,0,1,2,29.5Z" transform="translate(0 0)" fill="#ee421b" fill-rule="evenodd"/>
        <path id="Path_659321" data-name="Path 659321" d="M29.5,2a27.5,27.5,0,1,0,0,55Z" transform="translate(0)" fill="#fd6320"/>
        <path id="Path_659322" data-name="Path 659322" d="M16.5,8.75a2.75,2.75,0,1,0-5.5,0v16.5a2.75,2.75,0,1,0,5.5,0Z" transform="translate(15.751 7)" fill="#c6d3dd"/>
        <path id="Path_659323" data-name="Path 659323" d="M13.75,20.5A2.75,2.75,0,1,0,11,17.75,2.75,2.75,0,0,0,13.75,20.5Z" transform="translate(15.751 22.751)" fill="#c6d3dd"/>
        <g id="Group_968481" data-name="Group 968481" transform="translate(26.751 13)">
          <path id="Path_659324" data-name="Path 659324" d="M13.75,6A2.75,2.75,0,0,0,11,8.75v16.5A2.75,2.75,0,0,0,13.75,28Z" transform="translate(-11 -6)" fill="#dae7ec"/>
          <path id="Path_659325" data-name="Path 659325" d="M13.75,15a2.75,2.75,0,0,0,0,5.5Z" transform="translate(-11 9.751)" fill="#dae7ec"/>
        </g>
      </g>
      <circle id="Ellipse_5398" data-name="Ellipse 5398" cx="27.5" cy="27.5" r="27.5" transform="translate(1042.395 1211.531)" fill="#e4e8a7"/>
      <g id="network" transform="translate(1051 1219.892)">
        <g id="Group_968476" data-name="Group 968476" transform="translate(6.5 6.936)">
          <path id="Path_659304" data-name="Path 659304" d="M101.152,100.224l-.927.927-6.768-6.768.927-.927Z" transform="translate(-93.021 -93.456)" fill="#2e3192"/>
          <path id="Path_659305" data-name="Path 659305" d="M317.032,118.654l-5.267,5.267-.927-.927,5.267-5.267Z" transform="translate(-294.269 -115.926)" fill="#2e3192"/>
          <path id="Path_659306" data-name="Path 659306" d="M94.268,265.764l-6.2,2.479-.486-1.216,6.2-2.479Z" transform="translate(-87.585 -251.85)" fill="#2e3192"/>
          <path id="Path_659307" data-name="Path 659307" d="M269.374,341.125l-1.243.414-1.648-4.945,1.243-.414Z" transform="translate(-253.206 -318.165)" fill="#2e3192"/>
        </g>
        <circle id="Ellipse_5393" data-name="Ellipse 5393" cx="7.862" cy="7.862" r="7.862" transform="translate(11.138 11.138)" fill="#ed1c24"/>
        <circle id="Ellipse_5394" data-name="Ellipse 5394" cx="4.586" cy="4.586" r="4.586" transform="translate(0 0)" fill="#fbb03b"/>
        <circle id="Ellipse_5395" data-name="Ellipse 5395" cx="4.586" cy="4.586" r="4.586" transform="translate(18.345 28.827)" fill="#9e005d"/>
        <circle id="Ellipse_5396" data-name="Ellipse 5396" cx="3.931" cy="3.931" r="3.931" transform="translate(0 19.655)" fill="#29485a"/>
        <circle id="Ellipse_5397" data-name="Ellipse 5397" cx="5.896" cy="5.896" r="5.896" transform="translate(26.207 0)" fill="#009245"/>
        <g id="Group_968477" data-name="Group 968477" transform="translate(28.827 3.276)">
          <path id="Path_659308" data-name="Path 659308" d="M391.034,45.447h-1.966a.655.655,0,1,1,0-1.31h1.966a.655.655,0,1,1,0,1.31Z" transform="translate(-388.413 -44.137)" fill="#f2f2f2"/>
          <path id="Path_659309" data-name="Path 659309" d="M394.31,71.93h-5.241a.655.655,0,1,1,0-1.31h5.241a.655.655,0,1,1,0,1.31Z" transform="translate(-388.413 -68.654)" fill="#f2f2f2"/>
          <path id="Path_659310" data-name="Path 659310" d="M394.31,98.413h-5.241a.655.655,0,1,1,0-1.31h5.241a.655.655,0,1,1,0,1.31Z" transform="translate(-388.413 -93.172)" fill="#f2f2f2"/>
        </g>
        <g id="Group_968478" data-name="Group 968478" transform="translate(1.31 14.414)">
          <path id="Path_659311" data-name="Path 659311" d="M44.793,287.723a.655.655,0,0,1-.655-.655v-3.931a.655.655,0,0,1,1.31,0v3.931A.655.655,0,0,1,44.793,287.723Z" transform="translate(-42.172 -275.93)" fill="#fbcc34"/>
          <path id="Path_659312" data-name="Path 659312" d="M22.241,310.275H18.31a.655.655,0,1,1,0-1.31h3.931a.655.655,0,1,1,0,1.31Z" transform="translate(-17.655 -300.448)" fill="#fbcc34"/>
          <path id="Path_659313" data-name="Path 659313" d="M223.8,198.136h-.983a.672.672,0,0,1-.295-1.31.679.679,0,0,1,.295,0h2.457a.655.655,0,1,0,0-1.31h-1.31v-.655a.655.655,0,1,0-1.31,0v.67a2.031,2.031,0,0,0-1.966,1.95,2.055,2.055,0,0,0,2.129,1.966h.983a.672.672,0,1,1,.295,1.31.679.679,0,0,1-.295,0h-2.457a.655.655,0,1,0,0,1.31h1.31v.655a.655.655,0,0,0,1.31,0v-.67a2.031,2.031,0,0,0,1.966-1.95,2.055,2.055,0,0,0-2.129-1.966Z" transform="translate(-205.619 -194.205)" fill="#fbcc34"/>
        </g>
        <g id="Group_968479" data-name="Group 968479" transform="translate(1.965 2.621)">
          <path id="Path_659314" data-name="Path 659314" d="M27.137,55.586a.655.655,0,0,1-.655-.655V53.62a.655.655,0,1,1,1.31,0v1.31A.655.655,0,0,1,27.137,55.586Z" transform="translate(-26.482 -51.655)" fill="#f2f2f2"/>
          <path id="Path_659315" data-name="Path 659315" d="M53.62,39.241a.655.655,0,0,1-.655-.655V35.965a.655.655,0,0,1,1.31,0v2.621A.655.655,0,0,1,53.62,39.241Z" transform="translate(-50.999 -35.31)" fill="#f2f2f2"/>
          <path id="Path_659316" data-name="Path 659316" d="M80.1,39.241a.655.655,0,0,1-.655-.655V35.965a.655.655,0,0,1,1.31,0v2.621A.655.655,0,0,1,80.1,39.241Z" transform="translate(-75.517 -35.31)" fill="#f2f2f2"/>
        </g>
        <g id="Group_968480" data-name="Group 968480" transform="translate(20.31 30.793)">
          <path id="Path_659317" data-name="Path 659317" d="M274.964,416.206h-.655a.655.655,0,0,1,0-1.31h.655a.655.655,0,0,1,0,1.31Z" transform="translate(-273.654 -414.896)" fill="#fbcc34"/>
          <path id="Path_659318" data-name="Path 659318" d="M276.276,442.688H274.31a.655.655,0,0,1,0-1.31h1.966a.655.655,0,1,1,0,1.31Z" transform="translate(-273.655 -439.413)" fill="#fbcc34"/>
          <path id="Path_659319" data-name="Path 659319" d="M278.24,469.171h-3.931a.655.655,0,0,1,0-1.31h3.931a.655.655,0,1,1,0,1.31Z" transform="translate(-273.654 -463.93)" fill="#fbcc34"/>
        </g>
      </g>
      <g id="stamp" transform="translate(772.396 1432.527)">
        <circle id="Ellipse_5399" data-name="Ellipse 5399" cx="26.265" cy="26.265" r="26.265" transform="translate(1.235 2.472)" fill="#ffca45"/>
        <g id="Group_968494" data-name="Group 968494" transform="translate(-0.001 0)">
          <g id="Group_968482" data-name="Group 968482" transform="translate(0)">
            <path id="Path_659326" data-name="Path 659326" d="M49.778,42.282c-8.655,14.113-28.8,16.664-40.671,5.095Q4.584,29.511.062,11.645A2.371,2.371,0,0,1,1.906,8.853L36.548.086A2.371,2.371,0,0,1,39.5,1.665q5.139,20.309,10.279,40.617Z" transform="translate(0.001 -0.002)" fill="#eaf2ff"/>
          </g>
          <g id="Group_968493" data-name="Group 968493" transform="translate(8.301 8.693)">
            <g id="Group_968483" data-name="Group 968483">
              <path id="Path_659327" data-name="Path 659327" d="M102.891,82.781,78.536,88.945a.8.8,0,1,1-.394-1.557L102.5,81.224a.8.8,0,1,1,.394,1.557Z" transform="translate(-77.536 -81.199)" fill="#76beff"/>
            </g>
            <g id="Group_968484" data-name="Group 968484" transform="translate(1.497 5.916)">
              <path id="Path_659328" data-name="Path 659328" d="M116.877,138.039,92.522,144.2a.8.8,0,0,1-.394-1.557l24.354-6.164a.8.8,0,1,1,.394,1.557Z" transform="translate(-91.522 -136.457)" fill="#76beff"/>
            </g>
            <g id="Group_968485" data-name="Group 968485" transform="translate(3.067 12.117)">
              <path id="Path_659329" data-name="Path 659329" d="M131.537,195.963l-24.354,6.164a.8.8,0,0,1-.394-1.557l24.354-6.164a.8.8,0,1,1,.394,1.557Z" transform="translate(-106.182 -194.381)" fill="#76beff"/>
            </g>
            <g id="Group_968486" data-name="Group 968486" transform="translate(4.373 17.28)">
              <path id="Path_659330" data-name="Path 659330" d="M143.742,244.192l-24.354,6.164a.8.8,0,1,1-.394-1.557l24.354-6.164a.8.8,0,0,1,.394,1.557Z" transform="translate(-118.388 -242.61)" fill="#76beff"/>
            </g>
            <g id="Group_968490" data-name="Group 968490" transform="translate(3.283 28.843)">
              <g id="Group_968488" data-name="Group 968488">
                <g id="Group_968487" data-name="Group 968487">
                  <path id="Path_659331" data-name="Path 659331" d="M122.647,356.154a7.333,7.333,0,1,1-8.908-5.31A7.342,7.342,0,0,1,122.647,356.154Z" transform="translate(-108.203 -350.619)" fill="#36b990"/>
                </g>
              </g>
              <g id="Group_968489" data-name="Group 968489" transform="translate(2.25 2.652)">
                <path id="Path_659332" data-name="Path 659332" d="M133.859,384a.8.8,0,0,1-.608-.089l-3.641-2.17a.8.8,0,1,1,.822-1.379l2.952,1.759,3.775-6.333a.8.8,0,0,1,1.379.822l-4.186,7.023A.8.8,0,0,1,133.859,384Z" transform="translate(-129.218 -375.393)" fill="#fff"/>
              </g>
            </g>
            <g id="Group_968491" data-name="Group 968491" transform="translate(19.738 25.634)">
              <path id="Path_659333" data-name="Path 659333" d="M274.009,322.231l-11.1,2.811a.8.8,0,0,1-.394-1.557l11.1-2.811a.8.8,0,1,1,.394,1.557Z" transform="translate(-261.904 -320.649)" fill="#76beff"/>
            </g>
            <g id="Group_968492" data-name="Group 968492" transform="translate(20.981 30.547)">
              <path id="Path_659334" data-name="Path 659334" d="M285.623,368.117l-11.1,2.81a.8.8,0,1,1-.394-1.557l11.1-2.811a.8.8,0,0,1,.394,1.557Z" transform="translate(-273.518 -366.535)" fill="#76beff"/>
            </g>
          </g>
        </g>
        <g id="Group_968495" data-name="Group 968495" transform="translate(32.299 0)">
          <path id="Path_659335" data-name="Path 659335" d="M404.658,8.935a5.226,5.226,0,0,1-2.693,1.438,11.446,11.446,0,0,0-4.887,2.288l-3.569-3.569q.235-.3.449-.611a11.561,11.561,0,0,0,1.849-4.3,5.22,5.22,0,0,1,1.454-2.688,5.25,5.25,0,0,1,8.357,1.34,5.247,5.247,0,0,1-.961,6.1Z" transform="translate(-383.682 0)" fill="#a54b0e"/>
          <path id="Path_659336" data-name="Path 659336" d="M407.891,7.433c-1.327,1.327-3.063,1.37-4.711,2.042-1.361.554-2.8,1.753-4.139.413L397.7,8.548a11.6,11.6,0,0,0,1.849-4.3A5.245,5.245,0,0,1,402.334.615,5.322,5.322,0,0,1,409.363,2.9a5.24,5.24,0,0,1-1.472,4.53Z" transform="translate(-387.426 -0.069)" fill="#bf6015"/>
          <path id="Path_659337" data-name="Path 659337" d="M372.178,82.96l-.008.008-7.116-7.116.008-.008a1.795,1.795,0,0,1,2.536,0l4.58,4.58a1.792,1.792,0,0,1,0,2.536Z" transform="translate(-358.275 -67.257)" fill="#6d2929"/>
          <path id="Path_659338" data-name="Path 659338" d="M378.193,82.3l-6.873-6.873a1.794,1.794,0,0,1,1.873.419l4.58,4.58A1.792,1.792,0,0,1,378.193,82.3Z" transform="translate(-363.869 -67.257)" fill="#844242"/>
          <path id="Path_659339" data-name="Path 659339" d="M318.278,106.627l-.587.587a1.48,1.48,0,0,1-.422.3,1.5,1.5,0,0,1-1.7-.3l-8.554-8.554a1.5,1.5,0,0,1-.3-1.7,1.481,1.481,0,0,1,.3-.422l.587-.587Z" transform="translate(-306.059 -85.681)" fill="#4d5961"/>
          <path id="Path_659340" data-name="Path 659340" d="M319.464,106.627l-.587.587a1.481,1.481,0,0,1-.422.3L307.907,96.962a1.482,1.482,0,0,1,.3-.422l.587-.587Z" transform="translate(-307.245 -85.681)" fill="#454545"/>
          <path id="Path_659341" data-name="Path 659341" d="M316.092,79.563a.906.906,0,0,1-1.282,0l-12.8-12.8a.852.852,0,0,1,.023-1.3,4.383,4.383,0,0,1,1.693-1.026,4.288,4.288,0,0,1,4.294,1.045l8.07,8.07a4.249,4.249,0,0,1,0,6.011Z" transform="translate(-301.719 -57.364)" fill="#d88521"/>
          <path id="Path_659342" data-name="Path 659342" d="M318.29,77.8a.906.906,0,0,1-1.282,0l-12.34-12.34a4.383,4.383,0,0,1,1.693-1.026,4.288,4.288,0,0,1,4.294,1.045l8.07,8.07a4.225,4.225,0,0,1,.808,1.127A4.238,4.238,0,0,1,318.29,77.8Z" transform="translate(-304.352 -57.364)" fill="#fea832"/>
        </g>
      </g>
      <g id="accept" transform="translate(955.395 1376.531)">
        <circle id="Ellipse_5400" data-name="Ellipse 5400" cx="28" cy="28" r="28" fill="#bbec6c"/>
        <path id="Path_659343" data-name="Path 659343" d="M235.184,0c-.568,0-1.131.019-1.691.052C248.168.927,259.081,13.1,259.081,28s-10.913,27.07-25.588,27.945c.56.033,1.123.052,1.691.052a28,28,0,1,0,0-55.994Z" transform="translate(-207.187)" fill="#a2e62e"/>
        <circle id="Ellipse_5401" data-name="Ellipse 5401" cx="23.897" cy="23.897" r="23.897" transform="translate(4.1 4.1)" fill="#4fc123"/>
        <path id="Path_659344" data-name="Path 659344" d="M235.185,36.391c-.569,0-1.132.021-1.691.06a23.9,23.9,0,0,1,0,47.674c.559.039,1.122.06,1.691.06a23.9,23.9,0,0,0,0-47.794Z" transform="translate(-207.188 -32.291)" fill="#47a920"/>
        <path id="Path_659345" data-name="Path 659345" d="M143.812,152.794l-15.254,15.255a4.14,4.14,0,0,1-5.855,0l-7.8-7.8a2.293,2.293,0,0,1,0-3.245l2.274-2.274h0l.771-.771a2.3,2.3,0,0,1,3.245,0l3.9,3.9a1.074,1.074,0,0,0,1.52,0l11.132-11.132a2.3,2.3,0,0,1,3.245,0l2.82,2.82A2.293,2.293,0,0,1,143.812,152.794Z" transform="translate(-101.36 -129.602)" fill="#d1f19e"/>
        <g id="Group_968496" data-name="Group 968496" transform="translate(15.816 16.455)">
          <path id="Path_659346" data-name="Path 659346" d="M149.819,214.793l-1.292,1.292a1.313,1.313,0,0,1-1.85.008l-3.951-3.879a2.29,2.29,0,0,0-2.346-.553h0l.771-.771a2.3,2.3,0,0,1,3.245,0l3.9,3.9A1.074,1.074,0,0,0,149.819,214.793Z" transform="translate(-140.38 -202.989)" fill="#bbec6c"/>
          <path id="Path_659347" data-name="Path 659347" d="M211.067,149.548l-2.82-2.82a2.294,2.294,0,0,0-3.245,0l-.729.729a2.289,2.289,0,0,1,1.837.662l1.576,1.429a2.294,2.294,0,0,1,0,3.245L193.7,166.966a4.135,4.135,0,0,1-3.673,1.144,4.139,4.139,0,0,0,5.789-.063l15.255-15.255A2.3,2.3,0,0,0,211.067,149.548Z" transform="translate(-184.431 -146.056)" fill="#bbec6c"/>
        </g>
      </g>
      <g id="info" transform="translate(743.243 1133.849)">
        <path id="Path_659348" data-name="Path 659348" d="M57.021,114.043A57.022,57.022,0,0,1,16.7,16.7,57.022,57.022,0,0,1,97.342,97.342,56.65,56.65,0,0,1,57.021,114.043Z" transform="translate(0)" fill="#fd9827"/>
        <path id="Path_659349" data-name="Path 659349" d="M296.32,16.7A56.65,56.65,0,0,0,256,0V114.043A57.022,57.022,0,0,0,296.32,16.7Z" transform="translate(-198.979)" fill="#785549"/>
        <path id="Path_659350" data-name="Path 659350" d="M205.478,99.5a12.251,12.251,0,1,1,12.251-12.251A12.265,12.265,0,0,1,205.478,99.5ZM215.5,146.277V106.184H191v6.682h6.682v33.411H191v6.682h31.184v-6.682Z" transform="translate(-148.457 -58.294)" fill="#fff"/>
        <g id="Group_968497" data-name="Group 968497" transform="translate(57.021 16.706)">
          <path id="Path_659351" data-name="Path 659351" d="M256,99.5A12.251,12.251,0,0,0,256,75Z" transform="translate(-256 -75)" fill="#c0c942"/>
          <path id="Path_659352" data-name="Path 659352" d="M266.023,255.093V215H256v46.775h16.706v-6.682Z" transform="translate(-256 -183.816)" fill="#c0c942"/>
        </g>
      </g>
    </g>
    <g id="Group_969906" data-name="Group 969906" transform="translate(1057.741 1441.904)">
      <g transform="matrix(1, 0, 0, 1, -669.24, -434.9)" filter="url(#Path_121298)">
        <path id="Path_121298-2" data-name="Path 121298" d="M1150.733,1930.011a10.97,10.97,0,0,1,10.293,6.225,1.215,1.215,0,0,1-.479,1.688,1.182,1.182,0,0,1-1.645-.593,10.76,10.76,0,0,0-1.784-2.506,8.383,8.383,0,1,0-9.8,13.381c.2.106.4.209.579.333a1.186,1.186,0,0,1,.445,1.613,1.2,1.2,0,0,1-1.613.467,10.671,10.671,0,0,1-4.244-3.508,10.8,10.8,0,0,1,6.592-16.9A10.188,10.188,0,0,1,1150.733,1930.011Z" transform="translate(-471.2 -1495.1)"/>
      </g>
      <g id="Group_87370" data-name="Group 87370" transform="translate(6.219 3.714)">
        <g transform="matrix(1, 0, 0, 1, -675.46, -438.62)" filter="url(#Path_121299)">
          <path id="Path_121299-2" data-name="Path 121299" d="M1201.415,1957.229a12.372,12.372,0,0,0-2.976-6.893q-4.6-5.2-9.324-10.292a4.55,4.55,0,0,0-6.213-.4,4.957,4.957,0,0,0-1.55,2.282l-.376-.23a4.582,4.582,0,0,0-6.651,2.205c-.148.376-.244.4-.592.194a4.416,4.416,0,0,0-4.563-.106,4.543,4.543,0,0,0-2.218,2.695c-.174-.165-.309-.292-.443-.421-1.447-1.4-2.766-2.935-4.32-4.218a4.589,4.589,0,0,0-7.068,2.125,4.643,4.643,0,0,0,1.308,5.03q7.854,7.846,15.7,15.7c.123.122.3.215.339.431-3.132.49-6.24.966-9.346,1.463a5.352,5.352,0,0,0-4.7,4.095,3.677,3.677,0,0,0,3.671,4.868q11.128.012,22.256,0a12.9,12.9,0,0,0,9.141-3.547c1.477-1.393,2.9-2.84,4.321-4.294a13.038,13.038,0,0,0,3.368-6.161,6.739,6.739,0,0,1,.34-1.578v-2.686C1201.384,1957.442,1201.427,1957.323,1201.415,1957.229Zm-5.226,8.887c-1.336,1.458-2.764,2.835-4.188,4.209a10.769,10.769,0,0,1-7.817,3.029c-3.477-.011-6.955,0-10.432,0q-5.707,0-11.414,0a4.159,4.159,0,0,1-.616-.038,1.173,1.173,0,0,1-1.056-1.335,3,3,0,0,1,2.758-2.8q5.731-.9,11.464-1.788c.051-.008.1-.02.152-.028a1.259,1.259,0,0,0,1.166-.868,1.309,1.309,0,0,0-.456-1.384q-2.62-2.6-5.225-5.219-6.227-6.225-12.453-12.451a2.224,2.224,0,0,1-.336-3.1,2.17,2.17,0,0,1,3.04-.367,5.937,5.937,0,0,1,.531.489q5.718,5.714,11.432,11.428a1.688,1.688,0,0,0,.938.593,1.128,1.128,0,0,0,1.13-.444,1.084,1.084,0,0,0,.114-1.254,2.59,2.59,0,0,0-.45-.559c-1.506-1.513-3.022-3.015-4.526-4.531a2.2,2.2,0,0,1-.369-2.939,2.177,2.177,0,0,1,3.408-.229c1.306,1.274,2.581,2.58,3.877,3.865a8.393,8.393,0,0,0,1.16,1.1,1.127,1.127,0,0,0,1.39-.043,1.2,1.2,0,0,0,.4-1.294,1.882,1.882,0,0,0-.5-.707c-.8-.806-1.639-1.579-2.385-2.433a2.162,2.162,0,0,1,1.116-3.522,2.195,2.195,0,0,1,2.205.672c.764.77,1.523,1.544,2.3,2.3a1.2,1.2,0,1,0,1.713-1.679,2.176,2.176,0,0,1-.651-1.678,2.193,2.193,0,0,1,3.863-1.307q3.7,4.065,7.4,8.134a26.45,26.45,0,0,1,2.167,2.491A10.7,10.7,0,0,1,1196.189,1966.117Z" transform="translate(-479.4 -1499.99)"/>
        </g>
        <path id="Path_121300" data-name="Path 121300" d="M1198.029,1953.078q-3.7-4.071-7.4-8.134a2.193,2.193,0,0,0-3.863,1.307,2.176,2.176,0,0,0,.651,1.678,1.2,1.2,0,1,1-1.713,1.679c-.78-.753-1.54-1.528-2.3-2.3a2.194,2.194,0,0,0-2.206-.672,2.162,2.162,0,0,0-1.116,3.521c.745.854,1.584,1.626,2.385,2.433a1.874,1.874,0,0,1,.5.707,1.2,1.2,0,0,1-.4,1.294,1.127,1.127,0,0,1-1.39.043,8.4,8.4,0,0,1-1.16-1.1c-1.3-1.284-2.571-2.59-3.877-3.865a2.177,2.177,0,0,0-3.408.229,2.2,2.2,0,0,0,.369,2.939c1.5,1.515,3.02,3.018,4.526,4.531a2.6,2.6,0,0,1,.45.559,1.084,1.084,0,0,1-.114,1.255,1.128,1.128,0,0,1-1.13.444,1.688,1.688,0,0,1-.937-.593q-5.717-5.714-11.432-11.428a5.868,5.868,0,0,0-.531-.489,2.17,2.17,0,0,0-3.04.367,2.224,2.224,0,0,0,.337,3.1q6.223,6.229,12.452,12.451,2.611,2.611,5.225,5.219a1.31,1.31,0,0,1,.456,1.385,1.26,1.26,0,0,1-1.167.868c-.051.007-.1.02-.152.028q-5.732.894-11.464,1.788a3,3,0,0,0-2.758,2.8,1.174,1.174,0,0,0,1.056,1.335,4.153,4.153,0,0,0,.616.038q5.707,0,11.414,0c3.477,0,6.954-.009,10.432,0a10.768,10.768,0,0,0,7.817-3.029c1.424-1.374,2.852-2.751,4.188-4.209a10.7,10.7,0,0,0,.854-13.7A26.467,26.467,0,0,0,1198.029,1953.078Z" transform="translate(-1158.01 -1941.759)" fill="#fefefe"/>
      </g>
    </g>
  </g>
</svg>
