<svg id="bg-modal" xmlns="http://www.w3.org/2000/svg" xmlns:xlink="http://www.w3.org/1999/xlink" width="820" height="196.542" viewBox="0 0 820 196.542">
  <defs>
    <clipPath id="clip-path">
      <rect id="Rectangle_337081" data-name="Rectangle 337081" width="820" height="196.542" rx="10" fill="#fff" stroke="#707070" stroke-width="1" opacity="0.45"/>
    </clipPath>
    <clipPath id="clip-path-2">
      <rect id="Rectangle_337079" data-name="Rectangle 337079" width="1508.8" height="196.542" rx="10" transform="translate(0)" fill="#c0c942" stroke="#138af8" stroke-linecap="round" stroke-width="4" opacity="0.31"/>
    </clipPath>
    <clipPath id="clip-path-3">
      <rect id="Rectangle_35890" data-name="Rectangle 35890" width="159.423" height="29.222" transform="translate(0 0)" fill="#fff" stroke="#707070" stroke-width="1"/>
    </clipPath>
    <clipPath id="clip-path-4">
      <rect id="Rectangle_337080" data-name="Rectangle 337080" width="71.876" height="32.458" transform="translate(0 0)" fill="#fff" stroke="#707070" stroke-width="1"/>
    </clipPath>
    <clipPath id="clip-path-5">
      <rect id="Rectangle_337087" data-name="Rectangle 337087" width="71.876" height="32.458" transform="translate(0)" fill="#fff" stroke="#707070" stroke-width="1"/>
    </clipPath>
  </defs>
  <g id="Mask_Group_952138" data-name="Mask Group 952138" clip-path="url(#clip-path)">
    <g id="Mask_Group_952137" data-name="Mask Group 952137" transform="translate(-688.8)" clip-path="url(#clip-path-2)">
      <rect id="Rectangle_35889" data-name="Rectangle 35889" width="1532.437" height="300.902" rx="23" transform="translate(-4.783 -97.912)" fill="#fff0de"/>
      <g id="Group_901958" data-name="Group 901958" transform="translate(14.991 -4.349)" clip-path="url(#clip-path-3)">
        <g id="Group_901957" data-name="Group 901957" transform="translate(3.707 -33.679)">
          <path id="Subtraction_14" data-name="Subtraction 14" d="M77.24,0C72,0,66.762.212,61.673.629c-4.959.407-9.837,1.014-14.5,1.8-4.577.776-8.991,1.736-13.12,2.854a103.846,103.846,0,0,0-11.431,3.78,68.587,68.587,0,0,0-9.432,4.581A40.121,40.121,0,0,0,6.07,18.906a21.809,21.809,0,0,0-4.5,5.811,13.186,13.186,0,0,0,0,12.477A21.809,21.809,0,0,0,6.07,43a40.121,40.121,0,0,0,7.121,5.258,68.589,68.589,0,0,0,9.432,4.581,103.846,103.846,0,0,0,11.431,3.78c4.129,1.118,8.544,2.078,13.12,2.854,4.661.79,9.539,1.4,14.5,1.8,5.089.417,10.326.629,15.567.629s10.478-.212,15.567-.629c4.959-.407,9.837-1.014,14.5-1.8,4.577-.776,8.991-1.736,13.12-2.854a103.846,103.846,0,0,0,11.431-3.78,68.589,68.589,0,0,0,9.432-4.581A40.122,40.122,0,0,0,148.41,43a21.809,21.809,0,0,0,4.5-5.811,13.186,13.186,0,0,0,0-12.477,21.809,21.809,0,0,0-4.5-5.811,40.122,40.122,0,0,0-7.121-5.258,68.587,68.587,0,0,0-9.432-4.581,103.847,103.847,0,0,0-11.431-3.78c-4.129-1.118-8.544-2.078-13.12-2.854-4.661-.79-9.539-1.4-14.5-1.8C87.718.212,82.48,0,77.24,0Zm-.288,47.22c-2.734,0-5.466-.11-8.121-.328-2.587-.212-5.132-.529-7.564-.941-2.388-.4-4.691-.906-6.845-1.489a54.177,54.177,0,0,1-5.964-1.972,35.779,35.779,0,0,1-4.92-2.39,20.931,20.931,0,0,1-3.715-2.743,11.377,11.377,0,0,1-2.348-3.031,6.879,6.879,0,0,1,0-6.509,11.378,11.378,0,0,1,2.348-3.031,20.932,20.932,0,0,1,3.715-2.743,35.779,35.779,0,0,1,4.92-2.39,54.175,54.175,0,0,1,5.964-1.972c2.154-.583,4.457-1.084,6.845-1.489,2.432-.412,4.977-.729,7.564-.941,2.655-.218,5.387-.328,8.121-.328s5.466.11,8.121.328c2.587.212,5.132.529,7.564.941,2.388.4,4.691.906,6.845,1.489a54.177,54.177,0,0,1,5.964,1.972,35.78,35.78,0,0,1,4.92,2.39,20.931,20.931,0,0,1,3.715,2.743,11.377,11.377,0,0,1,2.348,3.031,6.879,6.879,0,0,1,0,6.509,11.377,11.377,0,0,1-2.348,3.031,20.931,20.931,0,0,1-3.715,2.743,35.781,35.781,0,0,1-4.92,2.39,54.18,54.18,0,0,1-5.964,1.972c-2.154.583-4.457,1.084-6.845,1.489-2.432.412-4.977.729-7.564.941C82.418,47.11,79.686,47.22,76.952,47.22Z" transform="translate(0 0)" fill="#fd9827"/>
        </g>
      </g>
      <path id="Rectangle_652" data-name="Rectangle 652" d="M1508.3,257.771H24.133C10.8,257.771,0,253.5,0,248.224V9.547C0,4.274,10.8,0,24.133,0H1508.3c13.328,0,24.133,4.274,24.133,9.547V248.224C1532.437,253.5,1521.632,257.771,1508.3,257.771Z" transform="translate(-4.783 -98.63)" fill="none" opacity="0.238"/>
      <g id="Group_960355" data-name="Group 960355" transform="translate(-317.964 -339.219)" opacity="0.45">
        <path id="Path_156609" data-name="Path 156609" d="M2066.912,790.019,1826.789,544.831l-.384-87.436L1497,309.889c-2.96,1.247-5.556,2.719-8.947,3.7-25.393,7.35-48.28,16.43-77,21.5-56.949,10.052-130.346-2.667-216.514-37.073q-44.981-17.961-89.42-36.932c-54.84-23.438-109.465-42.374-164.817-53.492-34.645-6.959-63.312-8.621-85.472-3.475-33.166,7.7-51.915,23.185-75,36.356-12.23,6.979-24.835,13.83-39.48,19.465-30.117,11.59-73.342,10.208-132.444-5.519-63.576-16.919-120.167-39.157-168.987-73.695-40.738-28.819-81.872-57.688-125.292-85.972C243.353,48.971,165.325,21.21,84.26,10.481,55.239,6.639,28.4,5.624.555,3.318L296.31,299.356Z" transform="translate(271.141 512.662) rotate(-22)" fill="#fd9827" opacity="0.15"/>
        <path id="Path_156610" data-name="Path 156610" d="M1211.221,110.413s-106.395-7.182-292.54-61.829-195.9,21.129-304.867,13.8S471.539,20.26,354.836,21.678s-140.952,36.253-283.772,11S51.178,83.458,51.178,83.458l1152.837,82.606Z" transform="matrix(0.995, -0.105, 0.105, 0.995, 771.41, 489.904)" fill="none" stroke="#12263f" stroke-width="3" stroke-dasharray="11" opacity="0.05"/>
        <path id="Path_156612" data-name="Path 156612" d="M1954.65,345.93l-52.477,214.284,95.727,126.6-279.85,20.028c-5.346-3.551-10.453-7.216-16.084-10.635-42.181-25.613-82.9-52.258-127.041-76.525-87.517-48.11-172.051-72.874-249.857-73.7-27.078-.287-53.608,0-79.393.925-47.822,1.711-100.312-2.982-162.382-19.444-38.849-10.3-75.506-24.77-110.919-45.281-53-30.7-95.215-64.2-140.7-96.891-24.1-17.324-48.563-34.683-74.426-51.479-53.188-34.543-109.7-57.988-171.727-69.971C518.8,250.96,467.3,249.9,439.78,271.255c-22.968,17.819-46.413,35.477-73.57,50.941-43.956,25.032-118.151,19.361-215.169-12.8C116.31,297.879,81.39,283.546,46.554,270.5l71.19-255.291Z" transform="translate(2338.888 475.917) rotate(157)" fill="none" stroke="#31313c" stroke-width="3" opacity="0.05"/>
        <path id="Path_156613" data-name="Path 156613" d="M1636.887,742.688l-207.374-230.12-10.078-81.956L1156.1,291.939a44.31,44.31,0,0,1-6.29,3.457c-18.2,6.858-34.336,15.34-55.289,20.057-41.546,9.35-97.964-2.663-166.381-35.021q-35.716-16.892-71.137-34.729c-43.715-22.038-86.765-39.855-129.484-50.346-26.738-6.567-48.4-8.16-64.432-3.365-23.988,7.178-36.3,21.667-52.123,33.982-8.383,6.526-17.06,12.932-27.4,18.2-21.269,10.825-53.811,9.476-99.856-5.34-49.531-15.938-94.424-36.854-134.871-69.287-33.752-27.064-67.805-54.175-103.505-80.74-57.786-43-119.36-69.12-181.3-79.278C41.856,5.887,21.629,4.9.511,2.706L255.263,280.558Z" transform="matrix(0.891, -0.454, 0.454, 0.891, 610.517, 518.429)" fill="none" stroke="#fff" stroke-width="1" opacity="0.81"/>
        <path id="Path_156626" data-name="Path 156626" d="M1954.65,345.93l-52.477,214.284,95.727,126.6-279.85,20.028c-5.346-3.551-10.453-7.216-16.084-10.635-42.181-25.613-82.9-52.258-127.041-76.525-87.517-48.11-172.051-72.874-249.857-73.7-27.078-.287-53.608,0-79.393.925-47.822,1.711-100.312-2.982-162.382-19.444-38.849-10.3-75.506-24.77-110.919-45.281-53-30.7-95.215-64.2-140.7-96.891-24.1-17.324-48.563-34.683-74.426-51.479-53.188-34.543-109.7-57.988-171.727-69.971C518.8,250.96,467.3,249.9,439.78,271.255c-22.968,17.819-46.413,35.477-73.57,50.941-43.956,25.032-118.151,19.361-215.169-12.8C116.31,297.879,81.39,283.546,46.554,270.5l71.19-255.291Z" transform="translate(2154.3 501.971) rotate(157)" fill="#fd9827" opacity="0.15"/>
      </g>
    </g>
  </g>
  <g id="Group_960358" data-name="Group 960358" transform="translate(16.851 0.001)" clip-path="url(#clip-path-4)">
    <g id="Group_960357" data-name="Group 960357" transform="translate(1.671 -37.409)">
      <path id="Subtraction_31" data-name="Subtraction 31" d="M34.824,0a35.514,35.514,0,0,0-7.018.7A34.848,34.848,0,0,0,5.947,15.159,34.251,34.251,0,0,0,2.737,21a34.033,34.033,0,0,0,0,26.767,34.251,34.251,0,0,0,3.211,5.841A34.871,34.871,0,0,0,27.805,68.068a35.6,35.6,0,0,0,14.036,0A34.848,34.848,0,0,0,63.7,53.608a34.252,34.252,0,0,0,3.211-5.841,34.033,34.033,0,0,0,0-26.767A34.252,34.252,0,0,0,63.7,15.159,34.871,34.871,0,0,0,41.842.7,35.514,35.514,0,0,0,34.824,0Zm-.13,52.449a18.527,18.527,0,0,1-3.661-.364,18.18,18.18,0,0,1-11.4-7.544,17.869,17.869,0,0,1-1.675-3.047,17.755,17.755,0,0,1,0-13.964,17.869,17.869,0,0,1,1.675-3.047,18.192,18.192,0,0,1,11.4-7.544,18.575,18.575,0,0,1,7.323,0,18.18,18.18,0,0,1,11.4,7.544,17.869,17.869,0,0,1,1.675,3.047,17.755,17.755,0,0,1,0,13.964,17.869,17.869,0,0,1-1.675,3.047,18.192,18.192,0,0,1-11.4,7.544A18.527,18.527,0,0,1,34.694,52.449Z" transform="translate(0 0)" fill="#fd9827"/>
    </g>
  </g>
  <g id="Group_960364" data-name="Group 960364" transform="translate(714.727 164.084)" clip-path="url(#clip-path-5)">
    <g id="Group_960363" data-name="Group 960363" transform="translate(1.671 1.1)">
      <path id="Subtraction_32" data-name="Subtraction 32" d="M34.824,68.767a35.514,35.514,0,0,1-7.018-.7A34.848,34.848,0,0,1,5.947,53.608a34.251,34.251,0,0,1-3.211-5.841A34.033,34.033,0,0,1,2.737,21a34.251,34.251,0,0,1,3.211-5.841A34.871,34.871,0,0,1,27.805.7,35.6,35.6,0,0,1,41.842.7,34.848,34.848,0,0,1,63.7,15.159,34.253,34.253,0,0,1,66.911,21a34.033,34.033,0,0,1,0,26.767A34.252,34.252,0,0,1,63.7,53.608,34.871,34.871,0,0,1,41.842,68.068,35.514,35.514,0,0,1,34.824,68.767Zm-.13-52.449a18.527,18.527,0,0,0-3.661.364,18.18,18.18,0,0,0-11.4,7.544,17.869,17.869,0,0,0-1.675,3.047,17.755,17.755,0,0,0,0,13.964,17.869,17.869,0,0,0,1.675,3.047,18.192,18.192,0,0,0,11.4,7.544,18.575,18.575,0,0,0,7.323,0,18.18,18.18,0,0,0,11.4-7.544,17.869,17.869,0,0,0,1.675-3.047,17.755,17.755,0,0,0,0-13.964,17.869,17.869,0,0,0-1.675-3.047,18.192,18.192,0,0,0-11.4-7.544A18.527,18.527,0,0,0,34.694,16.318Z" transform="translate(0)" fill="#fd9827"/>
    </g>
  </g>
</svg>
