<svg xmlns="http://www.w3.org/2000/svg" width="94" height="94" viewBox="0 0 94 94">
  <g id="_15" data-name="15" transform="translate(-325.789 -4492)">
    <circle id="Ellipse_5432" data-name="Ellipse 5432" cx="47" cy="47" r="47" transform="translate(325.789 4492)" fill="#fff"/>
    <g id="libreria-digital" transform="translate(337.609 4502.003)">
      <g id="Group_969993" data-name="Group 969993" transform="translate(5.365 0.999)">
        <path id="Path_660461" data-name="Path 660461" d="M36.038,45.653a5.335,5.335,0,0,1,.12,1.215c0,.465-.045,2.024-.615,2.355L23.514,56.167,5.38,45.638v-.375l.63-.36a4.2,4.2,0,0,0,.135-2.445l-.78-.435v-.375L17.394,34.7a.253.253,0,0,1,.27-.015L35.8,45.218h-.03C35.873,45.263,35.963,45.413,36.038,45.653Z" transform="translate(-5.365 15.826)" fill="#e4e8f4"/>
        <path id="Path_660462" data-name="Path 660462" d="M60.282,55.639H60.3l-.03,5.52a.907.907,0,0,1-.06.36.508.508,0,0,1-.21.225l-3.18,1.86c.015,0,.015-.015.015-.03a.592.592,0,0,1-.675-.045L44.728,56.944a.672.672,0,0,1-.195.42l-6.24,6.495a2.249,2.249,0,0,1-2.4.195L21,55.459a.779.779,0,0,1-.45-.63V53.644a.637.637,0,0,0,.075.195c-.15-.36.09-.765.7-.959l6.645-2.16v-1.95l-1.185.69a1.367,1.367,0,0,1-1.275,0l-3.375-1.965a.449.449,0,0,1-.255-.36l-.015-2.49a4.336,4.336,0,0,1-1.8-.51,1.659,1.659,0,0,1-.99-1.38v-.63l-5.01-2.9a2.02,2.02,0,0,1-.84-1.125,1.755,1.755,0,0,1-.075-.45l.015-5.535.06-23.878.015-3.915v-.06a1.328,1.328,0,0,1,.6-1.275L17.01,1.133a1.43,1.43,0,0,1,1.425.135L58.407,24.352a4.357,4.357,0,0,1,1.965,3.419Z" transform="translate(-1.471 -0.999)" fill="#e4e8f4"/>
        <g id="Group_969992" data-name="Group 969992" transform="translate(0.005 0.003)">
          <g id="Group_969976" data-name="Group 969976" transform="translate(11.677)">
            <g id="Group_969937" data-name="Group 969937">
              <g id="Group_969929" data-name="Group 969929" transform="translate(7.401 40.919)">
                <g id="Group_969923" data-name="Group 969923" transform="translate(0 7.209)">
                  <g id="Group_969922" data-name="Group 969922">
                    <g id="Group_969920" data-name="Group 969920" transform="translate(0 4.513)">
                      <path id="Path_660463" data-name="Path 660463" d="M42.262,38.2v1.184a.63.63,0,0,1-.2.421l-6.234,6.5a2.245,2.245,0,0,1-2.4.2l-14.9-8.6a.759.759,0,0,1-.443-.625V36.1a.755.755,0,0,0,.45.625l14.895,8.6a2.241,2.241,0,0,0,2.4-.2l6.241-6.5A.62.62,0,0,0,42.262,38.2Z" transform="translate(-18.088 -36.098)" fill="#474b59"/>
                    </g>
                    <g id="Group_969921" data-name="Group 969921" transform="translate(0.002)">
                      <path id="Path_660464" data-name="Path 660464" d="M41.813,39.083c.482.279.587.707.256,1.05l-6.238,6.5a2.225,2.225,0,0,1-2.394.193l-14.9-8.6c-.71-.41-.552-1.1.325-1.387l11.2-3.634a2.393,2.393,0,0,1,1.813.145Z" transform="translate(-18.09 -33.089)" fill="#5b5e71"/>
                    </g>
                  </g>
                </g>
                <g id="Group_969928" data-name="Group 969928" transform="translate(7.415)">
                  <g id="Group_969927" data-name="Group 969927">
                    <g id="Group_969924" data-name="Group 969924" transform="translate(8.862 5.116)">
                      <path id="Path_660465" data-name="Path 660465" d="M31.579,31.694l-.006,9.92-2.633,1.53.006-9.92Z" transform="translate(-28.94 -31.694)" fill="#474b59"/>
                    </g>
                    <g id="Group_969925" data-name="Group 969925" transform="translate(0 1.53)">
                      <path id="Path_660466" data-name="Path 660466" d="M31.9,34.419l-.006,9.92-8.862-5.116.006-9.92Z" transform="translate(-23.032 -29.302)" fill="#525566"/>
                    </g>
                    <g id="Group_969926" data-name="Group 969926" transform="translate(0.006)">
                      <path id="Path_660467" data-name="Path 660467" d="M34.53,33.4,31.9,34.929l-8.862-5.116,2.633-1.53Z" transform="translate(-23.036 -28.282)" fill="#5b5e71"/>
                    </g>
                  </g>
                </g>
              </g>
              <g id="Group_969936" data-name="Group 969936">
                <g id="Group_969930" data-name="Group 969930" transform="translate(43.664 54.631)">
                  <path id="Path_660468" data-name="Path 660468" d="M45.738,37.424l-.03,5.525a.917.917,0,0,1-.06.363.418.418,0,0,1-.2.226L42.266,45.4a.4.4,0,0,0,.181-.226.711.711,0,0,0,.075-.363l.015-5.525Z" transform="translate(-42.266 -37.424)" fill="#cad0dd"/>
                </g>
                <g id="Group_969931" data-name="Group 969931" transform="translate(0 31.125)">
                  <path id="Path_660469" data-name="Path 660469" d="M57.091,47.11l-.016,5.527a.881.881,0,0,1-.069.371c-.136.3-.464.375-.85.153l-42.09-24.3a2.017,2.017,0,0,1-.837-1.126,1.59,1.59,0,0,1-.076-.454l.016-5.527Z" transform="translate(-13.154 -21.752)" fill="#e4e8f4"/>
                </g>
                <g id="Group_969932" data-name="Group 969932" transform="translate(18.192 43.923)">
                  <path id="Path_660470" data-name="Path 660470" d="M26.584,30.463A2.852,2.852,0,0,1,27.877,32.7c0,.822-.586,1.155-1.3.742A2.852,2.852,0,0,1,25.283,31.2C25.285,30.382,25.868,30.05,26.584,30.463Z" transform="translate(-25.283 -30.285)" fill="#cad0dd"/>
                </g>
                <g id="Group_969933" data-name="Group 969933" transform="translate(1.63 3.757)">
                  <path id="Path_660471" data-name="Path 660471" d="M55.028,27.011l-.075,26.447L14.241,29.953l.075-26.447Z" transform="translate(-14.241 -3.506)" fill="#fff"/>
                </g>
                <g id="Group_969934" data-name="Group 969934" transform="translate(0.671)">
                  <path id="Path_660472" data-name="Path 660472" d="M60.142,27.765l-.091,27.867-3.185,1.858.075-27.867a4.26,4.26,0,0,0-1.962-3.412L15.005,3.129a1.382,1.382,0,0,0-1.4-.136l3.185-1.857a1.411,1.411,0,0,1,1.419.136L58.18,24.354a4.339,4.339,0,0,1,1.963,3.411Z" transform="translate(-13.601 -1.001)" fill="#5b5e71"/>
                </g>
                <g id="Group_969935" data-name="Group 969935" transform="translate(0.016 1.858)">
                  <path id="Path_660473" data-name="Path 660473" d="M55.2,25.594A4.31,4.31,0,0,1,57.165,29l-.079,27.865L13.164,31.506l.079-27.865c0-1.262.893-1.758,1.982-1.129Zm.286,28.5.075-26.447L14.854,4.139l-.075,26.447Z" transform="translate(-13.164 -2.24)" fill="#474b59"/>
                </g>
              </g>
            </g>
            <g id="Group_969974" data-name="Group 969974" transform="translate(1.63 6.632)">
              <g id="Group_969943" data-name="Group 969943">
                <g id="Group_969938" data-name="Group 969938" transform="translate(0.433 0.176)">
                  <path id="Path_660474" data-name="Path 660474" d="M26.015,28.985,14.7,35.511a.19.19,0,0,0-.091.171l-.08-25.724a.2.2,0,0,1,.1-.171L22,5.54l.5.289Z" transform="translate(-14.529 -5.54)" fill="#5983e2"/>
                </g>
                <g id="Group_969939" data-name="Group 969939" transform="translate(0 0.453)">
                  <path id="Path_660475" data-name="Path 660475" d="M26.166,7.786,19.1,13.145c-.695.4-2.186-.182-3.257-.8s-2.072-1.492-1.378-1.89l8.156-4.733Z" transform="translate(-14.241 -5.725)" fill="#e4e8f4"/>
                </g>
                <g id="Group_969940" data-name="Group 969940" transform="translate(4.863 2.692)">
                  <path id="Path_660476" data-name="Path 660476" d="M17.483,11.47l.073,25.722L28.869,30.66,24.849,7.217Z" transform="translate(-17.483 -7.217)" fill="#5983e2"/>
                </g>
                <g id="Group_969941" data-name="Group 969941" transform="translate(0.011 4.581)">
                  <path id="Path_660477" data-name="Path 660477" d="M14.248,8.477,14.321,34.2c0,.445.785,1.069,1.608,1.547,1.069.621,2.56,1.2,3.253.8l-.073-25.722c-.693.4-2.184-.181-3.253-.8-.823-.478-1.607-1.1-1.608-1.547Z" transform="translate(-14.248 -8.477)" fill="#658bee"/>
                </g>
                <g id="Group_969942" data-name="Group 969942" transform="translate(0.002)">
                  <path id="Path_660478" data-name="Path 660478" d="M14.471,9.676c-.693.4.31,1.268,1.379,1.889s2.56,1.2,3.253.8l7.366-4.253-.3-.177L18.8,12.19c-.355.2-1.517-.149-2.642-.8s-1.735-1.331-1.381-1.535L22.142,5.6l-.3-.177Z" transform="translate(-14.242 -5.423)" fill="#8facfc"/>
                </g>
              </g>
              <g id="Group_969949" data-name="Group 969949" transform="translate(4.226 3.318)">
                <g id="Group_969944" data-name="Group 969944" transform="translate(0.429 0.174)">
                  <path id="Path_660479" data-name="Path 660479" d="M30.364,31.2,18.29,38.165a1.464,1.464,0,0,0-.865,1.219l-.08-25.723a1.493,1.493,0,0,1,.877-1.219l8.116-4.691.757.44Z" transform="translate(-17.345 -7.751)" fill="#ed435c"/>
                </g>
                <g id="Group_969945" data-name="Group 969945" transform="translate(0.42 0.614)">
                  <path id="Path_660480" data-name="Path 660480" d="M18.276,13.163a1.378,1.378,0,0,0-.015,2.607,4.962,4.962,0,0,0,4.5,0l8.822-5.119L27.1,8.044Z" transform="translate(-17.338 -8.044)" fill="#e4e8f4"/>
                </g>
                <g id="Group_969946" data-name="Group 969946" transform="translate(5.775 2.775)">
                  <path id="Path_660481" data-name="Path 660481" d="M20.909,14.175,20.982,39.9l12.069-6.968L29.968,10.006l-.937-.521Z" transform="translate(-20.909 -9.485)" fill="#ed435c"/>
                </g>
                <g id="Group_969947" data-name="Group 969947" transform="translate(0 6.088)">
                  <path id="Path_660482" data-name="Path 660482" d="M17.059,11.694l.073,25.722a1.682,1.682,0,0,0,.983,1.379,5.286,5.286,0,0,0,4.791,0l-.073-25.722a5.286,5.286,0,0,1-4.791,0,1.682,1.682,0,0,1-.983-1.379Z" transform="translate(-17.059 -11.694)" fill="#f25574"/>
                </g>
                <g id="Group_969948" data-name="Group 969948">
                  <path id="Path_660483" data-name="Path 660483" d="M18.057,12.324c-1.326.765-1.333,2.012-.016,2.778a5.286,5.286,0,0,0,4.791,0l8.122-4.689-.3-.177-8.122,4.689a4.606,4.606,0,0,1-4.177,0,1.28,1.28,0,0,1,.01-2.422l8.122-4.689-.3-.177Z" transform="translate(-17.059 -7.635)" fill="#f76d8e"/>
                </g>
              </g>
              <g id="Group_969960" data-name="Group 969960" transform="translate(7.026 6.614)">
                <g id="Group_969950" data-name="Group 969950" transform="translate(0.571 0.177)">
                  <path id="Path_660484" data-name="Path 660484" d="M19.306,16.744l.073,25.722,15.714-9.073L31.073,9.95Z" transform="translate(-19.306 -9.95)" fill="#efac41"/>
                </g>
                <g id="Group_969951" data-name="Group 969951" transform="translate(0.309 0.546)">
                  <path id="Path_660485" data-name="Path 660485" d="M19.4,17.381a.391.391,0,0,0,0,.74l3.363,1.954a1.412,1.412,0,0,0,1.277,0l12.4-7.184L31.794,10.2Z" transform="translate(-19.131 -10.197)" fill="#e4e8f4"/>
                </g>
                <g id="Group_969952" data-name="Group 969952" transform="translate(0.437 6.971)">
                  <path id="Path_660486" data-name="Path 660486" d="M19.422,40.2a.228.228,0,0,0-.137.193l-.068-25.723a.242.242,0,0,1,.137-.193Z" transform="translate(-19.217 -14.48)" fill="#efac41"/>
                </g>
                <g id="Group_969953" data-name="Group 969953" transform="translate(4.903 2.694)">
                  <path id="Path_660487" data-name="Path 660487" d="M22.194,18.422l.073,25.722,15.714-9.073L34.967,13.053l-1.006-1.424Z" transform="translate(-22.194 -11.629)" fill="#efac41"/>
                </g>
                <g id="Group_969954" data-name="Group 969954" transform="translate(0 7.163)">
                  <path id="Path_660488" data-name="Path 660488" d="M23.9,42.655a1.4,1.4,0,0,1-1.275,0L19.256,40.7a.448.448,0,0,1-.262-.365l-.068-25.723a.434.434,0,0,0,.262.365l3.359,1.958a1.422,1.422,0,0,0,1.287,0Z" transform="translate(-18.925 -14.609)" fill="#f9bb4a"/>
                </g>
                <g id="Group_969955" data-name="Group 969955" transform="translate(1.01 9.846)">
                  <path id="Path_660489" data-name="Path 660489" d="M20.793,16.559a2.613,2.613,0,0,1,1.186,2.055c0,.753-.534,1.062-1.194.68A2.622,2.622,0,0,1,19.6,17.24C19.6,16.487,20.138,16.181,20.793,16.559Z" transform="translate(-19.599 -16.397)" fill="#efac41"/>
                </g>
                <g id="Group_969956" data-name="Group 969956" transform="translate(0.073 12.699)">
                  <path id="Path_660490" data-name="Path 660490" d="M23.882,22.421a1.328,1.328,0,0,1-1.241,0L19.27,20.463c-.171-.1-.3-.228-.3-.365V18.3a.394.394,0,0,0,.228.365l3.359,1.958a1.494,1.494,0,0,0,1.321,0Z" transform="translate(-18.974 -18.299)" fill="#efac41"/>
                </g>
                <g id="Group_969957" data-name="Group 969957" transform="translate(0.073 14.944)">
                  <path id="Path_660491" data-name="Path 660491" d="M23.882,23.918a1.328,1.328,0,0,1-1.241,0L19.27,21.96c-.171-.1-.3-.228-.3-.365V19.8a.394.394,0,0,0,.228.365l3.359,1.958a1.494,1.494,0,0,0,1.321,0Z" transform="translate(-18.974 -19.796)" fill="#efac41"/>
                </g>
                <g id="Group_969958" data-name="Group 969958">
                  <path id="Path_660492" data-name="Path 660492" d="M19.192,16.626a.391.391,0,0,0,0,.74l3.363,1.954a1.412,1.412,0,0,0,1.277,0l11.767-6.794-.308-.179L23.52,19.141a.73.73,0,0,1-.659,0L19.5,17.187a.2.2,0,0,1,0-.384l11.767-6.794-.3-.177Z" transform="translate(-18.925 -9.833)" fill="#fed57a"/>
                </g>
                <g id="Group_969959" data-name="Group 969959">
                  <path id="Path_660493" data-name="Path 660493" d="M19.192,16.626a.391.391,0,0,0,0,.74l3.363,1.954a1.412,1.412,0,0,0,1.277,0l11.767-6.794-.308-.179L23.52,19.141a.73.73,0,0,1-.659,0L19.5,17.187a.2.2,0,0,1,0-.384l11.767-6.794-.3-.177Z" transform="translate(-18.925 -9.833)" fill="#fed57a"/>
                </g>
              </g>
              <g id="Group_969966" data-name="Group 969966" transform="translate(18.137 10.477)">
                <g id="Group_969961" data-name="Group 969961" transform="translate(0.433 0.176)">
                  <path id="Path_660494" data-name="Path 660494" d="M38.108,35.97,26.793,42.5a.19.19,0,0,0-.091.171l-.08-25.724a.2.2,0,0,1,.1-.171l7.368-4.248Z" transform="translate(-26.622 -12.526)" fill="#5983e2"/>
                </g>
                <g id="Group_969962" data-name="Group 969962" transform="translate(0 0.927)">
                  <path id="Path_660495" data-name="Path 660495" d="M38.565,15.725,31.2,19.973c-.695.4-2.186-.182-3.257-.8s-2.072-1.492-1.378-1.89l7.368-4.259Z" transform="translate(-26.333 -13.026)" fill="#e4e8f4"/>
                </g>
                <g id="Group_969963" data-name="Group 969963" transform="translate(4.863 2.692)">
                  <path id="Path_660496" data-name="Path 660496" d="M29.575,18.455l.073,25.722,11.313-6.532L36.942,14.2Z" transform="translate(-29.575 -14.203)" fill="#5983e2"/>
                </g>
                <g id="Group_969964" data-name="Group 969964" transform="translate(0.011 4.581)">
                  <path id="Path_660497" data-name="Path 660497" d="M26.341,15.462l.073,25.722c0,.445.785,1.069,1.608,1.547,1.069.621,2.56,1.2,3.253.8L31.2,17.812c-.693.4-2.184-.181-3.253-.8C27.126,16.531,26.342,15.907,26.341,15.462Z" transform="translate(-26.341 -15.462)" fill="#658bee"/>
                </g>
                <g id="Group_969965" data-name="Group 969965" transform="translate(0.002)">
                  <path id="Path_660498" data-name="Path 660498" d="M26.564,16.661c-.693.4.31,1.268,1.379,1.889s2.56,1.2,3.253.8L38.561,15.1l-.3-.177-7.366,4.253c-.355.2-1.517-.149-2.642-.8s-1.735-1.331-1.381-1.535l7.366-4.253-.3-.177Z" transform="translate(-26.335 -12.408)" fill="#8facfc"/>
                </g>
              </g>
              <g id="Group_969973" data-name="Group 969973" transform="translate(22.364 13.795)">
                <g id="Group_969967" data-name="Group 969967" transform="translate(0.429 0.174)">
                  <path id="Path_660499" data-name="Path 660499" d="M42.457,38.18,30.382,45.15a1.464,1.464,0,0,0-.865,1.219l-.08-25.723a1.493,1.493,0,0,1,.877-1.219l8.116-4.691Z" transform="translate(-29.437 -14.736)" fill="#ed435c"/>
                </g>
                <g id="Group_969968" data-name="Group 969968" transform="translate(0.42 1.287)">
                  <path id="Path_660500" data-name="Path 660500" d="M30.368,19.924a1.378,1.378,0,0,0-.015,2.607,4.962,4.962,0,0,0,4.5,0l7.668-4.446-4.482-2.6Z" transform="translate(-29.431 -15.479)" fill="#e4e8f4"/>
                </g>
                <g id="Group_969969" data-name="Group 969969" transform="translate(5.775 2.775)">
                  <path id="Path_660501" data-name="Path 660501" d="M33,21.16l.073,25.722L41.2,42.192l-.073-25.722Z" transform="translate(-33.001 -16.471)" fill="#ed435c"/>
                </g>
                <g id="Group_969970" data-name="Group 969970" transform="translate(0 6.088)">
                  <path id="Path_660502" data-name="Path 660502" d="M29.151,18.679,29.224,44.4a1.682,1.682,0,0,0,.983,1.379,5.286,5.286,0,0,0,4.791,0l-.073-25.722a5.286,5.286,0,0,1-4.791,0A1.682,1.682,0,0,1,29.151,18.679Z" transform="translate(-29.151 -18.679)" fill="#f25574"/>
                </g>
                <g id="Group_969971" data-name="Group 969971" transform="translate(1.271 10.96)">
                  <path id="Path_660503" data-name="Path 660503" d="M30,21.927,30.041,37a.985.985,0,0,0,.576.808,3.1,3.1,0,0,0,2.807,0l-.043-15.068a3.1,3.1,0,0,1-2.807,0A.985.985,0,0,1,30,21.927Z" transform="translate(-29.998 -21.927)" fill="#ed435c"/>
                </g>
                <g id="Group_969972" data-name="Group 969972">
                  <path id="Path_660504" data-name="Path 660504" d="M30.15,19.31c-1.326.765-1.333,2.012-.016,2.778a5.286,5.286,0,0,0,4.791,0L43.048,17.4l-.3-.177-8.122,4.689a4.606,4.606,0,0,1-4.177,0,1.28,1.28,0,0,1,.01-2.422L38.576,14.8l-.3-.177Z" transform="translate(-29.151 -14.62)" fill="#f76d8e"/>
                </g>
              </g>
            </g>
            <path id="Path_660505" data-name="Path 660505" d="M55,27.011,14.291,3.506" transform="translate(-12.585 0.251)" fill="#474b59"/>
            <g id="Group_969975" data-name="Group 969975" transform="translate(0.083 1.859)">
              <path id="Path_660506" data-name="Path 660506" d="M55.182,25.594,15.2,2.512c-1.089-.629-1.979-.133-1.982,1.129l-.011,3.987h1.612l.01-3.49L55.543,27.644l-.025,8.825h1.6L57.142,29A4.31,4.31,0,0,0,55.182,25.594Z" transform="translate(-13.209 -2.24)" fill="#474b59"/>
            </g>
          </g>
          <g id="Group_969991" data-name="Group 969991" transform="translate(0 50.477)">
            <g id="Group_969990" data-name="Group 969990">
              <g id="Group_969986" data-name="Group 969986">
                <g id="Group_969985" data-name="Group 969985">
                  <g id="Group_969977" data-name="Group 969977" transform="translate(12.039 0.424)">
                    <path id="Path_660507" data-name="Path 660507" d="M31.551,45.473,13.423,34.937c.1.056.266.465.268,1.444a3.548,3.548,0,0,1-.3,1.8L31.524,48.714a3.548,3.548,0,0,0,.3-1.8C31.817,45.938,31.649,45.529,31.551,45.473Z" transform="translate(-13.395 -34.937)" fill="#e63044"/>
                  </g>
                  <g id="Group_969978" data-name="Group 969978" transform="translate(0.011 3.665)">
                    <path id="Path_660508" data-name="Path 660508" d="M35.532,47.634,17.4,37.1,5.376,44.043,23.5,54.578Z" transform="translate(-5.376 -37.099)" fill="#f25574"/>
                  </g>
                  <g id="Group_969979" data-name="Group 969979" transform="translate(0.598 7.044)">
                    <path id="Path_660509" data-name="Path 660509" d="M23.451,49.627,5.767,39.351a4.887,4.887,0,0,1,0,3.349L23.452,52.976A8.449,8.449,0,0,0,23.451,49.627Z" transform="translate(-5.767 -39.351)" fill="#d1d1d1"/>
                  </g>
                  <g id="Group_969980" data-name="Group 969980" transform="translate(18.269 10.493)">
                    <path id="Path_660510" data-name="Path 660510" d="M17.549,48.13v.347a6.5,6.5,0,0,1,.008,3.006l0,.343L28.71,45.392c.538-.309.572-1.751.572-2.183a4.771,4.771,0,0,0-.114-1.132c-.1-.373-.259-.5-.471-.381Z" transform="translate(-17.549 -41.651)" fill="#ededed"/>
                  </g>
                  <g id="Group_969981" data-name="Group 969981" transform="translate(0.011 10.61)">
                    <path id="Path_660511" data-name="Path 660511" d="M23.5,52.264,5.376,41.729V42.1L23.505,52.636Z" transform="translate(-5.376 -41.729)" fill="#e63044"/>
                  </g>
                  <g id="Group_969982" data-name="Group 969982" transform="translate(0 6.993)">
                    <path id="Path_660512" data-name="Path 660512" d="M23.5,49.852,5.369,39.317v.372L23.5,50.225Z" transform="translate(-5.369 -39.317)" fill="#e63044"/>
                  </g>
                  <g id="Group_969983" data-name="Group 969983">
                    <path id="Path_660513" data-name="Path 660513" d="M5.368,41.645,23.5,52.181l12.029-6.943a.256.256,0,0,1,.265-.018L17.663,34.684a.256.256,0,0,0-.265.018Z" transform="translate(-5.368 -34.655)" fill="#f25574"/>
                    <path id="Path_660514" data-name="Path 660514" d="M33.92,44.911,23.052,51.175,6.25,41.4,17.1,35.138Z" transform="translate(-4.928 -34.413)" fill="#ed435c"/>
                  </g>
                  <g id="Group_969984" data-name="Group 969984" transform="translate(18.129 10.536)">
                    <path id="Path_660515" data-name="Path 660515" d="M17.455,48.671v.372L29.485,42.1c.082-.047.3.326.305,1.447a3.548,3.548,0,0,1-.3,1.8L17.466,52.289v.372l12.028-6.945c.581-.336.621-1.888.619-2.357a5.276,5.276,0,0,0-.123-1.219c-.109-.4-.279-.545-.507-.413Z" transform="translate(-17.455 -41.679)" fill="#ed435c"/>
                  </g>
                </g>
              </g>
              <g id="Group_969989" data-name="Group 969989" transform="translate(27.924 12.251)">
                <g id="Group_969988" data-name="Group 969988">
                  <g id="Group_969987" data-name="Group 969987">
                    <path id="Path_660516" data-name="Path 660516" d="M25.089,45.3l.975-.567a2.434,2.434,0,0,0-1.1-1.912l-.975.567A2.434,2.434,0,0,1,25.089,45.3Z" transform="translate(-23.985 -42.823)" fill="#f9bb4a"/>
                  </g>
                </g>
              </g>
            </g>
          </g>
        </g>
      </g>
    </g>
  </g>
</svg>
