<svg xmlns="http://www.w3.org/2000/svg" width="94" height="94" viewBox="0 0 94 94">
  <g id="_13" data-name="13" transform="translate(-325.789 -4210)">
    <circle id="Ellipse_5430" data-name="Ellipse 5430" cx="47" cy="47" r="47" transform="translate(325.789 4210)" fill="#fff"/>
    <g id="subasta" transform="translate(338.944 4221.124)">
      <path id="Path_660301" data-name="Path 660301" d="M62.01,5.436V65.317a4.449,4.449,0,0,1-4.436,4.436H15.436A4.449,4.449,0,0,1,11,65.317V61.791L30.905,41.9a2.222,2.222,0,0,0,3.138,0l1.564-1.575L41.1,45.811l.011.011-.787.776a2.215,2.215,0,1,0,3.127,3.138L56,37.2a2.219,2.219,0,1,0-3.138-3.138l-.776.787-.011-.011-5-5h6.066A4.434,4.434,0,0,0,57.575,25.4V10.98a4.434,4.434,0,0,0-4.436-4.436H19.871a4.434,4.434,0,0,0-4.436,4.436V25.4a4.434,4.434,0,0,0,4.436,4.436h.787a2.2,2.2,0,0,0,2.406-.488l.787-.776,5.489,5.489L27.767,35.62a2.222,2.222,0,0,0,0,3.138L11,55.537V5.436A4.449,4.449,0,0,1,15.436,1H57.575A4.449,4.449,0,0,1,62.01,5.436Z" transform="translate(0.65 0)" fill="#e5e5e5"/>
      <path id="Path_660302" data-name="Path 660302" d="M62.01,5.436V65.317a4.449,4.449,0,0,1-4.436,4.436H15.436A4.449,4.449,0,0,1,11,65.317V63.1H38.723a6.673,6.673,0,0,0,6.654-6.654V47.807L56,37.2a2.219,2.219,0,1,0-3.138-3.138l-.776.787-.011-.011-5-5h6.066A4.436,4.436,0,0,0,57.575,25.4V10.98a4.436,4.436,0,0,0-4.436-4.436H45.376V1h12.2A4.449,4.449,0,0,1,62.01,5.436Z" transform="translate(0.65 0)" fill="#c9c9c9"/>
      <path id="Path_660303" data-name="Path 660303" d="M57.139,10.436V24.852A4.434,4.434,0,0,1,52.7,29.287H46.637L34.395,17.045l.776-.787a2.219,2.219,0,1,0-3.138-3.138L19.491,25.672a2.2,2.2,0,0,0,0,3.127,1.974,1.974,0,0,0,.732.488h-.787A4.434,4.434,0,0,1,15,24.852V10.436A4.434,4.434,0,0,1,19.436,6H52.7A4.434,4.434,0,0,1,57.139,10.436Z" transform="translate(1.086 0.545)" fill="#97bf6f"/>
      <path id="Path_660304" data-name="Path 660304" d="M54.685,10.436V24.852a4.434,4.434,0,0,1-4.436,4.436H44.184L37.53,22.634h3.848A4.434,4.434,0,0,0,45.814,18.2V6h4.436A4.434,4.434,0,0,1,54.685,10.436Z" transform="translate(3.54 0.545)" fill="#81ad4e"/>
      <path id="Path_660305" data-name="Path 660305" d="M53.185,30.874a2.222,2.222,0,0,1,0,3.138L40.632,46.554A2.215,2.215,0,1,1,37.5,43.416l.787-.776L49.27,31.662l.776-.787a2.209,2.209,0,0,1,3.138,0Z" transform="translate(3.466 3.183)" fill="#6a6b6b"/>
      <path id="Path_660306" data-name="Path 660306" d="M50.823,33.215,39.845,44.193l-.011-.011-5.489-5.489-6.265-6.265L22.59,26.938,33.568,15.96,45.811,28.2l5,5Z" transform="translate(1.913 1.629)" fill="#f2bc79"/>
      <path id="Path_660307" data-name="Path 660307" d="M50.823,32.409,39.845,43.387l-5.5-5.5-6.265-6.265L22.59,26.132l2.772-2.772.5.5,6.265,6.265,2.364,2.364a4.436,4.436,0,0,0,6.273,0l5.07-5.07L50.813,32.4Z" transform="translate(1.913 2.435)" fill="#eaa150"/>
      <path id="Path_660308" data-name="Path 660308" d="M34.794,12.484a2.209,2.209,0,0,1,0,3.138l-.776.787L23.04,27.388l-.787.776a2.2,2.2,0,0,1-2.406.488,1.974,1.974,0,0,1-.732-.488,2.2,2.2,0,0,1,0-3.127L31.656,12.484a2.222,2.222,0,0,1,3.138,0Z" transform="translate(1.463 1.18)" fill="#6a6b6b"/>
      <path id="Path_660309" data-name="Path 660309" d="M34.024,37.075,32.46,38.65a2.222,2.222,0,0,1-3.138,0l-3.138-3.138a2.222,2.222,0,0,1,0-3.138l1.575-1.564Z" transform="translate(2.233 3.247)" fill="#f29a2e"/>
      <path id="Path_660310" data-name="Path 660310" d="M31.555,38.188,11.65,58.082,8.811,60.921a2.189,2.189,0,0,1-3.127,0,2.2,2.2,0,0,1,0-3.127l5.966-5.966L28.417,35.05Z" transform="translate(0 3.709)" fill="#8d8e8e"/>
      <g id="Group_969911" data-name="Group 969911" transform="translate(31.61 22.069)">
        <path id="Path_660311" data-name="Path 660311" d="M35.654,25.545a1.106,1.106,0,0,1-.784-.325l-2.543-2.543-1.434,1.434a1.109,1.109,0,0,1-1.568-1.568l2.218-2.218a1.108,1.108,0,0,1,1.568,0l3.327,3.327a1.109,1.109,0,0,1-.784,1.893Z" transform="translate(-29 -20)" fill="gray"/>
      </g>
      <g id="Group_969912" data-name="Group 969912" transform="translate(27.175 48.683)">
        <path id="Path_660312" data-name="Path 660312" d="M34.98,46.218H26.109a1.109,1.109,0,0,1,0-2.218H34.98a1.109,1.109,0,1,1,0,2.218Z" transform="translate(-25 -44)" fill="gray"/>
      </g>
      <g id="Group_969913" data-name="Group 969913" transform="translate(48.245 48.683)">
        <path id="Path_660313" data-name="Path 660313" d="M53.98,46.218H45.109a1.109,1.109,0,0,1,0-2.218H53.98a1.109,1.109,0,0,1,0,2.218Z" transform="translate(-44 -44)" fill="gray"/>
      </g>
      <g id="Group_969914" data-name="Group 969914" transform="translate(22.739 53.119)">
        <path id="Path_660314" data-name="Path 660314" d="M47.614,50.218H22.109a1.109,1.109,0,1,1,0-2.218H47.614a1.109,1.109,0,0,1,0,2.218Z" transform="translate(-21 -48)" fill="gray"/>
      </g>
      <g id="Group_969915" data-name="Group 969915" transform="translate(52.68 53.119)">
        <path id="Path_660315" data-name="Path 660315" d="M53.545,50.218H49.109a1.109,1.109,0,1,1,0-2.218h4.436a1.109,1.109,0,0,1,0,2.218Z" transform="translate(-48 -48)" fill="gray"/>
      </g>
      <g id="Group_969916" data-name="Group 969916" transform="translate(18.304 57.555)">
        <path id="Path_660316" data-name="Path 660316" d="M22.545,54.218H18.109a1.109,1.109,0,1,1,0-2.218h4.436a1.109,1.109,0,0,1,0,2.218Z" transform="translate(-17 -52)" fill="gray"/>
      </g>
      <g id="Group_969917" data-name="Group 969917" transform="translate(27.175 57.555)">
        <path id="Path_660317" data-name="Path 660317" d="M56.05,54.218H26.109a1.109,1.109,0,0,1,0-2.218H56.05a1.109,1.109,0,0,1,0,2.218Z" transform="translate(-25 -52)" fill="gray"/>
      </g>
      <g id="Group_969918" data-name="Group 969918" transform="translate(19.413 9.871)">
        <path id="Path_660318" data-name="Path 660318" d="M19.109,14.545A1.109,1.109,0,0,1,18,13.436V10.109A1.109,1.109,0,0,1,19.109,9h5.545a1.109,1.109,0,1,1,0,2.218H20.218v2.218A1.109,1.109,0,0,1,19.109,14.545Z" transform="translate(-18 -9)" fill="gray"/>
      </g>
    </g>
  </g>
</svg>
