<svg xmlns="http://www.w3.org/2000/svg" width="94" height="94" viewBox="0 0 94 94">
  <g id="_14" data-name="14" transform="translate(-325.789 -4351)">
    <circle id="Ellipse_5431" data-name="Ellipse 5431" cx="47" cy="47" r="47" transform="translate(325.789 4351)" fill="#fff"/>
    <g id="Group_969919" data-name="Group 969919" transform="translate(46.295 5069.692)">
      <path id="Path_660319" data-name="Path 660319" d="M310.456-672.188h0c0-4.958-.007-9.916.011-14.874,0-.5-.169-.63-.631-.63q-10.806.013-21.612.007c-.661,0-.715.052-.71.71.02,2.628.02,5.255.035,7.883.026,4.624.058,9.248-.027,13.873-.049,2.675-.008,5.352-.013,8.029a.675.675,0,0,0,.211.483,18.023,18.023,0,0,0,1.668,1.639c.328.278.512.28.82-.032,2.068-2.093,4.132-4.19,6.282-6.2a2.565,2.565,0,0,0,.92-2.063c-.056-4.608-.019-9.217-.034-13.826,0-.449.11-.63.584-.607.68.033,1.364.015,2.046-.007.349-.011.495.124.465.467-.01.116,0,.233,0,.349q0,7.063,0,14.125a.955.955,0,0,0,.245.771c2.383,2.366,4.741,4.758,7.181,7.066.2.193.371.247.594.034.444-.424.886-.854,1.359-1.245a1.717,1.717,0,0,0,.62-1.478C310.445-662.538,310.456-667.363,310.456-672.188Zm-.307,14.16a2.564,2.564,0,0,1-.089,1.219h0l-.125.186h0a.992.992,0,0,1-.582.5h0a2.3,2.3,0,0,1-.6.586c-.12.137-.234.28-.362.408s-.255.1-.385-.028c-2.236-2.227-4.458-4.469-6.728-6.661a1.872,1.872,0,0,1-.577-1.454q-.027-7.077-.014-14.154c0-.433-.145-.6-.58-.581-.748.025-1.5.007-2.245.01-.612,0-.687.078-.687.695q0,7.285.006,14.57a1,1,0,0,1-.323.787q-3.4,3.335-6.779,6.69c-.208.207-.327.216-.568.021a11.416,11.416,0,0,1-1.52-1.5h0c-.231-.107-.2-.315-.2-.515q0-14.962.007-29.924h0c-.01-.121-.032-.246.1-.32h0c.162-.127.353-.07.53-.07q10.594,0,21.188,0c.173,0,.368-.074.518.085l.021.021h0c.232.283-.008.568-.008.852Q310.165-672.313,310.149-658.028Z" transform="translate(0)" fill="#797faf"/>
      <path id="Path_660320" data-name="Path 660320" d="M291.586-389.324q0-.171-.008-.342A.25.25,0,0,0,291.586-389.324Z" transform="translate(-3.62 -268.265)" fill="#797faf"/>
      <path id="Path_660321" data-name="Path 660321" d="M509.336-681.5h0Z" transform="translate(-199.689 -5.572)" fill="#797faf"/>
      <path id="Path_660322" data-name="Path 660322" d="M570.888-567.356c.2-.057.143-.224.141-.372-.032-2.341-.07-4.682.008-7.022a.4.4,0,0,0-.241-.44.648.648,0,0,0-.993.641c0,1.263,0,2.526,0,3.79,0,.141.055.326-.124.394s-.248-.106-.343-.218c-.14-.164-.29-.319-.439-.475l-4.045-4.191c-.11-.114-.177-.321-.382-.259-.235.072-.171.292-.171.467q0,1.72,0,3.44h-.009c0,1.18.013,2.36-.006,3.54-.008.507.32.45.637.454s.607.052.6-.427c-.02-1.363-.013-2.726-.014-4.088,0-.143-.081-.327.082-.411s.263.1.356.2c1.527,1.594,3.109,3.135,4.568,4.794C570.612-567.423,570.718-567.307,570.888-567.356Z" transform="translate(-249.146 -100.971)" fill="#38438d"/>
      <path id="Path_660323" data-name="Path 660323" d="M858.794-471.974c-.334.171-.513.045-.5-.37.026-.9,0-1.8.021-2.693.011-.445-.2-.577-.6-.583s-.644.093-.632.584c.029,1.2.009,2.394.009,3.591h.007q0,1.721,0,3.441c0,.738.323.976,1.009.685a.757.757,0,0,1,.653.005,2.244,2.244,0,0,0,3.088-1.2,2.663,2.663,0,0,0-.357-2.853A1.99,1.99,0,0,0,858.794-471.974Zm.737,3.861a1.563,1.563,0,0,1-1.351-1.528,1.564,1.564,0,0,1,1.407-1.57,1.511,1.511,0,0,1,1.3,1.6A1.463,1.463,0,0,1,859.53-468.113Z" transform="translate(-512.703 -190.894)" fill="#404b91"/>
      <path id="Path_660324" data-name="Path 660324" d="M647.167-680.208h.014q0,1.72,0,3.439c0,.748.119.855.864.748a.408.408,0,0,0,.227-.079c.171-.181.28-.124.494-.014a2.066,2.066,0,0,0,2.785-.7,2.894,2.894,0,0,0-.041-3.314,2.079,2.079,0,0,0-2.646-.648c-.452.273-.543.226-.548-.328-.008-.913-.006-1.827.018-2.739.01-.373-.091-.562-.5-.551-.381.011-.687.021-.677.547C647.183-682.634,647.167-681.421,647.167-680.208Zm2.389.283a1.436,1.436,0,0,1,1.25,1.514,1.436,1.436,0,0,1-1.217,1.5,1.382,1.382,0,0,1-1.324-1.482A1.447,1.447,0,0,1,649.556-679.925Z" transform="translate(-323.749 -2.969)" fill="#384187"/>
      <path id="Path_660325" data-name="Path 660325" d="M564.874-468.665a2.7,2.7,0,0,1,1.509.4c.149.109.424.339.6.068a1.156,1.156,0,0,0-.5-1.417,4.019,4.019,0,0,0-3.111.041,3.857,3.857,0,0,0-2.369,4.039,3.092,3.092,0,0,0,1.011,2.353,3.844,3.844,0,0,0,3.865,1.1c.938-.208,1.016-.253,1.068-1.171.01-.17.163-.373-.047-.5-.193-.118-.337.073-.494.149-.089.043-.174.1-.259.149a2.39,2.39,0,0,1-2.248.138,2.8,2.8,0,0,1-1.49-3.6A2.666,2.666,0,0,1,564.874-468.665Z" transform="translate(-246.192 -196.039)" fill="#37408c"/>
      <path id="Path_660326" data-name="Path 660326" d="M951.521-646.362c-.008-.549,0-1.1,0-1.646h.005c0-.615,0-1.231,0-1.846,0-.6-.509-.925-1-.581a.727.727,0,0,1-.9-.016,1.414,1.414,0,0,0-.561-.174,2.429,2.429,0,0,0-2.51,2.3c-.131,1.866,1.263,3.29,3.082,2.7a1.4,1.4,0,0,1,.989-.047C951.292-645.444,951.531-645.669,951.521-646.362Zm-2.427-.18a1.438,1.438,0,0,1-1.29-1.5,1.443,1.443,0,0,1,1.335-1.5c.586.006,1.261.822,1.279,1.547A1.6,1.6,0,0,1,949.094-646.543Z" transform="translate(-593.236 -33.352)" fill="#3a458f"/>
      <path id="Path_660327" data-name="Path 660327" d="M944.905-441.752c-.275-.058-.624-.155-.827.142-.17.25-.293.16-.481.051a2.039,2.039,0,0,0-2.732.379,2.715,2.715,0,0,0-.49,2.866,2.217,2.217,0,0,0,3.119,1.327c.253-.1.37-.183.636,0,.53.355,1.027.039,1.021-.592-.006-.564,0-1.129,0-1.693h0c0-.631,0-1.261,0-1.892C945.15-441.4,945.194-441.691,944.905-441.752Zm-2.182,4.169a1.869,1.869,0,0,1-1.443-1.665,1.589,1.589,0,0,1,1.464-1.728,1.714,1.714,0,0,1,1.43,1.659A1.783,1.783,0,0,1,942.724-437.583Z" transform="translate(-587.506 -221.235)" fill="#36438d"/>
      <path id="Path_660328" data-name="Path 660328" d="M718.5-441.828a2.6,2.6,0,0,0-2.83,2.463,2.475,2.475,0,0,0,2.557,2.674,2.45,2.45,0,0,0,2.6-2.476A2.552,2.552,0,0,0,718.5-441.828Zm1.13,2.607a1.425,1.425,0,0,1-1.414,1.481,1.487,1.487,0,0,1-1.359-1.49,1.511,1.511,0,0,1,1.42-1.52A1.47,1.47,0,0,1,719.629-439.221Z" transform="translate(-385.418 -221.301)" fill="#36408b"/>
      <path id="Path_660329" data-name="Path 660329" d="M705.7-676.617c-.006.414.077.58.494.591.769.021.87-.025.871-.523q0-1.819,0-3.637h0c0-1.229-.009-2.458,0-3.687,0-.429-.21-.562-.588-.535-.328.024-.762-.109-.791.431-.02.378.021.759.022,1.138C705.712-680.765,705.729-678.69,705.7-676.617Z" transform="translate(-376.427 -2.953)" fill="#4b5593"/>
      <path id="Path_660330" data-name="Path 660330" d="M901.851-645.494c1.213,0,1.426-.228,1.392-1.348,0-.145.038-.327-.136-.393s-.251.112-.354.212a1.231,1.231,0,0,1-1.186.418,1.455,1.455,0,0,1-1.128-1.234,1.5,1.5,0,0,1,1-1.652,1.181,1.181,0,0,1,1.431.48c.067.079.141.15.253.113s.128-.15.13-.246c.006-.315,0-.63,0-.944,0-.174-.126-.248-.268-.321a2.622,2.622,0,0,0-3.753,2.362A2.486,2.486,0,0,0,901.851-645.494Z" transform="translate(-550.637 -33.322)" fill="#3a448a"/>
      <path id="Path_660331" data-name="Path 660331" d="M693.4-475.511c-.287.012-.688-.094-.7.34-.038.995-.012,1.991-.013,2.987,0,1.48.023,2.96-.022,4.438-.013.438.127.572.51.594.594.034.732-.057.733-.518,0-1.215,0-2.429,0-3.643q0-.2,0-.4c0-1.1-.008-2.2,0-3.294C693.91-475.374,693.746-475.525,693.4-475.511Z" transform="translate(-364.702 -190.989)" fill="#3c468c"/>
      <path id="Path_660332" data-name="Path 660332" d="M956.773-572.01c-.006.357.05.547.439.532.355-.014.743.106.725-.511-.036-1.214-.011-2.429-.011-3.643h0c0-1.2-.008-2.4,0-3.594,0-.369-.045-.607-.507-.59-.4.015-.671.055-.638.571.042.646.015,1.3.014,1.946C956.8-575.536,956.8-573.772,956.773-572.01Z" transform="translate(-602.444 -97.103)" fill="#303e89"/>
      <path id="Path_660333" data-name="Path 660333" d="M783.31-440.468a6.517,6.517,0,0,0-.245-2.247c-.337-.791-1.846-1.407-2.505-.722-.323.335-.605.269-.92-.011a1.132,1.132,0,0,0-1.3-.162,1.035,1.035,0,0,1-.825.05c-.8-.206-1.222-.046-1.168.85a4.072,4.072,0,0,1,.058.741,28.285,28.285,0,0,0-.055,2.938c-.013.5.126.593.744.592.693,0,.832-.1.835-.62.005-.815.017-1.63,0-2.445a.692.692,0,0,1,.536-.787c.415-.064.511.338.58.663a14.434,14.434,0,0,1,.074,2.535c.02.586.083.657.726.656.6,0,.668-.069.681-.642a14.205,14.205,0,0,1,.1-2.584c.074-.358.268-.656.64-.633.353.022.491.3.477.681-.028.8-.011,1.6-.009,2.395,0,.721.071.786.808.781a2.4,2.4,0,0,0,.3-.007c.3-.039.487-.17.475-.516C783.3-439.428,783.31-439.894,783.31-440.468Zm-.979,1.838c-.345.016-.376-.156-.357-.476.048-.812.031-1.628.03-2.442a1.114,1.114,0,0,0-.08-.338c-.124-.371-.323-.706-.767-.63a.879.879,0,0,0-.735.771,12.869,12.869,0,0,0-.053,2.636c.019.342-.03.52-.4.488-.3-.026-.687.137-.655-.452.044-.812-.008-1.629.015-2.443.013-.478-.307-.72-.615-.957a.438.438,0,0,0-.587.094,1.555,1.555,0,0,0-.489,1.107c-.016.731-.027,1.464,0,2.194.021.564-.362.439-.676.451-.373.015-.4-.178-.387-.51.039-1.178.042-2.359.028-3.538-.007-.588.1-.764.669-.639a1.912,1.912,0,0,0,1.284-.118,1.156,1.156,0,0,1,1.232.334.446.446,0,0,0,.686-.018,1.623,1.623,0,0,1,1.732-.2,1.3,1.3,0,0,1,.807,1.313c.022.5,0,1,0,1.5h0c0,.482-.016.965,0,1.446C783.045-438.493,782.638-438.643,782.331-438.629Z" transform="translate(-440.023 -219.586)" fill="#b5b8da"/>
      <path id="Path_660334" data-name="Path 660334" d="M756.7-542.963h0q0-.923,0-1.846c0-.534-.1-.6-.649-.635-.5-.031-.534.272-.535.633,0,1.264.01,2.529-.01,3.793-.006.414.173.52.545.493.336-.024.684.041.66-.492C756.679-541.664,756.7-542.314,756.7-542.963Z" transform="translate(-421.274 -128.041)" fill="#49508e"/>
      <path id="Path_660335" data-name="Path 660335" d="M918.742-438.266h0c0-.615-.016-1.23.005-1.844.015-.443-.109-.669-.606-.693-.528-.025-.569.273-.569.652,0,1.261.006,2.523-.009,3.784,0,.39.176.492.523.462.319-.027.694.086.667-.469C918.718-437,918.742-437.634,918.742-438.266Z" transform="translate(-567.145 -222.233)" fill="#3c4789"/>
      <path id="Path_660336" data-name="Path 660336" d="M997.44-579.755H997.4q0-1.121,0-2.242c0-.268-.029-.514-.381-.519s-.411.214-.411.5c0,.482,0,.963,0,1.445,0,.576-.025.6-.5.319a.639.639,0,0,0-.335-.067,1.5,1.5,0,0,0-1.473,1.161,1.627,1.627,0,0,0,.377,1.74,1.218,1.218,0,0,0,1.463.331.967.967,0,0,1,.631,0c.479.138.684-.035.681-.532C997.437-578.331,997.44-579.043,997.44-579.755Zm-1.545.151a.958.958,0,0,1,.712.978.81.81,0,0,1-.773.9.813.813,0,0,1-.764-.92C995.071-579.115,995.516-579.628,995.9-579.6Zm1.281,1.921c0,.3-.013.578-.437.309-.184-.117-.38-.026-.571.051a1.484,1.484,0,0,1-1.413-.281c-.054-.062-.129-.126-.142-.2-.033-.188-.124-.479.055-.541.222-.076.283.179.321.388.061.334.747.553,1.162.385.656-.265.727-.406.622-1.461-.049-.492-.489-.61-.855-.781-.095-.044-.248.045-.29-.117a.158.158,0,0,1,.062-.122c.131-.1.237-.022.359.045.627.346.726.285.728-.428,0-.515,0-1.03,0-1.546,0-.162.047-.321.242-.306s.148.192.148.316c0,.731,0,1.462,0,2.194h0C997.178-579.079,997.179-578.381,997.177-577.683Z" transform="translate(-636.11 -94.672)" fill="#4d528a"/>
      <path id="Path_660337" data-name="Path 660337" d="M622.716-644.641c.338.032.487-.1.477-.451-.017-.648,0-1.3,0-1.944h-.005c0-.632-.008-1.263,0-1.895.006-.354-.026-.615-.5-.6-.425.01-.655.123-.65.594.012,1.28.013,2.56-.007,3.839C622.022-644.551,622.4-644.67,622.716-644.641Z" transform="translate(-301.129 -34.346)" fill="#364286"/>
      <path id="Path_660338" data-name="Path 660338" d="M842.339-648.036a2.6,2.6,0,0,0,4.417-.065.66.66,0,0,0,.129-.316c.012-.332-.493-.31-.446-.583.038-.221.467-.208.454-.572a2.819,2.819,0,0,0-.47-1.852,2.522,2.522,0,0,0-2.837-.765,2.594,2.594,0,0,0-1.6,2.663A2.015,2.015,0,0,0,842.339-648.036Zm-.034-2.318a2.142,2.142,0,0,1,2.754-1.692,2.028,2.028,0,0,1,1.622,2.232c-.013.31-.108.458-.443.439-.4-.022-.8-.005-1.2-.005v0c-.416,0-.831-.009-1.247,0-.389.011-.552.282-.331.6.571.815,1.2,1.1,2.015.243.422-.444.646-.455,1.093-.04.161.149.108.282.013.438a2.526,2.526,0,0,1-4.094-.009,1.284,1.284,0,0,1-.178-.563A8.184,8.184,0,0,1,842.305-650.354Zm3.222,1.482a1.076,1.076,0,0,1-1.809.168c-.084-.131-.189-.259-.088-.4s.24-.066.415-.019a6.994,6.994,0,0,1,1.338-.058C845.673-649.192,845.689-649.1,845.527-648.873Z" transform="translate(-499.092 -31.79)" fill="#bcc2e8"/>
      <path id="Path_660339" data-name="Path 660339" d="M562.473-675.249c.016,1.288.037,2.577-.027,3.862-.023.463.091.614.511.613.83,0,1.661.011,2.491-.007a1.86,1.86,0,0,0,1.629-1.492c-.179.254-.356.509-.538.761a.469.469,0,0,1-.454.243,2.684,2.684,0,0,1-1.766.319c-.415,0-.83,0-1.244.008-.293.008-.408-.1-.406-.41.012-2.206.008-4.413.008-6.619,0-.2-.016-.453.251-.461a5.056,5.056,0,0,1,2.3.2c1.183.543,1.484,1.536.952,2.864h0c-.125.272-.082.423.2.629a1.934,1.934,0,0,1,.759,1.924c-.023.179-.043.359-.065.539.142-.054.18-.171.216-.308a2.041,2.041,0,0,0-.723-2.207c-.291-.245-.339-.422-.121-.684a1.3,1.3,0,0,0,.242-.789,2.534,2.534,0,0,0-.433-1.347,1.618,1.618,0,0,0-1.168-.916,10.9,10.9,0,0,0-2.078-.141c-.471.034-.68.209-.607.684A19.467,19.467,0,0,1,562.473-675.249Z" transform="translate(-247.447 -8.112)" fill="#b8bddd"/>
      <path id="Path_660340" data-name="Path 660340" d="M709.18-543.121c-.009-.15.007-.312-.186-.36a.4.4,0,0,0-.395.148,1.3,1.3,0,0,1-1.7.042,1.533,1.533,0,0,1-.184-1.9,1.18,1.18,0,0,1,1.928-.145c.174.157.366.318.512.015a1.238,1.238,0,0,0-.757-1.65,2.731,2.731,0,0,0-3.352,2.591,2.665,2.665,0,0,0,2.742,2.7C708.931-541.691,709.243-542.014,709.18-543.121ZM705.2-544.2a2.334,2.334,0,0,1,1.616-2.4,2.558,2.558,0,0,1,1.881.012c.216.1.4,1.009.226,1.142-.109.083-.177-.021-.252-.08a1.325,1.325,0,0,0-2.146.24,1.517,1.517,0,0,0,.379,2.254c.626.5,1.043.464,1.7-.042.1-.074.159-.248.324-.156.138.078.045.209.038.317-.056.92-.078.936-1.227.935C706.066-541.929,705.5-542.843,705.2-544.2Z" transform="translate(-375.848 -126.618)" fill="#848cb8"/>
      <path id="Path_660341" data-name="Path 660341" d="M649.472-543.045c-.012-.6,0-1.2,0-1.8h-.014c0-.681.043-1.366-.012-2.043a.838.838,0,0,0-1.341-.634.629.629,0,0,1-.685,0,1.876,1.876,0,0,0-1.71.039,2.632,2.632,0,0,0-1.4,1.681,2.777,2.777,0,0,0,.816,3,1.926,1.926,0,0,0,2.323.352c.453-.263.971.006,1.461-.024C649.3-542.494,649.48-542.644,649.472-543.045Zm-1.224.362a.534.534,0,0,0-.648-.032,2.112,2.112,0,0,1-3.122-1.854c-.007-.2.018-.4,0-.6a2.114,2.114,0,0,1,3.108-2.039c.233.128.408.172.619-.034a.766.766,0,0,1,.8-.084c.288.088.183.39.186.611.009.6,0,1.2,0,1.795h.034q0,.971,0,1.941C649.228-542.627,648.633-542.414,648.248-542.684Z" transform="translate(-321.057 -126.01)" fill="#b6bddc"/>
      <path id="Path_660342" data-name="Path 660342" d="M842.6-546.277c.367.043.615.39.618.888,0,.764,0,1.529,0,2.293,0,.171-.081.372.114.5h0q-.005-1.4-.011-2.792c0-.632-.315-1.071-.775-1.09a1.025,1.025,0,0,0-1.005,1.029c-.039.763-.012,1.528-.021,2.293,0,.157.071.337-.1.461l0,0h0c-.263.228-.569.093-.854.089-.181,0-.232-.169-.216-.333.122-1.239.027-2.481.064-3.722.022-.74.352-.96,1.041-.623a1.214,1.214,0,0,0,.475.106,1.692,1.692,0,0,1,2.258.427c.046.085.124.173.124.261.009,1.267.008,2.534.009,3.8h0c-.31.219-.657.067-.985.1h0c.316.23.668.112,1,.077.2-.021.278-.214.278-.419,0-1.014.01-2.027,0-3.041a1.78,1.78,0,0,0-2.69-1.463c-.163.108-.3.039-.458-.043-.749-.384-1.238-.094-1.238.716q0,1.869,0,3.739c0,.178-.055.412.157.484a1.573,1.573,0,0,0,1.072,0c.288-.114.145-.44.161-.675a13.094,13.094,0,0,1,.094-2.379A.8.8,0,0,1,842.6-546.277Z" transform="translate(-497.542 -126.019)" fill="#adb2d4"/>
      <path id="Path_660343" data-name="Path 660343" d="M897.336-542.952c-.016-.647,0-1.295,0-1.942q0-.921,0-1.843c0-.807-.458-1.1-1.2-.724a.706.706,0,0,1-.786-.019,1.06,1.06,0,0,0-.461-.167,2.6,2.6,0,0,0-2.729,2.372,2.843,2.843,0,0,0,.738,2.287,1.967,1.967,0,0,0,1.94.757,5.242,5.242,0,0,1,2.016-.216C897.226-542.416,897.345-542.6,897.336-542.952Zm-1.071.308a.648.648,0,0,0-.734-.029,2.106,2.106,0,0,1-3-1.411,2.564,2.564,0,0,1,.8-2.9,1.742,1.742,0,0,1,1.8-.307c.358.136.715.422,1.216.077s.8-.074.8.547c0,.581,0,1.162,0,1.742s0,1.162,0,1.742S896.751-542.338,896.266-542.644Z" transform="translate(-544.26 -126.043)" fill="#a5accc"/>
      <path id="Path_660344" data-name="Path 660344" d="M812.841-663.079c-.005.382,0,.763,0,1.145h0c0,.431.025.865-.006,1.294-.04.542.3.531.673.533s.693-.011.674-.541c-.032-.862-.007-1.726-.021-2.588-.005-.317.067-.53.435-.5.4.037.487-.2.458-.526-.031-.352.143-.833-.465-.856-.329-.013-.44-.164-.422-.469.011-.182,0-.365,0-.548,0-.563-.063-.595-.692-.62-.46-.019-.68.119-.645.62a1.478,1.478,0,0,1-.285,1.2.866.866,0,0,0,.033,1.106A.893.893,0,0,1,812.841-663.079Zm-.183-1.657a1.4,1.4,0,0,0,.394-1.358c-.034-.425.192-.456.513-.443.355.015.406.177.324.492a1.632,1.632,0,0,0-.013.642c.052.336.2.608.613.571.486-.044.362.3.373.566.014.323-.141.323-.41.267-.391-.082-.563.225-.571.529a19.091,19.091,0,0,0,.027,2.633c.022.2.121.411-.093.541a.7.7,0,0,1-.581.019c-.262-.085-.168-.324-.17-.513,0-.4,0-.8,0-1.194h0c0-.382-.007-.763,0-1.145a.781.781,0,0,0-.328-.809A.534.534,0,0,1,812.657-664.735Z" transform="translate(-472.457 -18.849)" fill="#757fb1"/>
      <path id="Path_660345" data-name="Path 660345" d="M780.348-546.681a2.574,2.574,0,0,0-2.685,2.543,2.572,2.572,0,0,0,2.55,2.743,2.666,2.666,0,0,0,2.824-2.589A2.675,2.675,0,0,0,780.348-546.681Zm-.056,5.006a2.206,2.206,0,0,1-2.36-2.394,2.2,2.2,0,0,1,2.307-2.372,2.212,2.212,0,0,1,2.544,2.333A2.222,2.222,0,0,1,780.292-541.675Z" transform="translate(-441.22 -126.928)" fill="#767dae"/>
      <path id="Path_660346" data-name="Path 660346" d="M631.669-443.478a2.473,2.473,0,0,0-1.855.809,2.55,2.55,0,0,0-.794,2.236,2.586,2.586,0,0,0,2.646,2.414,2.645,2.645,0,0,0,2.833-2.687A2.783,2.783,0,0,0,631.669-443.478Zm-.027,5.217a2.389,2.389,0,0,1-2.4-2.514,2.4,2.4,0,0,1,2.519-2.477,2.49,2.49,0,0,1,2.48,2.55A2.439,2.439,0,0,1,631.642-438.261Z" transform="translate(-307.404 -219.823)" fill="#b5bbd9"/>
      <path id="Path_660347" data-name="Path 660347" d="M1035.3-560.468a1.149,1.149,0,0,0-.2-.389,1.567,1.567,0,0,0-1.63-.611,1.644,1.644,0,0,0-1.186,1.667,1.552,1.552,0,0,0,1.394,1.778c.538.09,1.617-.357,1.57-.761C1035.18-559.359,1035.5-559.9,1035.3-560.468Zm-2.135,1.368a.779.779,0,0,0,1.009.277l-.05,0c-.282-.013-.574-.013-.729-.31a.217.217,0,0,1,.05-.275,1.179,1.179,0,0,1,.868-.073c.286.043.226.344-.138.661a.4.4,0,0,0,.44-.249c.1-.2.254-.18.408-.045s.113.264-.006.423a1.711,1.711,0,0,1-1.787.338,1.425,1.425,0,0,1-.764-1.236c-.07-1.044.382-1.376,1.2-1.659a1.24,1.24,0,0,1,1.506,1.175c-.009.25-.119.333-.361.371a11.312,11.312,0,0,1-1.386.086C1033.067-559.608,1032.968-559.4,1033.162-559.1Z" transform="translate(-670.41 -113.575)" fill="#7b83b7"/>
      <path id="Path_660348" data-name="Path 660348" d="M757.764-647.772l-.5.4h0a2.671,2.671,0,0,1-4.1-.7,2.609,2.609,0,0,1-.171-1.406c.022-.2.052-.392.079-.588h0c-.042-.332.247-.477.4-.7v0h0a1.993,1.993,0,0,1,1.473-.948,1.934,1.934,0,0,1,1.81.359l.5.4c.229.051.3.3.506.387a2.562,2.562,0,0,0-3.215-1.179,2.68,2.68,0,0,0-1.754,2.031,2.493,2.493,0,0,0,.328,1.914,2.762,2.762,0,0,0,1.753,1.277A2.675,2.675,0,0,0,757.764-647.772Z" transform="translate(-418.764 -32.214)" fill="#b1b9db"/>
      <path id="Path_660349" data-name="Path 660349" d="M730.424-646.357c.388-.013.573-.145.556-.566-.027-.647-.007-1.295-.007-1.943h0q0-1.021,0-2.042a.58.58,0,0,0-.642-.649c-.754-.028-.945.142-.949.907-.006,1.1,0,2.192,0,3.288C729.378-646.382,729.448-646.324,730.424-646.357Zm-.862-4.444c0-.452.234-.561.63-.559s.586.156.581.561c-.009.664,0,1.328,0,1.992h.006c0,.631-.015,1.262.005,1.892.014.456-.27.458-.59.453s-.642.049-.635-.455C729.576-648.212,729.572-649.507,729.563-650.8Z" transform="translate(-397.755 -32.523)" fill="#c3c7e2"/>
      <path id="Path_660350" data-name="Path 660350" d="M916.827-467.412a.8.8,0,0,0-.756.765.656.656,0,0,0,.745.72.837.837,0,0,0,.836-.742A1.085,1.085,0,0,0,916.827-467.412Z" transform="translate(-565.807 -198.282)" fill="#374586"/>
      <path id="Path_660351" data-name="Path 660351" d="M620.368-674.745a.673.673,0,0,0,.774-.693.9.9,0,0,0-.746-.8,1.118,1.118,0,0,0-.83.736A.793.793,0,0,0,620.368-674.745Z" transform="translate(-298.91 -10.312)" fill="#3b478a"/>
      <path id="Path_660352" data-name="Path 660352" d="M754.062-572.488a.971.971,0,0,0-.886.834.817.817,0,0,0,.89.782.732.732,0,0,0,.837-.753A.905.905,0,0,0,754.062-572.488Zm-.08,1.409c-.418.085-.549-.207-.566-.575a.675.675,0,0,1,.644-.63.673.673,0,0,1,.622.656C754.7-571.255,754.464-571.075,753.983-571.079Z" transform="translate(-419.178 -103.7)" fill="#8991b5"/>
      <path id="Path_660353" data-name="Path 660353" d="M730.857-674.861a.711.711,0,0,0,.785-.8.8.8,0,0,0-.766-.8.771.771,0,0,0-.775.832A.672.672,0,0,0,730.857-674.861Zm-.014-1.378a.621.621,0,0,1,.648.556c.036.337-.292.6-.687.608-.434.02-.546-.305-.542-.615A.555.555,0,0,1,730.842-676.239Z" transform="translate(-398.407 -10.111)" fill="#6a72a1"/>
      <path id="Path_660354" data-name="Path 660354" d="M799.028-640.026a2.709,2.709,0,0,1,.571,1.448,2.66,2.66,0,0,1-.582,1.639c-.018.024-.036.048-.053.071.116-.118.227-.244.43-.212h0a2.673,2.673,0,0,0,0-2.79h0A.4.4,0,0,1,799.028-640.026Z" transform="translate(-460.394 -42.906)" fill="#7b80ae"/>
      <path id="Path_660355" data-name="Path 660355" d="M798.37-610.355a.294.294,0,0,0-.065.191h0l.5-.4h0C798.6-610.6,798.486-610.472,798.37-610.355Z" transform="translate(-459.8 -69.419)" fill="#7b80ae"/>
      <path id="Path_660356" data-name="Path 660356" d="M798.173-642.34c.046.078.095.154.143.231a.4.4,0,0,0,.363.156h0C798.476-642.036,798.4-642.289,798.173-642.34Z" transform="translate(-459.682 -40.823)" fill="#7b80ae"/>
      <path id="Path_660357" data-name="Path 660357" d="M314.243-657.792q0-11.922,0-23.845a2.5,2.5,0,0,0-.011-.448c-.029-.158-.091-.259-.305-.154a1.027,1.027,0,0,1-1.195-.231h1.11c-.148-.16-.342-.094-.516-.094q-9.617,0-19.233,0c-.175,0-.369-.065-.518.095h18.119a1.711,1.711,0,0,1-1.482.259c-.212-.021-.425-.058-.64-.058-4.542,0-9.083.01-13.625-.017-.446,0-.817.217-1.293.179a14.87,14.87,0,0,0-1.968-.075c-.395.021-.522.153-.513.536.019.831.006,1.664.006,2.5,0,6.954.01,13.908-.008,20.863,0,1.525.112,3.043.163,4.564a.428.428,0,0,1-.139.345.5.5,0,0,0-.042.052q0,.171.008.342a.416.416,0,0,0,.083.07c.373.24.331.442-.015.656-.032.02-.033.09-.048.136a11.416,11.416,0,0,0,1.52,1.5c.24.2.359.186.568-.021q3.38-3.354,6.779-6.69a1,1,0,0,0,.323-.787q-.016-7.285-.006-14.57c0-.616.076-.692.687-.695.748,0,1.5.015,2.245-.01.435-.015.581.148.58.581q-.009,7.077.014,14.154a1.872,1.872,0,0,0,.577,1.454c2.27,2.192,4.492,4.434,6.728,6.661.13.13.254.16.385.028s.242-.271.362-.408a.817.817,0,0,1,.6-.586h0c0-.1.22-.169.073-.283-.107-.084-.4.057-.342-.219a.5.5,0,0,1,.5-.388c-.051.284-.091.587.35.387h0l.125-.186h0Q314.248-655,314.243-657.792Zm-2.432-24.6c.186-.169.426-.054.759-.081-.246.252-.379.454-.647.31C311.845-682.2,311.728-682.314,311.811-682.388Zm1.025,2.77a14.708,14.708,0,0,0-.093,2.489c0,.15,0,.3,0,.449q0,8.978.008,17.955a14.279,14.279,0,0,0-.213,2.016,20.132,20.132,0,0,1,.007,2.318c0,.132-.035.3.031.39.42.561-.222.6-.418.839-.085.1-.246-.027-.187-.16.151-.346-.18-.468-.3-.678s-.269-.058-.408.046a.233.233,0,0,1-.319-.036c-.083-.1.043-.131.094-.182.165-.164.028-.268-.077-.371q-1.943-1.9-3.888-3.789c-.036-.035-.086-.06-.11-.1-.123-.21-.312.274-.379-.025-.029-.131.155-.3.153-.449,0-.4-.107-.794-.078-1.184.167-2.289.064-4.581.088-6.871.028-2.673-.169-5.344-.1-8.018h0c-.062.024-.128.078-.184.068a41.1,41.1,0,0,0-5.627-.165c-.258-.007-.5.147-.779.027-.165-.071-.275.075-.292.247-.013.132-.007.266-.007.4q0,7.6,0,15.195c0,.269.077.585-.3.7.162.572-.121,1.019-.789,1.239-.149-.182.146-.277.09-.438h0l0,0c-.529.056-.756.51-1.041.852-.141.17-.49.322-.3.684.033.063-.1.151-.222.124a.669.669,0,0,0-.774.48c-.093.348-.05.626-.531.416-.044-.019-.172.138-.252.222-.433.452-.869.9-1.293,1.364a.342.342,0,0,1-.395.125.275.275,0,0,1-.179-.322,24.578,24.578,0,0,1-.032-2.475,4.2,4.2,0,0,0-.067-.882c0-5.972-.022-11.944.015-17.915.006-.983-.037-1.965-.015-2.948.02-.886.07-1.772.089-2.658a.568.568,0,0,1,.206-.426h0a.31.31,0,0,1,.2-.3h0c-.013-.222.074-.33.315-.337,3.236-.088,6.472-.067,9.708-.053.976,0,1.952-.024,2.932.05.54.041,1.12-.067,1.68-.051a10.751,10.751,0,0,0,2.954-.1.337.337,0,0,1,.2.018c.133.055.336.082.328.254-.009.19-.21.088-.324.124a2.227,2.227,0,0,0-.219.094h0c.211.029.5-.074.5.307h0C312.861-680.759,312.97-680.493,312.836-679.618Z" transform="translate(-4.193 -4.603)" fill="#324197"/>
      <path id="Path_660358" data-name="Path 660358" d="M419.8-680.442q-1.474,0-2.949-.006Q418.328-680.441,419.8-680.442Z" transform="translate(-116.442 -6.521)" fill="#3b4698"/>
      <path id="Path_660359" data-name="Path 660359" d="M290.55-652.844a.25.25,0,0,1-.008-.342c-.158-7.639-.027-15.28-.078-22.919-.012-1.776.02-3.551.007-5.326,0-.607.121-.717.723-.747s1.195.069,1.794.044c1.249-.052,2.5-.08,3.747-.094l-2.186,0c-.632,0-1.26.092-1.891.06-.242-.012-.5.036-.7-.159a5.642,5.642,0,0,1-1.585-.092h0q0,14.962-.007,29.924c0,.2-.026.408.2.515h0C290.562-652.269,290.556-652.557,290.55-652.844Z" transform="translate(-2.583 -4.745)" fill="#3b4698"/>
      <path id="Path_660360" data-name="Path 660360" d="M471.891-680.262l-.972,0A5.54,5.54,0,0,0,471.891-680.262Z" transform="translate(-165.108 -6.684)" fill="#3b4698"/>
      <path id="Path_660361" data-name="Path 660361" d="M354.165-680.6l6.26,0C358.338-680.6,356.252-680.619,354.165-680.6Z" transform="translate(-60.013 -6.377)" fill="#3b4698"/>
      <path id="Path_660362" data-name="Path 660362" d="M292.311-386.172a.416.416,0,0,1-.083-.07c.006.288.012.575.019.863h0c.015-.047.016-.116.048-.136C292.641-385.729,292.683-385.932,292.311-386.172Z" transform="translate(-4.261 -271.347)" fill="#3b4698"/>
      <path id="Path_660363" data-name="Path 660363" d="M293.535-681.338c.632.032,1.26-.061,1.891-.06l2.186,0c2.087-.023,4.173-.006,6.26,0q1.474,0,2.949.006.9,0,1.8-.013c.216,0,.431.011.646.025l.972,0a5.54,5.54,0,0,1-.972,0q-1.225-.007-2.45-.012-1.474,0-2.949-.006-3.13,0-6.26,0c-1.249.014-2.5.042-3.747.094-.6.025-1.194-.073-1.794-.044s-.728.139-.723.747c.013,1.775-.019,3.551-.007,5.326.052,7.64-.08,15.28.078,22.919a.5.5,0,0,1,.042-.052.428.428,0,0,0,.139-.345c-.051-1.521-.167-3.039-.163-4.564.018-6.954.008-13.908.008-20.863,0-.832.013-1.664-.006-2.5-.009-.383.119-.515.513-.536a14.87,14.87,0,0,1,1.968.075c.475.037.847-.182,1.293-.179,4.542.028,9.083.017,13.625.017.215,0,.428.037.64.058a1.711,1.711,0,0,0,1.482-.259H292.835C293.036-681.3,293.293-681.351,293.535-681.338Z" transform="translate(-3.461 -5.576)" fill="#3b4698"/>
      <path id="Path_660364" data-name="Path 660364" d="M448.187-680.519q-.9.011-1.8.013,1.225,0,2.45.012C448.618-680.508,448.4-680.521,448.187-680.519Z" transform="translate(-143.022 -6.457)" fill="#3b4698"/>
      <path id="Path_660365" data-name="Path 660365" d="M291.481-685.63h0Z" transform="translate(-3.589 -1.856)" fill="#2d367a"/>
      <path id="Path_660366" data-name="Path 660366" d="M291.948-685.222c.017-.144.128-.181.242-.214a1.432,1.432,0,0,1,.4-.027q9.5,0,19.006,0c.236,0,.513-.073.658.22-.007.009-.014.016-.021.024h0c.274.017.519,0,.5-.377l-.021-.021-20.84,0c-.465,0-.93-.009-1.4-.014-.136.074-.114.2-.1.32h0A2.682,2.682,0,0,1,291.948-685.222Z" transform="translate(-2.58 -1.857)" fill="#2d367a"/>
      <path id="Path_660367" data-name="Path 660367" d="M325.9-684.016q-9.5-.006-19.006,0a1.432,1.432,0,0,0-.4.027c-.114.032-.226.07-.242.214l.014.006c.149-.16.343-.094.518-.095q9.617-.005,19.233,0c.174,0,.368-.065.516.094.007-.008.014-.015.021-.024C326.411-684.09,326.134-684.016,325.9-684.016Z" transform="translate(-16.886 -3.301)" fill="#2d367a"/>
      <path id="Path_660368" data-name="Path 660368" d="M292.027-683.012l-.006-.006h0a2.682,2.682,0,0,0-1.579-.086A5.642,5.642,0,0,0,292.027-683.012Z" transform="translate(-2.654 -4.061)" fill="#2d367a"/>
      <path id="Path_660369" data-name="Path 660369" d="M306.253-681.556l.006.006h.008l-.014-.006Z" transform="translate(-16.886 -5.523)" fill="#2d367a"/>
      <path id="Path_660370" data-name="Path 660370" d="M505.518-685.265h0c.011.445-.023.471-.5.377h0a.554.554,0,0,1-.476.142c-.013.009.009,0,.053.013.268.1.592-.224.8.044.186.242.072.58.072.874q.006,14.3,0,28.6a1.577,1.577,0,0,1-.036.592,2.564,2.564,0,0,0,.089-1.219q.011-14.285-.008-28.57C505.509-684.7,505.75-684.982,505.518-685.265Z" transform="translate(-195.369 -2.185)" fill="#3b4698"/>
      <path id="Path_660371" data-name="Path 660371" d="M499.792-651.816q0-14.3,0-28.6c0-.294.114-.633-.072-.874-.206-.267-.531.056-.8-.044-.043-.016-.066,0-.053-.013a.554.554,0,0,0,.476-.142h-1.109a1.027,1.027,0,0,0,1.195.231c.214-.1.276,0,.305.154a2.5,2.5,0,0,1,.011.448q0,11.922,0,23.845,0,2.793.01,5.587h0A1.577,1.577,0,0,0,499.792-651.816Z" transform="translate(-189.695 -5.584)" fill="#3b4698"/>
      <path id="Path_660372" data-name="Path 660372" d="M509.365-684.886c.475.094.509.068.5-.377h0C509.884-684.89,509.639-684.869,509.365-684.886Z" transform="translate(-199.715 -2.186)" fill="#3b4698"/>
      <path id="Path_660373" data-name="Path 660373" d="M291.976-686.441q10.626,0,21.253,0a.9.9,0,0,1,.488.048c-.151-.159-.345-.085-.518-.085q-10.594-.006-21.188,0c-.177,0-.367-.057-.53.07A1.351,1.351,0,0,1,291.976-686.441Z" transform="translate(-3.59 -1.078)" fill="#3b4698"/>
      <path id="Path_660374" data-name="Path 660374" d="M291.48-685.63h0Z" transform="translate(-3.588 -1.856)" fill="#3b4698"/>
      <path id="Path_660375" data-name="Path 660375" d="M313.716-685.992a.9.9,0,0,0-.488-.048q-10.626,0-21.253,0a1.351,1.351,0,0,0-.494.032h0c.465.005.93.014,1.4.014Z" transform="translate(-3.588 -1.478)" fill="#3b4698"/>
      <path id="Path_660376" data-name="Path 660376" d="M506.336-378.528c-.206.273.512.49-.029.7a.992.992,0,0,0,.582-.5h0C506.623-378.062,506.449-378.188,506.336-378.528Z" transform="translate(-196.954 -278.291)" fill="#3b4698"/>
      <path id="Path_660377" data-name="Path 660377" d="M504.122-380.435a.5.5,0,0,0-.5.388c-.059.277.235.136.342.219.147.114-.077.179-.073.283.541-.21-.177-.427.029-.7.112.34.286.466.553.2C504.03-379.848,504.071-380.151,504.122-380.435Z" transform="translate(-194.537 -276.574)" fill="#3b4698"/>
      <path id="Path_660378" data-name="Path 660378" d="M500.344-370.935a2.3,2.3,0,0,0,.6-.586A2.406,2.406,0,0,0,500.344-370.935Z" transform="translate(-191.595 -284.598)" fill="#3b4698"/>
      <path id="Path_660379" data-name="Path 660379" d="M500.344-370.936a2.406,2.406,0,0,1,.6-.586h0A.817.817,0,0,0,500.344-370.936Z" transform="translate(-191.595 -284.597)" fill="#3b4698"/>
      <path id="Path_660380" data-name="Path 660380" d="M869.524-431.464a1.564,1.564,0,0,0-1.407,1.57,1.563,1.563,0,0,0,1.351,1.528,1.463,1.463,0,0,0,1.353-1.5A1.511,1.511,0,0,0,869.524-431.464Zm-.065,2.805c-.745.039-1.087-.547-1.108-1.229a1.348,1.348,0,0,1,1.15-1.38c.6.009,1.031.582,1.029,1.383C870.527-428.9,870.318-428.7,869.459-428.659Z" transform="translate(-522.64 -230.641)" fill="#bec2e1"/>
      <path id="Path_660381" data-name="Path 660381" d="M952.7-432.532a1.589,1.589,0,0,0-1.464,1.728,1.869,1.869,0,0,0,1.443,1.665,1.783,1.783,0,0,0,1.451-1.735A1.714,1.714,0,0,0,952.7-432.532Zm-.006,3.1a1.246,1.246,0,0,1-1.237-1.378,1.409,1.409,0,0,1,1.191-1.51,1.4,1.4,0,0,1,1.271,1.439A1.416,1.416,0,0,1,952.689-429.437Z" transform="translate(-597.456 -229.679)" fill="#6870b3"/>
      <path id="Path_660382" data-name="Path 660382" d="M785.146-438.377h0c0-.5.018-1,0-1.5a1.3,1.3,0,0,0-.807-1.313,1.623,1.623,0,0,0-1.732.2.446.446,0,0,1-.686.018,1.156,1.156,0,0,0-1.232-.334,1.913,1.913,0,0,1-1.284.118c-.567-.125-.676.051-.669.638.014,1.179.011,2.36-.028,3.538-.011.333.015.525.387.51.314-.012.7.113.676-.451-.027-.731-.016-1.463,0-2.194a1.555,1.555,0,0,1,.489-1.107.438.438,0,0,1,.587-.094c.308.237.628.479.615.957-.023.814.03,1.631-.015,2.443-.032.589.353.426.655.452.373.032.422-.146.4-.488a12.869,12.869,0,0,1,.053-2.636.879.879,0,0,1,.735-.771c.444-.075.643.26.767.63a1.113,1.113,0,0,1,.08.338c0,.814.018,1.63-.03,2.442-.019.32.013.491.357.476.306-.014.713.137.689-.434C785.13-437.412,785.146-437.894,785.146-438.377Z" transform="translate(-442.152 -221.719)" fill="#3b4690"/>
      <path id="Path_660383" data-name="Path 660383" d="M1000.675-579.911c0-.124.04-.3-.148-.316s-.241.144-.242.306c0,.515,0,1.03,0,1.546,0,.714-.1.775-.728.428-.122-.068-.228-.145-.359-.045a.158.158,0,0,0-.062.122c.042.162.2.073.29.117.366.171.806.289.855.781.105,1.055.034,1.2-.622,1.461-.416.168-1.1-.051-1.162-.385-.038-.208-.1-.464-.321-.388-.18.062-.088.353-.055.541.013.072.088.137.142.2a1.484,1.484,0,0,0,1.413.281c.19-.077.387-.167.571-.051.425.269.437-.007.437-.309,0-.7,0-1.4,0-2.094h0C1000.676-578.448,1000.678-579.18,1000.675-579.911Z" transform="translate(-639.61 -96.733)" fill="#2e3c80"/>
      <path id="Path_660384" data-name="Path 660384" d="M845.3-645.8a2.526,2.526,0,0,0,4.094.009c.095-.156.148-.289-.013-.438-.447-.415-.671-.4-1.093.04-.814.856-1.444.572-2.015-.243-.22-.314-.058-.585.331-.6.415-.012.831,0,1.247,0v0c.4,0,.8-.017,1.2.005.335.019.429-.129.443-.439a2.028,2.028,0,0,0-1.622-2.232,2.142,2.142,0,0,0-2.755,1.692,8.188,8.188,0,0,0,.01,1.64A1.284,1.284,0,0,0,845.3-645.8Zm1.052-2.508a1.188,1.188,0,0,1,1.05-.548,1.192,1.192,0,0,1,.929.659c.139.2.062.432-.246.448-.264.014-.53,0-.8,0v.007h-.6C846.249-647.746,846.1-647.967,846.351-648.312Z" transform="translate(-501.898 -34.138)" fill="#38418d"/>
      <path id="Path_660385" data-name="Path 660385" d="M570.845-670.675c-.005-.021-.014-.04-.02-.06a1.87,1.87,0,0,0-.28-.4,3.133,3.133,0,0,0-.394-.287c-.326-.209-.364-.4-.141-.581a1,1,0,0,1,.053-.2,2.141,2.141,0,0,0,.041-1.642,1.644,1.644,0,0,0-1.208-1.072,6,6,0,0,0-1.583-.142c-.329.009-.489.142-.49.477q-.009,3.139,0,6.277c0,.209.029.424.3.428a18.71,18.71,0,0,0,2.338-.03,2.151,2.151,0,0,0,.464-.177.713.713,0,0,0,.5-.26A2.456,2.456,0,0,0,570.845-670.675Zm-3.179-1.606c0-.265,0-.53,0-.8a2.707,2.707,0,0,1,0-.348c.031-.25-.139-.61.165-.718a1.194,1.194,0,0,1,1.141.105,1.22,1.22,0,0,1,.335,1.552,1.139,1.139,0,0,1-1.384.576A.336.336,0,0,1,567.665-672.28Zm2.187,2.835a1.4,1.4,0,0,1-1.371.661c-.691-.045-.692-.045-.7-.742a7.167,7.167,0,0,0-.006-.8c-.065-.511.189-.652.637-.611a2.021,2.021,0,0,1,.967.161A1.081,1.081,0,0,1,569.853-669.446Z" transform="translate(-251.431 -11.37)" fill="#34408b"/>
      <path id="Path_660386" data-name="Path 660386" d="M568.935-669.673a.713.713,0,0,1-.5.26,2.152,2.152,0,0,1-.464.177,18.711,18.711,0,0,1-2.338.03c-.273,0-.3-.219-.3-.428q-.009-3.138,0-6.277c0-.335.161-.468.49-.477a5.994,5.994,0,0,1,1.583.142,1.643,1.643,0,0,1,1.208,1.072,2.141,2.141,0,0,1-.041,1.642,1,1,0,0,0-.053.2,1.1,1.1,0,0,1,.158-.107h0c.532-1.327.23-2.321-.952-2.864a5.056,5.056,0,0,0-2.3-.2c-.268.008-.251.258-.251.461,0,2.206,0,4.413-.008,6.619,0,.31.113.418.406.41.414-.011.829,0,1.244-.008a2.684,2.684,0,0,0,1.766-.319A2.556,2.556,0,0,0,568.935-669.673Z" transform="translate(-249.943 -10.039)" fill="#34408b"/>
      <path id="Path_660387" data-name="Path 660387" d="M604.127-635.727a1.866,1.866,0,0,1,.28.4A.945.945,0,0,0,604.127-635.727Z" transform="translate(-285.014 -46.776)" fill="#34408b"/>
      <path id="Path_660388" data-name="Path 660388" d="M598.8-642.458a.59.59,0,0,1-.123-.294A.3.3,0,0,0,598.8-642.458Z" transform="translate(-280.098 -40.452)" fill="#7177a8"/>
      <path id="Path_660389" data-name="Path 660389" d="M607.645-616.329a2.413,2.413,0,0,1-.078.23.262.262,0,0,1,.174-.049h0A.365.365,0,0,1,607.645-616.329Z" transform="translate(-288.11 -64.237)" fill="#7177a8"/>
      <path id="Path_660390" data-name="Path 660390" d="M600.193-614.472a1.729,1.729,0,0,1-.818.955.469.469,0,0,0,.454-.243c.182-.252.359-.507.538-.761h0A.262.262,0,0,0,600.193-614.472Z" transform="translate(-280.736 -65.864)" fill="#7177a8"/>
      <path id="Path_660391" data-name="Path 660391" d="M599.091-644.863c-.283-.206-.326-.357-.2-.629h0a.666.666,0,0,0-.162.274.591.591,0,0,0,.123.294.974.974,0,0,0,.129.1,1.97,1.97,0,0,1,.708,2.249.365.365,0,0,0,.1.179h0c.022-.18.042-.359.065-.539A1.934,1.934,0,0,0,599.091-644.863Z" transform="translate(-280.154 -37.986)" fill="#7177a8"/>
      <path id="Path_660392" data-name="Path 660392" d="M603.468-630.539a1.843,1.843,0,0,0-.161-1.2c.007.02.015.039.02.06a2.456,2.456,0,0,1-.422,2.333c.086-.093.163-.2.247-.3s.116-.246.219-.323a2.413,2.413,0,0,0,.078-.23A.868.868,0,0,1,603.468-630.539Z" transform="translate(-283.915 -50.363)" fill="#7177a8"/>
      <path id="Path_660393" data-name="Path 660393" d="M597.5-644.417c-.223.184-.185.372.141.581a3.133,3.133,0,0,1,.394.287,2.192,2.192,0,0,0-.224-.214,1.19,1.19,0,0,1-.192-.194.3.3,0,0,1-.123-.294A.634.634,0,0,1,597.5-644.417Z" transform="translate(-278.919 -38.954)" fill="#7177a8"/>
      <path id="Path_660394" data-name="Path 660394" d="M598.694-645.218a.666.666,0,0,1,.162-.274,1.1,1.1,0,0,0-.158.107A.634.634,0,0,0,598.694-645.218Z" transform="translate(-280.12 -37.986)" fill="#7177a8"/>
      <path id="Path_660395" data-name="Path 660395" d="M600.155-639.618a2.192,2.192,0,0,1,.224.214.945.945,0,0,1,.28.4,1.843,1.843,0,0,1,.161,1.2.868.868,0,0,0-.019.336,1.97,1.97,0,0,0-.708-2.249.974.974,0,0,1-.129-.1A1.19,1.19,0,0,0,600.155-639.618Z" transform="translate(-281.266 -43.099)" fill="#7177a8"/>
      <path id="Path_660396" data-name="Path 660396" d="M600.193-614.025c-.1.077-.138.226-.219.323s-.16.207-.247.3a2.552,2.552,0,0,1-.353.331A1.73,1.73,0,0,0,600.193-614.025Z" transform="translate(-280.736 -66.311)" fill="#7177a8"/>
      <path id="Path_660397" data-name="Path 660397" d="M710.138-540.636c.007-.108.1-.24-.038-.317-.164-.092-.227.081-.324.155-.66.506-1.077.546-1.7.042a1.517,1.517,0,0,1-.379-2.254,1.325,1.325,0,0,1,2.146-.24c.076.06.143.163.252.08.175-.133-.01-1.044-.226-1.142a2.558,2.558,0,0,0-1.881-.012,2.334,2.334,0,0,0-1.616,2.4c.3,1.357.866,2.271,2.541,2.222C710.06-539.7,710.082-539.716,710.138-540.636Z" transform="translate(-377.018 -128.896)" fill="#3b448a"/>
      <path id="Path_660398" data-name="Path 660398" d="M651.89-542.782c0-.6.006-1.2,0-1.794,0-.22.1-.522-.186-.611a.766.766,0,0,0-.8.084c-.211.206-.386.162-.619.034a2.114,2.114,0,0,0-3.108,2.039c.018.2-.007.4,0,.6a2.112,2.112,0,0,0,3.122,1.854.534.534,0,0,1,.648.032c.385.27.98.057.98-.294q0-.97,0-1.941Zm-2.36,1.536a1.52,1.52,0,0,1-1.354-1.7,1.619,1.619,0,0,1,1.395-1.489,1.545,1.545,0,0,1,1.314,1.632A1.432,1.432,0,0,1,649.531-541.246Z" transform="translate(-323.753 -128.147)" fill="#37408f"/>
      <path id="Path_660399" data-name="Path 660399" d="M846.344-538.983c.195-.018.411.034.557-.138.062-1.158.038-2.315,0-3.469a1.193,1.193,0,0,0-1.309-.964,2.937,2.937,0,0,0-.917.2.535.535,0,0,1-.081.012.253.253,0,0,1-.332.02.738.738,0,0,0-.264-.123c-.231-.017-.387-.045-.494-.05-.137.078-.2.258-.2.559q0,1.785-.041,3.569c-.007.368.12.424.722.308a.621.621,0,0,0,.1-.125c.1-.777.019-1.554.043-2.33a2.122,2.122,0,0,1,.041-.362.948.948,0,0,1,.959-.986.85.85,0,0,1,1.009.753,12.511,12.511,0,0,1,.03,2.888A.329.329,0,0,0,846.344-538.983Z" transform="translate(-500.275 -129.741)" fill="#333c86"/>
      <path id="Path_660400" data-name="Path 660400" d="M856.647-544.7a2.937,2.937,0,0,1,.917-.2,1.193,1.193,0,0,1,1.309.964c.035,1.155.058,2.312,0,3.469-.146.172-.362.12-.557.138a.728.728,0,0,0,.421.029,2.343,2.343,0,0,1,.3-.007c0-1.267,0-2.534-.009-3.8,0-.087-.078-.175-.124-.26a1.692,1.692,0,0,0-2.258-.427.432.432,0,0,1-.075.108A.535.535,0,0,0,856.647-544.7Z" transform="translate(-512.244 -128.393)" fill="#333c86"/>
      <path id="Path_660401" data-name="Path 660401" d="M843.7-541.29c0-.009,0-.017,0-.026a2.123,2.123,0,0,0-.041.362c-.024.776.058,1.553-.043,2.33a.618.618,0,0,1-.1.125c-.6.116-.729.06-.722-.308q.035-1.784.041-3.569c0-.3.059-.481.2-.559-.224-.009-.23.09-.239.635-.02,1.2.065,2.411-.048,3.613-.019.2.075.28.249.285.231.007.462,0,.694-.005h0l0,0C843.7-539.369,843.687-540.33,843.7-541.29Z" transform="translate(-499.805 -130.301)" fill="#333c86"/>
      <path id="Path_660402" data-name="Path 660402" d="M862.926-535.952a.85.85,0,0,0-1.009-.753c.035,0,.07,0,.106,0,.582.01.922.389.925,1.043,0,.762.042,1.526-.009,2.284a1.079,1.079,0,0,0,.017.316A12.511,12.511,0,0,0,862.926-535.952Z" transform="translate(-517.061 -135.898)" fill="#333c86"/>
      <path id="Path_660403" data-name="Path 660403" d="M871.416-498.671c0,.027,0,.054-.007.081,0,.048-.05.084-.08.123h0l.006.006h0a.34.34,0,0,1,.144-.094A.276.276,0,0,1,871.416-498.671Z" transform="translate(-525.533 -170.145)" fill="#747cab"/>
      <path id="Path_660404" data-name="Path 660404" d="M872.379-497.532h0c-.495.081-.729.117-.841,0a.34.34,0,0,0-.144.094C871.723-497.465,872.069-497.313,872.379-497.532Z" transform="translate(-525.591 -171.17)" fill="#747cab"/>
      <path id="Path_660405" data-name="Path 660405" d="M854.225-532.3a2.739,2.739,0,0,1-.04-.653c0-.681,0-1.362,0-2.044a.921.921,0,0,0-.833-1.034,1,1,0,0,0-1.06,1.01c-.025.73,0,1.462-.01,2.193a1.247,1.247,0,0,1-.051.634c.168-.125.095-.3.1-.461.009-.764-.018-1.53.021-2.293a1.025,1.025,0,0,1,1.005-1.029c.459.018.772.458.775,1.09q.006,1.4.011,2.792c.03-.039.076-.075.08-.123C854.221-532.246,854.223-532.273,854.225-532.3Z" transform="translate(-508.342 -136.516)" fill="#747cab"/>
      <path id="Path_660406" data-name="Path 660406" d="M872.215-500.128c0,.049-.008.1-.012.146a.276.276,0,0,0,.063.117.521.521,0,0,1,.123-.025A.329.329,0,0,1,872.215-500.128Z" transform="translate(-526.319 -168.834)" fill="#747cab"/>
      <path id="Path_660407" data-name="Path 660407" d="M852.317-535.6a1.248,1.248,0,0,1,.392-.706,1.121,1.121,0,0,1,.566-.28A.948.948,0,0,0,852.317-535.6Z" transform="translate(-508.419 -136.016)" fill="#747cab"/>
      <path id="Path_660408" data-name="Path 660408" d="M873.38-497.72a.728.728,0,0,1-.421-.029.521.521,0,0,0-.123.025c.112.115.346.078.841,0h0A2.337,2.337,0,0,0,873.38-497.72Z" transform="translate(-526.889 -170.975)" fill="#747cab"/>
      <path id="Path_660409" data-name="Path 660409" d="M852.273-533.35c.01-.731-.015-1.463.01-2.193a1,1,0,0,1,1.06-1.01.921.921,0,0,1,.833,1.034c0,.681,0,1.362,0,2.044a2.743,2.743,0,0,0,.039.653c0-.048.008-.1.012-.146a1.079,1.079,0,0,1-.017-.316c.051-.758.013-1.523.009-2.284,0-.654-.343-1.032-.925-1.043-.036,0-.071,0-.106,0a1.121,1.121,0,0,0-.566.28,1.248,1.248,0,0,0-.392.706c0,.009,0,.017,0,.026-.014.96-.006,1.92-.007,2.881A1.248,1.248,0,0,0,852.273-533.35Z" transform="translate(-508.333 -135.994)" fill="#747cab"/>
      <path id="Path_660410" data-name="Path 660410" d="M842.057-540.288c-.534,0-.486,0-.469-.552.035-1.14.014-2.283.014-3.424,0-.728.206-.877.9-.608.19.073.351.192.549.049a1.213,1.213,0,0,1-.475-.106c-.689-.336-1.019-.116-1.041.623-.037,1.24.058,2.483-.064,3.722-.016.165.035.331.215.334.285,0,.591.139.854-.089h0C842.389-540.237,842.218-540.29,842.057-540.288Z" transform="translate(-498.654 -128.367)" fill="#747cab"/>
      <path id="Path_660411" data-name="Path 660411" d="M846.406-543.159a.253.253,0,0,0,.332-.02,1.455,1.455,0,0,1-.541-.13.717.717,0,0,0-.549-.022c.107,0,.264.033.494.05A.741.741,0,0,1,846.406-543.159Z" transform="translate(-502.415 -129.905)" fill="#747cab"/>
      <path id="Path_660412" data-name="Path 660412" d="M842.849-539.558c-.174-.005-.267-.087-.249-.285.113-1.2.028-2.409.048-3.613.009-.546.015-.644.239-.635a.717.717,0,0,1,.549.022,1.455,1.455,0,0,0,.541.13.432.432,0,0,0,.075-.108c-.2.143-.359.025-.549-.049-.693-.268-.9-.12-.9.608,0,1.141.021,2.284-.014,3.424-.017.553-.065.556.469.552.161,0,.332.051.483-.052C843.311-539.561,843.08-539.551,842.849-539.558Z" transform="translate(-499.655 -129.144)" fill="#747cab"/>
      <path id="Path_660413" data-name="Path 660413" d="M899.55-542.656c0-.581,0-1.162,0-1.742,0-.621-.3-.889-.8-.547s-.858.059-1.216-.077a1.742,1.742,0,0,0-1.8.307,2.564,2.564,0,0,0-.8,2.9,2.106,2.106,0,0,0,3,1.411.648.648,0,0,1,.734.029c.485.306.89.031.886-.535S899.55-542.076,899.55-542.656Zm-2.354,1.472a1.322,1.322,0,0,1-1.233-1.458,1.415,1.415,0,0,1,1.294-1.532,1.556,1.556,0,0,1,1.276,1.535A1.451,1.451,0,0,1,897.2-541.184Z" transform="translate(-546.66 -128.308)" fill="#38438d"/>
      <path id="Path_660414" data-name="Path 660414" d="M814.062-662.011a.781.781,0,0,1,.328.809c-.009.381,0,.763,0,1.145h0c0,.4,0,.8,0,1.194,0,.188-.092.428.17.513a.7.7,0,0,0,.581-.019c.214-.13.114-.346.093-.542a19.082,19.082,0,0,1-.027-2.633c.008-.3.18-.611.571-.529.27.057.424.056.41-.267-.011-.262.113-.61-.374-.566-.409.037-.562-.236-.613-.571a1.632,1.632,0,0,1,.013-.642c.082-.315.031-.478-.324-.492-.322-.013-.547.018-.513.443a1.4,1.4,0,0,1-.394,1.358A.534.534,0,0,0,814.062-662.011Z" transform="translate(-473.786 -20.775)" fill="#36438f"/>
      <path id="Path_660415" data-name="Path 660415" d="M782.659-544.28a2.2,2.2,0,0,0-2.307,2.372,2.206,2.206,0,0,0,2.36,2.394,2.222,2.222,0,0,0,2.491-2.432A2.212,2.212,0,0,0,782.659-544.28Zm.811,3.764a1.3,1.3,0,0,1-1.532-.083,1.493,1.493,0,0,1-.552-1.555,1.477,1.477,0,0,1,1.438-1.32,1.44,1.44,0,0,1,1.323,1.665A1.346,1.346,0,0,1,783.471-540.516Z" transform="translate(-443.641 -129.089)" fill="#37428b"/>
      <path id="Path_660416" data-name="Path 660416" d="M633.829-441.173a2.4,2.4,0,0,0-2.519,2.477,2.389,2.389,0,0,0,2.4,2.514,2.439,2.439,0,0,0,2.6-2.44A2.49,2.49,0,0,0,633.829-441.173Zm-.044,4.022a1.5,1.5,0,0,1-1.369-1.509,1.487,1.487,0,0,1,1.441-1.474,1.353,1.353,0,0,1,1.271,1.523A1.316,1.316,0,0,1,633.786-437.151Z" transform="translate(-309.476 -221.901)" fill="#39448b"/>
      <path id="Path_660417" data-name="Path 660417" d="M1035.021-557.658a11.3,11.3,0,0,0,1.386-.086c.241-.038.352-.121.361-.371a1.24,1.24,0,0,0-1.506-1.175c-.821.283-1.273.615-1.2,1.659a1.425,1.425,0,0,0,.764,1.236,1.711,1.711,0,0,0,1.787-.338c.119-.159.172-.277.006-.423s-.3-.153-.408.045a.4.4,0,0,1-.44.249h0a.779.779,0,0,1-1.009-.277C1034.563-557.435,1034.662-557.646,1035.021-557.658Zm.47-1.2a.638.638,0,0,1,.637.565c0,.358-.381.175-.574.224-.279-.009-.641.055-.63-.3A.5.5,0,0,1,1035.491-558.857Z" transform="translate(-672.006 -115.537)" fill="#3a4588"/>
      <path id="Path_660418" data-name="Path 660418" d="M1043.955-540.929c.364-.317.424-.618.138-.661a1.179,1.179,0,0,0-.868.073.217.217,0,0,0-.05.275c.156.3.448.3.729.31l.05,0Z" transform="translate(-680.192 -131.47)" fill="#becbe9"/>
      <path id="Path_660419" data-name="Path 660419" d="M1051.226-534.544Z" transform="translate(-687.464 -137.855)" fill="#becbe9"/>
      <path id="Path_660420" data-name="Path 660420" d="M761.255-644.873a2.209,2.209,0,0,0-.01-2.73c-.069-.1-.153-.193-.132-.316l-.03-.015c-.186-.132-.358-.281-.539-.419a3.207,3.207,0,0,0-.327-.157,4.96,4.96,0,0,0-.583-.109,2.7,2.7,0,0,0-1.757.435,4.2,4.2,0,0,0-.379.314c-.024.039-.05.077-.076.114s-.044.068-.067.1a.788.788,0,0,1-.215.328.532.532,0,0,0-.046.295,5.525,5.525,0,0,0-.025,1.279,2.074,2.074,0,0,0,2.021,1.8,2.636,2.636,0,0,0,1.95-.516.453.453,0,0,0,.076-.047C761.078-644.655,761.182-644.764,761.255-644.873Zm-1.844.135a1.4,1.4,0,0,1-1.416-1.523,1.453,1.453,0,0,1,1.367-1.473c.852.005,1.363.625,1.369,1.674A1.42,1.42,0,0,1,759.411-644.738Z" transform="translate(-422.652 -35.157)" fill="#38428a"/>
      <path id="Path_660421" data-name="Path 660421" d="M789.213-647.224c.181.138.353.287.539.419l.03.015a.264.264,0,0,1,.031-.088l-.5-.4c-.144-.031-.288-.066-.432-.1A3.207,3.207,0,0,1,789.213-647.224Z" transform="translate(-451.323 -36.286)" fill="#38428a"/>
      <path id="Path_660422" data-name="Path 660422" d="M760.22-643.594c.024-.033.047-.067.067-.1s.052-.075.076-.114a4.2,4.2,0,0,1,.379-.314,4.927,4.927,0,0,0-.51.364h0v0A.46.46,0,0,1,760.22-643.594Z" transform="translate(-425.519 -39.217)" fill="#38428a"/>
      <path id="Path_660423" data-name="Path 660423" d="M759.487-632.676a2.636,2.636,0,0,1-1.95.516,2.074,2.074,0,0,1-2.021-1.8,5.525,5.525,0,0,1,.025-1.279.532.532,0,0,1,.046-.295,1.411,1.411,0,0,0-.171.207h0c-.027.2-.056.392-.079.588a2.609,2.609,0,0,0,.171,1.406,2.671,2.671,0,0,0,4.1.7.291.291,0,0,1-.043-.092A.453.453,0,0,1,759.487-632.676Z" transform="translate(-421.101 -46.951)" fill="#38428a"/>
      <path id="Path_660424" data-name="Path 660424" d="M797.944-641.143a2.209,2.209,0,0,1,.01,2.73c-.073.109-.176.218-.141.355a1.07,1.07,0,0,0,.108-.1c.017-.024.035-.047.053-.072a2.659,2.659,0,0,0,.582-1.639,2.709,2.709,0,0,0-.571-1.448.846.846,0,0,0-.174-.143C797.791-641.337,797.876-641.24,797.944-641.143Z" transform="translate(-459.352 -41.616)" fill="#38428a"/>
      <path id="Path_660425" data-name="Path 660425" d="M797.987-608.4a1.07,1.07,0,0,1-.108.1.291.291,0,0,0,.043.092h0A.294.294,0,0,1,797.987-608.4Z" transform="translate(-459.417 -71.377)" fill="#38428a"/>
      <path id="Path_660426" data-name="Path 660426" d="M798.038-642.109c-.048-.077-.1-.154-.143-.231a.264.264,0,0,0-.031.088A.842.842,0,0,1,798.038-642.109Z" transform="translate(-459.404 -40.823)" fill="#38428a"/>
      <path id="Path_660427" data-name="Path 660427" d="M763.166-650.516a1.593,1.593,0,0,1,.462.162,1.934,1.934,0,0,0-1.81-.359,1.993,1.993,0,0,0-1.473.948h0A2.548,2.548,0,0,1,763.166-650.516Z" transform="translate(-425.632 -33.212)" fill="#7b80ae"/>
      <path id="Path_660428" data-name="Path 660428" d="M767.21-649.218a4.96,4.96,0,0,1,.583.109,2.255,2.255,0,0,0-2.34.325A2.7,2.7,0,0,1,767.21-649.218Z" transform="translate(-430.23 -34.558)" fill="#7b80ae"/>
      <path id="Path_660429" data-name="Path 660429" d="M763.2-649.363c.144.034.288.069.432.1a1.593,1.593,0,0,0-.462-.162,2.548,2.548,0,0,0-2.82.751,4.927,4.927,0,0,1,.51-.364A2.255,2.255,0,0,1,763.2-649.363Z" transform="translate(-425.632 -34.304)" fill="#7b80ae"/>
      <path id="Path_660430" data-name="Path 660430" d="M756.316-639.766h0c.06-.275.333-.428.4-.7C756.563-640.242,756.274-640.1,756.316-639.766Z" transform="translate(-422.001 -42.511)" fill="#7b80ae"/>
      <path id="Path_660431" data-name="Path 660431" d="M758.066-638.49a.788.788,0,0,0,.215-.328A2.013,2.013,0,0,0,758.066-638.49Z" transform="translate(-423.58 -43.993)" fill="#7b80ae"/>
      <path id="Path_660432" data-name="Path 660432" d="M756.739-640.3a.46.46,0,0,0,.012-.164c-.065.272-.338.425-.4.7a1.411,1.411,0,0,1,.171-.207A2.013,2.013,0,0,1,756.739-640.3Z" transform="translate(-422.038 -42.511)" fill="#7b80ae"/>
      <path id="Path_660433" data-name="Path 660433" d="M731.825-644.656c.32.005.6,0,.59-.453-.02-.63-.005-1.261-.005-1.892H732.4c0-.664-.006-1.328,0-1.992.005-.4-.188-.559-.581-.561s-.634.107-.63.559c.01,1.295.014,2.59-.005,3.884C731.182-644.608,731.506-644.661,731.825-644.656Zm-.491-.419c.142-1.238.027-2.479.059-3.718.008-.3,0-.569.427-.557.4.011.383.274.382.55,0,.613,0,1.226,0,1.839h.019c0,.629-.027,1.26.01,1.887.023.38-.212.31-.411.307C731.6-644.771,731.29-644.7,731.334-645.075Z" transform="translate(-399.388 -34.329)" fill="#7b80b1"/>
      <path id="Path_660434" data-name="Path 660434" d="M756.233-570.476a.675.675,0,0,0-.644.63c.017.368.148.659.566.575.481,0,.72-.176.7-.549A.673.673,0,0,0,756.233-570.476Z" transform="translate(-421.351 -105.507)" fill="#384386"/>
      <path id="Path_660435" data-name="Path 660435" d="M732.25-673.091c.4-.005.722-.27.687-.608a.621.621,0,0,0-.648-.556.555.555,0,0,0-.581.549C731.7-673.4,731.816-673.072,732.25-673.091Z" transform="translate(-399.855 -12.095)" fill="#313a84"/>
      <path id="Path_660436" data-name="Path 660436" d="M325.942-667.461h0l-18.271,0h0a.568.568,0,0,0-.206.426c-.019.886-.07,1.772-.089,2.658-.022.982.021,1.965.015,2.948-.036,5.971-.019,11.943-.015,17.915a4.2,4.2,0,0,1,.067.882,24.578,24.578,0,0,0,.032,2.475.275.275,0,0,0,.179.322.342.342,0,0,0,.395-.125c.424-.461.859-.912,1.293-1.364.08-.084.208-.241.252-.222.482.21.438-.069.531-.416a.669.669,0,0,1,.774-.48c.12.028.254-.061.222-.124-.188-.362.161-.514.3-.684.285-.341.512-.8,1.041-.852a1.081,1.081,0,0,1,.017-.195c.027-.1.088-.181.2-.17a.15.15,0,0,1,.107.084c.037.12-.068.173-.143.226a.6.6,0,0,1-.184.056h0c.056.161-.238.256-.09.438.668-.22.95-.667.789-1.239q0-7.978.007-15.956c0-.276-.178-.6-.006-.81.2-.24.524.008.8,0,1.861-.022,3.723-.011,5.585-.012a2.359,2.359,0,0,0,.541-.054c.31-.072.408.065.263.356h0c-.072,2.674.126,5.344.1,8.018-.024,2.29.079,4.582-.088,6.871-.028.39.075.789.078,1.184,0,.15-.183.318-.153.449.067.3.256-.185.379.025.024.041.074.066.11.1q1.945,1.894,3.888,3.789c.1.1.242.207.077.371-.051.051-.177.084-.094.182a.233.233,0,0,0,.319.036c.139-.1.292-.255.408-.046s.448.332.3.678c-.059.134.1.264.187.16.2-.238.838-.277.418-.839-.066-.089-.028-.258-.031-.39a20.132,20.132,0,0,0-.007-2.318,14.28,14.28,0,0,1,.213-2.016q-.02-8.978-.008-17.955c0-.15,0-.3,0-.449a14.708,14.708,0,0,1,.093-2.489C326.666-666.887,326.558-667.154,325.942-667.461Zm-.069,27.129c-.148.06-.234-.05-.341-.138-.616-.51-1.154-1.1-1.727-1.654q-1.343-1.3-2.7-2.584a1.165,1.165,0,0,1-.379-.926c.013-4.11.009-8.219.01-12.329,0-1.13-.016-2.261.008-3.391.009-.4-.144-.534-.52-.533q-3.419.006-6.838-.006c-.377,0-.424.2-.424.51q.01,7.961.009,15.923a.707.707,0,0,1-.225.625c-.766.618-1.413,1.359-2.117,2.041-.824.8-1.637,1.608-2.463,2.405-.113.109-.241.3-.408.232-.184-.075-.09-.3-.09-.45q-.007-6.514,0-13.028c0-4.376.006-8.752-.01-13.128,0-.484.247-.493.594-.493q6.364,0,12.728,0c1.381,0,2.762.01,4.143,0,1.027-.009.841.076.84.828q0,10.457.007,20.914c0,1.629-.052,3.259.036,4.888C326.01-640.5,326-640.383,325.874-640.332Z" transform="translate(-17.89 -18.209)" fill="#3b4698"/>
      <path id="Path_660437" data-name="Path 660437" d="M324.881-675a1.152,1.152,0,0,1,1,0h4.095a2.227,2.227,0,0,1,.219-.094c.114-.036.314.066.324-.124.008-.173-.2-.2-.328-.254a.336.336,0,0,0-.2-.018,10.753,10.753,0,0,1-2.954.1c-.561-.016-1.14.092-1.68.051-.981-.075-1.956-.046-2.932-.05-3.236-.014-6.473-.035-9.708.053-.241.006-.328.114-.315.337h12.481Z" transform="translate(-22.417 -10.974)" fill="#3b4698"/>
      <path id="Path_660438" data-name="Path 660438" d="M371.854-608.5q-2.936-.007-5.873-.006c-.32,0-.439.125-.431.448.026,1.129,0,2.257,0,3.386q.011,6.036,0,12.072a1.147,1.147,0,0,1-.147.767c.374-.117.3-.433.3-.7q0-7.6,0-15.195c0-.133-.006-.267.007-.4.017-.172.127-.318.292-.247.278.12.521-.034.779-.027a41.1,41.1,0,0,1,5.627.165c.056.009.123-.044.184-.068C372.394-608.544,372.109-608.5,371.854-608.5Z" transform="translate(-70.133 -71.277)" fill="#2d3980"/>
      <path id="Path_660439" data-name="Path 660439" d="M371.668-610.447a2.359,2.359,0,0,1-.541.054c-1.862,0-3.723-.01-5.585.012-.273,0-.6-.245-.8,0-.172.208.006.534.006.81q-.016,7.978-.007,15.956a1.147,1.147,0,0,0,.147-.767q0-6.036,0-12.072c0-1.129.024-2.258,0-3.386-.008-.323.111-.447.431-.448q2.936,0,5.873.006c.255,0,.54-.043.741.194h0C372.076-610.382,371.978-610.519,371.668-610.447Z" transform="translate(-69.469 -69.492)" fill="#2d3980"/>
      <path id="Path_660440" data-name="Path 660440" d="M310.958-670.36a.523.523,0,0,1-.354-.153h0a.31.31,0,0,0-.2.3h0A.744.744,0,0,1,310.958-670.36Z" transform="translate(-20.621 -15.464)" fill="#293272"/>
      <path id="Path_660441" data-name="Path 660441" d="M431.165-670.039c-.2.016-.393.023-.589.027h2.88c-.374,0-.748-.011-1.121-.03A2,2,0,0,0,431.165-670.039Z" transform="translate(-128.794 -15.81)" fill="#293272"/>
      <path id="Path_660442" data-name="Path 660442" d="M318.255-669.014c-.045,0-.09,0-.135,0H328.5c-.182,0-.365,0-.547,0Q323.1-669.008,318.255-669.014Z" transform="translate(-27.568 -16.813)" fill="#293272"/>
      <path id="Path_660443" data-name="Path 660443" d="M468.125-670.356h1.914c.213,0,.438-.032.606.152h0c0-.381-.288-.278-.5-.307h0a.5.5,0,0,1-.405.147C469.2-670.367,468.664-670.359,468.125-670.356Z" transform="translate(-162.593 -15.466)" fill="#293272"/>
      <path id="Path_660444" data-name="Path 660444" d="M328.068-668.985h-1.914q-.435,0-.87,0H322.4c-.284.006-.568,0-.852,0H311.174a1.858,1.858,0,0,1-.216,0,.744.744,0,0,0-.555.151l18.271,0C328.506-669.017,328.28-668.985,328.068-668.985Z" transform="translate(-20.621 -16.837)" fill="#293272"/>
      <path id="Path_660445" data-name="Path 660445" d="M312.821-670.368h.159c.045,0,.091,0,.135,0q4.848.005,9.7,0c.182,0,.364,0,.547,0h.852c.2,0,.393-.012.589-.027a2,2,0,0,1,1.169,0c.374.019.747.027,1.121.03h.87c.539,0,1.078-.011,1.617-.007a.5.5,0,0,0,.405-.147H312.41a.523.523,0,0,0,.354.153Z" transform="translate(-22.428 -15.455)" fill="#293272"/>
      <path id="Path_660446" data-name="Path 660446" d="M422.9-668.97h-.852C422.327-668.967,422.611-668.964,422.9-668.97Z" transform="translate(-121.113 -16.852)" fill="#293272"/>
      <path id="Path_660447" data-name="Path 660447" d="M315.959-668.979a1.858,1.858,0,0,0,.216,0h-.216Z" transform="translate(-25.623 -16.844)" fill="#293272"/>
      <path id="Path_660448" data-name="Path 660448" d="M460.282-668.967h-.87Q459.847-668.963,460.282-668.967Z" transform="translate(-154.75 -16.855)" fill="#293272"/>
      <path id="Path_660449" data-name="Path 660449" d="M488.87-681.3c.268.144.4-.059.647-.31-.334.027-.573-.088-.759.081C488.676-681.455,488.792-681.342,488.87-681.3Z" transform="translate(-181.141 -5.462)" fill="#3b4698"/>
      <path id="Path_660450" data-name="Path 660450" d="M857.118-639.585h.6v-.007c.265,0,.531.011.8,0,.309-.016.386-.247.246-.448a1.192,1.192,0,0,0-.929-.659,1.188,1.188,0,0,0-1.05.548C856.524-639.808,856.674-639.588,857.118-639.585Zm.285-.832a.641.641,0,0,1,.09-.041.9.9,0,0,1,.906.239c.067.055.131.151.083.213-.2.261-.489.06-.691.123a1.874,1.874,0,0,1-.286,0c-.163-.029-.413.114-.467-.13S857.231-640.327,857.4-640.418Z" transform="translate(-512.323 -42.296)" fill="#8896ce"/>
      <path id="Path_660451" data-name="Path 660451" d="M576.763-665.065a1.22,1.22,0,0,0-.335-1.552,1.194,1.194,0,0,0-1.141-.105c-.3.108-.134.469-.165.718a2.707,2.707,0,0,0,0,.348c0,.265,0,.53,0,.8a.336.336,0,0,0,.257.371A1.139,1.139,0,0,0,576.763-665.065Zm-1.528-.095c.013-.181,0-.364,0-.546a1.1,1.1,0,0,1,0-.2c.048-.255-.169-.621.2-.74a.978.978,0,0,1,1.08.315,1.108,1.108,0,0,1,.1,1.219.87.87,0,0,1-.78.52C575.422-664.557,575.2-664.72,575.236-665.159Z" transform="translate(-258.888 -18.791)" fill="#6e7ab3"/>
      <path id="Path_660452" data-name="Path 660452" d="M658.7-536.381a1.619,1.619,0,0,0-1.395,1.489,1.52,1.52,0,0,0,1.354,1.7,1.432,1.432,0,0,0,1.355-1.557A1.545,1.545,0,0,0,658.7-536.381Zm-.035,2.889c-.814,0-1.153-.388-1.151-1.323a1.242,1.242,0,0,1,1.148-1.288,1.306,1.306,0,0,1,1.223,1.262A1.23,1.23,0,0,1,658.666-533.492Z" transform="translate(-332.882 -136.201)" fill="#a5b0d2"/>
      <path id="Path_660453" data-name="Path 660453" d="M791.978-536.228a1.477,1.477,0,0,0-1.438,1.32,1.493,1.493,0,0,0,.553,1.555,1.3,1.3,0,0,0,1.532.083,1.346,1.346,0,0,0,.676-1.293A1.44,1.44,0,0,0,791.978-536.228Zm-.128,2.866c-.816-.007-1.152-.43-1.138-1.433a1.167,1.167,0,0,1,1.263-1.168c.723.016,1.124.508,1.12,1.373C793.09-533.636,792.8-533.354,791.85-533.362Z" transform="translate(-452.794 -136.335)" fill="#afbcdb"/>
      <path id="Path_660454" data-name="Path 660454" d="M1043.406-553.766c.193-.05.574.134.574-.224a.638.638,0,0,0-.637-.565.5.5,0,0,0-.568.485C1042.765-553.71,1043.127-553.774,1043.406-553.766Z" transform="translate(-679.858 -119.838)" fill="#7d8ac6"/>
      <path id="Path_660455" data-name="Path 660455" d="M733.078-642.94c.2,0,.434.073.411-.307-.037-.627-.01-1.258-.01-1.887h-.019c0-.613,0-1.226,0-1.839,0-.276.022-.539-.382-.55-.426-.011-.419.252-.426.557-.032,1.239.082,2.48-.059,3.718C732.55-642.868,732.863-642.943,733.078-642.94Z" transform="translate(-400.647 -36.157)" fill="#384189"/>
      <path id="Path_660456" data-name="Path 660456" d="M358.39-434.861l0,0h0a1.269,1.269,0,0,0,.128-.148C358.478-434.957,358.436-434.907,358.39-434.861Z" transform="translate(-63.816 -227.452)" fill="#324197"/>
      <path id="Path_660457" data-name="Path 660457" d="M358.718-437.116a.151.151,0,0,0-.107-.084c-.116-.011-.177.069-.2.17a1.081,1.081,0,0,0-.017.195c.046-.046.088-.1.13-.146a1.269,1.269,0,0,1-.128.148.6.6,0,0,0,.184-.056C358.65-436.943,358.755-437,358.718-437.116Z" transform="translate(-63.816 -225.478)" fill="#324197"/>
      <path id="Path_660458" data-name="Path 660458" d="M437.4-671.537a2.271,2.271,0,0,1,1,0A1.152,1.152,0,0,0,437.4-671.537Z" transform="translate(-134.933 -14.44)" fill="#324197"/>
      <path id="Path_660459" data-name="Path 660459" d="M437.4-671.015h1A2.27,2.27,0,0,0,437.4-671.015Z" transform="translate(-134.932 -14.962)" fill="#324197"/>
      <path id="Path_660460" data-name="Path 660460" d="M576.882-663.494a.87.87,0,0,0,.78-.52,1.108,1.108,0,0,0-.1-1.219.977.977,0,0,0-1.08-.315c-.369.119-.151.485-.2.74a1.1,1.1,0,0,0,0,.2c0,.182.011.365,0,.546C576.251-663.625,576.47-663.462,576.882-663.494Zm-.406-.731a3.94,3.94,0,0,0-.025-.843c-.112-.46.157-.441.437-.391.454.082.692.416.69.974a.6.6,0,0,1-.336.69C576.758-663.54,576.486-663.679,576.475-664.224Z" transform="translate(-259.935 -19.885)" fill="#bec7e7"/>
    </g>
  </g>
</svg>
