<svg xmlns="http://www.w3.org/2000/svg" width="128.15" height="142.253" viewBox="0 0 128.15 142.253">
  <g id="a1" transform="translate(-3.105 -0.696)">
    <g id="Group_953507" data-name="Group 953507" transform="translate(3.106 0.696)">
      <g id="Group_953503" data-name="Group 953503" transform="translate(0 62.469)">
        <g id="Group_953502" data-name="Group 953502">
          <g id="Group_953499" data-name="Group 953499" transform="translate(74.852 45.764)">
            <path id="Path_658848" data-name="Path 658848" d="M81.829,37.679V42.6c-.176.146-48.493,28.241-48.493,28.241a8.166,8.166,0,0,1-4.653.82l.029-4.887a7.847,7.847,0,0,0,4.624-.849s48.317-28.1,48.493-28.243Z" transform="translate(-28.682 -37.679)" fill="#bfbfbf"/>
            <g id="Group_953498" data-name="Group 953498" transform="translate(40.786 4.057)">
              <path id="Path_658849" data-name="Path 658849" d="M48,39.066v1.428l-3.8,2.217V41.283Z" transform="translate(-39.58 -39.066)" fill="#787677"/>
              <path id="Path_658850" data-name="Path 658850" d="M46.423,39.986v1.428l-3.8,2.217V42.2Z" transform="translate(-42.619 -37.293)" fill="#787677"/>
            </g>
          </g>
          <g id="Group_953500" data-name="Group 953500" transform="translate(0 28.464)">
            <path id="Path_658851" data-name="Path 658851" d="M4.678,33.946,75.018,77.3a7.392,7.392,0,0,0,2.955.812v4.932a7.273,7.273,0,0,1-2.955-.815L4.678,38.875A2.636,2.636,0,0,1,3.106,36.7V31.768a2.636,2.636,0,0,0,1.573,2.178Z" transform="translate(-3.106 -31.768)" fill="#b0afb0"/>
          </g>
          <g id="Group_953501" data-name="Group 953501" transform="translate(0.003)">
            <path id="Path_658852" data-name="Path 658852" d="M128.631,64.846c2.1,1.215,2.116,3.177.025,4.392L82.6,96.045a8.343,8.343,0,0,1-7.583,0L4.675,52.7c-2.085-1.2-2.1-3.166-.006-4.381L47.964,22.955a8.337,8.337,0,0,1,7.564-.011Z" transform="translate(-3.106 -22.042)" fill="#e8e8e8"/>
          </g>
        </g>
      </g>
      <g id="Group_953506" data-name="Group 953506" transform="translate(43.207)">
        <g id="Group_953505" data-name="Group 953505">
          <path id="Path_658853" data-name="Path 658853" d="M18.4,3.487a3.312,3.312,0,0,1,3.327.332L92.876,44.908a10.212,10.212,0,0,1,4.657,8.106l-.151,58.4,4.264-2.479.151-58.4a10.291,10.291,0,0,0-4.658-8.1L25.957,1.339a3.257,3.257,0,0,0-3.3-.334Z" transform="translate(-16.854 -0.696)" fill="#787677"/>
          <g id="Group_953504" data-name="Group 953504" transform="translate(0 2.484)">
            <path id="Path_658854" data-name="Path 658854" d="M93.9,43.277a10.281,10.281,0,0,1,4.658,8.09l-.166,58.42L17.869,63.3l.166-58.42c.008-2.973,2.1-4.188,4.688-2.694Z" transform="translate(-17.869 -1.545)" fill="#4f4d4d"/>
            <path id="Path_658855" data-name="Path 658855" d="M93.537,49.265A7.288,7.288,0,0,0,90.392,43.8S19.117,2.654,19.07,2.631c0,.049-.165,56.831-.165,56.831l74.482,43Z" transform="translate(-15.876 0.548)" fill="#fee44b"/>
            <path id="Path_658856" data-name="Path 658856" d="M93.428,49.265A7.288,7.288,0,0,0,90.283,43.8S19.008,2.654,18.961,2.631c0,.049,74.317,99.833,74.317,99.833Z" transform="translate(-15.767 0.548)" fill="#f6d341"/>
          </g>
        </g>
      </g>
    </g>
    <g id="Group_953672" data-name="Group 953672" transform="translate(25.762 70.494)">
      <g id="Group_953511" data-name="Group 953511" transform="translate(18.109)">
        <g id="Group_953508" data-name="Group 953508" transform="translate(4.66 2.69)">
          <path id="Path_658857" data-name="Path 658857" d="M23.271,25.465v.509l-4.642,2.7v-.508Z" transform="translate(-18.627 -25.465)" fill="#686868"/>
        </g>
        <g id="Group_953509" data-name="Group 953509" transform="translate(0 2.698)">
          <path id="Path_658858" data-name="Path 658858" d="M21.7,28.158v.508l-4.66-2.69v-.509Z" transform="translate(-17.035 -25.468)" fill="#4f4d4d"/>
        </g>
        <g id="Group_953510" data-name="Group 953510" transform="translate(0.001)">
          <path id="Path_658859" data-name="Path 658859" d="M26.338,27.236l-4.642,2.7-4.66-2.69,4.643-2.7Z" transform="translate(-17.035 -24.546)" fill="#929393"/>
        </g>
      </g>
      <g id="Group_953515" data-name="Group 953515" transform="translate(23.937 3.365)">
        <g id="Group_953512" data-name="Group 953512" transform="translate(4.66 2.69)">
          <path id="Path_658860" data-name="Path 658860" d="M25.262,26.615v.509l-4.642,2.7v-.509Z" transform="translate(-20.619 -26.615)" fill="#686868"/>
        </g>
        <g id="Group_953513" data-name="Group 953513" transform="translate(0 2.698)">
          <path id="Path_658861" data-name="Path 658861" d="M23.687,29.308v.509l-4.66-2.69v-.508Z" transform="translate(-19.026 -26.618)" fill="#4f4d4d"/>
        </g>
        <g id="Group_953514" data-name="Group 953514" transform="translate(0.001)">
          <path id="Path_658862" data-name="Path 658862" d="M28.329,28.386l-4.643,2.7-4.66-2.69,4.643-2.7Z" transform="translate(-19.027 -25.696)" fill="#929393"/>
        </g>
      </g>
      <g id="Group_953519" data-name="Group 953519" transform="translate(29.751 6.722)">
        <g id="Group_953516" data-name="Group 953516" transform="translate(4.673 2.698)">
          <path id="Path_658863" data-name="Path 658863" d="M27.254,27.765v.508l-4.643,2.7v-.508Z" transform="translate(-22.61 -27.765)" fill="#686868"/>
        </g>
        <g id="Group_953517" data-name="Group 953517" transform="translate(0 2.698)">
          <path id="Path_658864" data-name="Path 658864" d="M25.688,30.463v.508l-4.673-2.7v-.508Z" transform="translate(-21.013 -27.765)" fill="#4f4d4d"/>
        </g>
        <g id="Group_953518" data-name="Group 953518" transform="translate(0.001)">
          <path id="Path_658865" data-name="Path 658865" d="M30.329,29.541l-4.643,2.7-4.673-2.7,4.642-2.7Z" transform="translate(-21.014 -26.843)" fill="#929393"/>
        </g>
      </g>
      <g id="Group_953523" data-name="Group 953523" transform="translate(35.579 10.087)">
        <g id="Group_953520" data-name="Group 953520" transform="translate(4.66 2.69)">
          <path id="Path_658866" data-name="Path 658866" d="M29.241,28.912v.508l-4.643,2.7V31.61Z" transform="translate(-24.597 -28.912)" fill="#686868"/>
        </g>
        <g id="Group_953521" data-name="Group 953521" transform="translate(0 2.698)">
          <path id="Path_658867" data-name="Path 658867" d="M27.666,31.6v.508L23,29.423v-.509Z" transform="translate(-23.005 -28.915)" fill="#4f4d4d"/>
        </g>
        <g id="Group_953522" data-name="Group 953522" transform="translate(0.001)">
          <path id="Path_658868" data-name="Path 658868" d="M32.307,30.683l-4.642,2.7-4.66-2.69,4.642-2.7Z" transform="translate(-23.005 -27.993)" fill="#929393"/>
        </g>
      </g>
      <g id="Group_953527" data-name="Group 953527" transform="translate(41.407 13.451)">
        <g id="Group_953524" data-name="Group 953524" transform="translate(4.66 2.69)">
          <path id="Path_658869" data-name="Path 658869" d="M31.232,30.062v.509l-4.642,2.7V32.76Z" transform="translate(-26.588 -30.062)" fill="#686868"/>
        </g>
        <g id="Group_953525" data-name="Group 953525" transform="translate(0 2.698)">
          <path id="Path_658870" data-name="Path 658870" d="M29.657,32.755v.508L25,30.573v-.509Z" transform="translate(-24.996 -30.064)" fill="#4f4d4d"/>
        </g>
        <g id="Group_953526" data-name="Group 953526" transform="translate(0.001)">
          <path id="Path_658871" data-name="Path 658871" d="M34.3,31.833l-4.642,2.7L25,31.84l4.642-2.7Z" transform="translate(-24.997 -29.142)" fill="#929393"/>
        </g>
      </g>
      <g id="Group_953531" data-name="Group 953531" transform="translate(47.221 16.809)">
        <g id="Group_953528" data-name="Group 953528" transform="translate(4.66 2.69)">
          <path id="Path_658872" data-name="Path 658872" d="M33.219,31.209v.509l-4.642,2.7v-.509Z" transform="translate(-28.575 -31.209)" fill="#686868"/>
        </g>
        <g id="Group_953529" data-name="Group 953529" transform="translate(0 2.698)">
          <path id="Path_658873" data-name="Path 658873" d="M31.644,33.9v.509l-4.66-2.69v-.509Z" transform="translate(-26.983 -31.211)" fill="#4f4d4d"/>
        </g>
        <g id="Group_953530" data-name="Group 953530" transform="translate(0.001)">
          <path id="Path_658874" data-name="Path 658874" d="M36.286,32.98l-4.642,2.7-4.66-2.69,4.643-2.7Z" transform="translate(-26.983 -30.29)" fill="#929393"/>
        </g>
      </g>
      <g id="Group_953535" data-name="Group 953535" transform="translate(53.049 20.173)">
        <g id="Group_953532" data-name="Group 953532" transform="translate(4.66 2.69)">
          <path id="Path_658875" data-name="Path 658875" d="M35.211,32.359v.508l-4.643,2.7v-.509Z" transform="translate(-30.566 -32.359)" fill="#686868"/>
        </g>
        <g id="Group_953533" data-name="Group 953533" transform="translate(0 2.698)">
          <path id="Path_658876" data-name="Path 658876" d="M33.635,35.051v.509l-4.66-2.69v-.508Z" transform="translate(-28.974 -32.361)" fill="#4f4d4d"/>
        </g>
        <g id="Group_953534" data-name="Group 953534" transform="translate(0.001)">
          <path id="Path_658877" data-name="Path 658877" d="M38.277,34.13l-4.643,2.7-4.66-2.69,4.643-2.7Z" transform="translate(-28.975 -31.439)" fill="#929393"/>
        </g>
      </g>
      <g id="Group_953539" data-name="Group 953539" transform="translate(58.877 23.53)">
        <g id="Group_953536" data-name="Group 953536" transform="translate(10.488 6.055)">
          <path id="Path_658878" data-name="Path 658878" d="M39.18,34.655v.508l-4.63,2.691v-.509Z" transform="translate(-34.549 -34.655)" fill="#686868"/>
        </g>
        <g id="Group_953537" data-name="Group 953537" transform="translate(0 2.69)">
          <path id="Path_658879" data-name="Path 658879" d="M41.455,39.561v.509L30.966,34.014v-.509Z" transform="translate(-30.966 -33.506)" fill="#4f4d4d"/>
        </g>
        <g id="Group_953538" data-name="Group 953538" transform="translate(0.001)">
          <path id="Path_658880" data-name="Path 658880" d="M46.083,38.641l-4.63,2.69L30.966,35.277l4.63-2.69Z" transform="translate(-30.966 -32.586)" fill="#929393"/>
        </g>
      </g>
      <g id="Group_953543" data-name="Group 953543" transform="translate(70.507 30.252)">
        <g id="Group_953540" data-name="Group 953540" transform="translate(4.673 2.698)">
          <path id="Path_658881" data-name="Path 658881" d="M41.18,35.805v.509l-4.642,2.7V38.5Z" transform="translate(-36.536 -35.805)" fill="#686868"/>
        </g>
        <g id="Group_953541" data-name="Group 953541" transform="translate(0 2.698)">
          <path id="Path_658882" data-name="Path 658882" d="M39.614,38.5v.509l-4.673-2.7v-.509Z" transform="translate(-34.939 -35.805)" fill="#4f4d4d"/>
        </g>
        <g id="Group_953542" data-name="Group 953542" transform="translate(0.001)">
          <path id="Path_658883" data-name="Path 658883" d="M44.255,37.581l-4.642,2.7-4.673-2.7,4.643-2.7Z" transform="translate(-34.94 -34.883)" fill="#929393"/>
        </g>
      </g>
      <g id="Group_953547" data-name="Group 953547" transform="translate(76.335 33.617)">
        <g id="Group_953544" data-name="Group 953544" transform="translate(4.66 2.69)">
          <path id="Path_658884" data-name="Path 658884" d="M43.167,36.952v.509l-4.643,2.7V39.65Z" transform="translate(-38.523 -36.952)" fill="#686868"/>
        </g>
        <g id="Group_953545" data-name="Group 953545" transform="translate(0 2.698)">
          <path id="Path_658885" data-name="Path 658885" d="M41.592,39.645v.509l-4.66-2.69v-.508Z" transform="translate(-36.931 -36.955)" fill="#4f4d4d"/>
        </g>
        <g id="Group_953546" data-name="Group 953546" transform="translate(0.001)">
          <path id="Path_658886" data-name="Path 658886" d="M46.234,38.723l-4.643,2.7-4.66-2.69,4.643-2.7Z" transform="translate(-36.931 -36.033)" fill="#929393"/>
        </g>
      </g>
      <g id="Group_953551" data-name="Group 953551" transform="translate(82.162 36.982)">
        <g id="Group_953548" data-name="Group 953548" transform="translate(4.66 2.69)">
          <path id="Path_658887" data-name="Path 658887" d="M45.158,38.1v.508l-4.643,2.7V40.8Z" transform="translate(-40.514 -38.102)" fill="#686868"/>
        </g>
        <g id="Group_953549" data-name="Group 953549" transform="translate(0 2.698)">
          <path id="Path_658888" data-name="Path 658888" d="M43.583,40.795V41.3l-4.66-2.69V38.1Z" transform="translate(-38.922 -38.105)" fill="#4f4d4d"/>
        </g>
        <g id="Group_953550" data-name="Group 953550" transform="translate(0.001)">
          <path id="Path_658889" data-name="Path 658889" d="M48.225,39.873l-4.643,2.7-4.66-2.69,4.643-2.7Z" transform="translate(-38.923 -37.183)" fill="#929393"/>
        </g>
      </g>
      <g id="Group_953555" data-name="Group 953555" transform="translate(12.081 3.511)">
        <g id="Group_953552" data-name="Group 953552" transform="translate(4.66 2.69)">
          <path id="Path_658890" data-name="Path 658890" d="M21.2,26.665v.509l-4.63,2.69v-.508Z" transform="translate(-16.568 -26.665)" fill="#686868"/>
        </g>
        <g id="Group_953553" data-name="Group 953553" transform="translate(0 2.69)">
          <path id="Path_658891" data-name="Path 658891" d="M19.637,29.355v.508l-4.66-2.69v-.508Z" transform="translate(-14.975 -26.665)" fill="#4f4d4d"/>
        </g>
        <g id="Group_953554" data-name="Group 953554" transform="translate(0.001)">
          <path id="Path_658892" data-name="Path 658892" d="M24.265,28.436l-4.63,2.691-4.66-2.69,4.63-2.69Z" transform="translate(-14.976 -25.746)" fill="#929393"/>
        </g>
      </g>
      <g id="Group_953559" data-name="Group 953559" transform="translate(17.908 6.875)">
        <g id="Group_953556" data-name="Group 953556" transform="translate(4.66 2.69)">
          <path id="Path_658893" data-name="Path 658893" d="M23.19,27.815v.508l-4.63,2.69v-.508Z" transform="translate(-18.559 -27.815)" fill="#686868"/>
        </g>
        <g id="Group_953557" data-name="Group 953557" transform="translate(0 2.69)">
          <path id="Path_658894" data-name="Path 658894" d="M21.628,30.505v.508l-4.66-2.69v-.509Z" transform="translate(-16.967 -27.815)" fill="#4f4d4d"/>
        </g>
        <g id="Group_953558" data-name="Group 953558" transform="translate(0.001)">
          <path id="Path_658895" data-name="Path 658895" d="M26.257,29.586l-4.63,2.69-4.66-2.69L21.6,26.9Z" transform="translate(-16.967 -26.895)" fill="#929393"/>
        </g>
      </g>
      <g id="Group_953563" data-name="Group 953563" transform="translate(23.723 10.232)">
        <g id="Group_953560" data-name="Group 953560" transform="translate(4.673 2.698)">
          <path id="Path_658896" data-name="Path 658896" d="M25.181,28.964v.508l-4.63,2.691v-.509Z" transform="translate(-20.55 -28.964)" fill="#686868"/>
        </g>
        <g id="Group_953561" data-name="Group 953561" transform="translate(0 2.69)">
          <path id="Path_658897" data-name="Path 658897" d="M23.628,31.66v.509l-4.673-2.7v-.509Z" transform="translate(-18.954 -28.962)" fill="#4f4d4d"/>
        </g>
        <g id="Group_953562" data-name="Group 953562" transform="translate(0.001)">
          <path id="Path_658898" data-name="Path 658898" d="M28.257,30.74l-4.63,2.69-4.673-2.7,4.63-2.69Z" transform="translate(-18.954 -28.043)" fill="#929393"/>
        </g>
      </g>
      <g id="Group_953567" data-name="Group 953567" transform="translate(29.551 13.597)">
        <g id="Group_953564" data-name="Group 953564" transform="translate(4.66 2.69)">
          <path id="Path_658899" data-name="Path 658899" d="M27.168,30.111v.509l-4.63,2.69V32.8Z" transform="translate(-22.537 -30.111)" fill="#686868"/>
        </g>
        <g id="Group_953565" data-name="Group 953565" transform="translate(0 2.69)">
          <path id="Path_658900" data-name="Path 658900" d="M25.606,32.8v.509l-4.66-2.69v-.508Z" transform="translate(-20.945 -30.112)" fill="#4f4d4d"/>
        </g>
        <g id="Group_953566" data-name="Group 953566" transform="translate(0.001)">
          <path id="Path_658901" data-name="Path 658901" d="M30.235,31.882l-4.63,2.69-4.66-2.69,4.63-2.69Z" transform="translate(-20.945 -29.192)" fill="#929393"/>
        </g>
      </g>
      <g id="Group_953571" data-name="Group 953571" transform="translate(35.379 16.962)">
        <g id="Group_953568" data-name="Group 953568" transform="translate(4.66 2.69)">
          <path id="Path_658902" data-name="Path 658902" d="M29.159,31.261v.509l-4.63,2.69v-.508Z" transform="translate(-24.529 -31.261)" fill="#686868"/>
        </g>
        <g id="Group_953569" data-name="Group 953569" transform="translate(0 2.69)">
          <path id="Path_658903" data-name="Path 658903" d="M27.6,33.952v.508l-4.66-2.69v-.509Z" transform="translate(-22.936 -31.261)" fill="#4f4d4d"/>
        </g>
        <g id="Group_953570" data-name="Group 953570" transform="translate(0.001)">
          <path id="Path_658904" data-name="Path 658904" d="M32.226,33.032,27.6,35.723l-4.66-2.69,4.63-2.69Z" transform="translate(-22.937 -30.342)" fill="#929393"/>
        </g>
      </g>
      <g id="Group_953575" data-name="Group 953575" transform="translate(41.194 20.319)">
        <g id="Group_953572" data-name="Group 953572" transform="translate(4.66 2.69)">
          <path id="Path_658905" data-name="Path 658905" d="M31.147,32.408v.508l-4.63,2.69V35.1Z" transform="translate(-26.515 -32.408)" fill="#686868"/>
        </g>
        <g id="Group_953573" data-name="Group 953573" transform="translate(0 2.69)">
          <path id="Path_658906" data-name="Path 658906" d="M29.584,35.1v.508l-4.66-2.69v-.509Z" transform="translate(-24.923 -32.408)" fill="#4f4d4d"/>
        </g>
        <g id="Group_953574" data-name="Group 953574" transform="translate(0.001)">
          <path id="Path_658907" data-name="Path 658907" d="M34.213,34.179l-4.63,2.69-4.66-2.69,4.63-2.69Z" transform="translate(-24.924 -31.489)" fill="#929393"/>
        </g>
      </g>
      <g id="Group_953579" data-name="Group 953579" transform="translate(47.022 23.684)">
        <g id="Group_953576" data-name="Group 953576" transform="translate(4.66 2.69)">
          <path id="Path_658908" data-name="Path 658908" d="M33.138,33.558v.508l-4.63,2.691v-.509Z" transform="translate(-28.507 -33.558)" fill="#686868"/>
        </g>
        <g id="Group_953577" data-name="Group 953577" transform="translate(0 2.691)">
          <path id="Path_658909" data-name="Path 658909" d="M31.576,36.248v.509l-4.66-2.69v-.508Z" transform="translate(-26.915 -33.558)" fill="#4f4d4d"/>
        </g>
        <g id="Group_953578" data-name="Group 953578" transform="translate(0.001)">
          <path id="Path_658910" data-name="Path 658910" d="M36.2,35.329l-4.63,2.69-4.66-2.69,4.63-2.691Z" transform="translate(-26.915 -32.639)" fill="#929393"/>
        </g>
      </g>
      <g id="Group_953583" data-name="Group 953583" transform="translate(52.836 27.041)">
        <g id="Group_953580" data-name="Group 953580" transform="translate(4.66 2.69)">
          <path id="Path_658911" data-name="Path 658911" d="M35.125,34.705v.508L30.494,37.9V37.4Z" transform="translate(-30.494 -34.705)" fill="#686868"/>
        </g>
        <g id="Group_953581" data-name="Group 953581" transform="translate(0 2.691)">
          <path id="Path_658912" data-name="Path 658912" d="M33.563,37.4V37.9l-4.66-2.69v-.508Z" transform="translate(-28.901 -34.705)" fill="#4f4d4d"/>
        </g>
        <g id="Group_953582" data-name="Group 953582" transform="translate(0.001)">
          <path id="Path_658913" data-name="Path 658913" d="M38.191,36.476l-4.63,2.69-4.66-2.69,4.63-2.691Z" transform="translate(-28.902 -33.786)" fill="#929393"/>
        </g>
      </g>
      <g id="Group_953587" data-name="Group 953587" transform="translate(58.664 30.406)">
        <g id="Group_953584" data-name="Group 953584" transform="translate(4.66 2.69)">
          <path id="Path_658914" data-name="Path 658914" d="M37.116,35.855v.509l-4.63,2.69v-.508Z" transform="translate(-32.485 -35.855)" fill="#686868"/>
        </g>
        <g id="Group_953585" data-name="Group 953585" transform="translate(0 2.69)">
          <path id="Path_658915" data-name="Path 658915" d="M35.554,38.545v.508l-4.66-2.69v-.508Z" transform="translate(-30.893 -35.855)" fill="#4f4d4d"/>
        </g>
        <g id="Group_953586" data-name="Group 953586" transform="translate(0.001)">
          <path id="Path_658916" data-name="Path 658916" d="M40.182,37.626l-4.63,2.691-4.66-2.69,4.63-2.69Z" transform="translate(-30.893 -34.936)" fill="#929393"/>
        </g>
      </g>
      <g id="Group_953591" data-name="Group 953591" transform="translate(64.479 33.763)">
        <g id="Group_953588" data-name="Group 953588" transform="translate(4.673 2.698)">
          <path id="Path_658917" data-name="Path 658917" d="M39.107,37v.508l-4.63,2.69V39.7Z" transform="translate(-34.476 -37.005)" fill="#686868"/>
        </g>
        <g id="Group_953589" data-name="Group 953589" transform="translate(0 2.69)">
          <path id="Path_658918" data-name="Path 658918" d="M37.554,39.7v.508l-4.673-2.7V37Z" transform="translate(-32.88 -37.002)" fill="#4f4d4d"/>
        </g>
        <g id="Group_953590" data-name="Group 953590" transform="translate(0.001)">
          <path id="Path_658919" data-name="Path 658919" d="M42.183,38.781l-4.63,2.69-4.673-2.7,4.63-2.69Z" transform="translate(-32.88 -36.083)" fill="#929393"/>
        </g>
      </g>
      <g id="Group_953595" data-name="Group 953595" transform="translate(70.307 37.127)">
        <g id="Group_953592" data-name="Group 953592" transform="translate(4.66 2.69)">
          <path id="Path_658920" data-name="Path 658920" d="M41.094,38.152v.508l-4.63,2.69v-.508Z" transform="translate(-36.463 -38.152)" fill="#686868"/>
        </g>
        <g id="Group_953593" data-name="Group 953593" transform="translate(0 2.69)">
          <path id="Path_658921" data-name="Path 658921" d="M39.532,40.842v.508l-4.66-2.69v-.509Z" transform="translate(-34.871 -38.152)" fill="#4f4d4d"/>
        </g>
        <g id="Group_953594" data-name="Group 953594" transform="translate(0.001)">
          <path id="Path_658922" data-name="Path 658922" d="M44.161,39.923l-4.63,2.69-4.66-2.69,4.63-2.69Z" transform="translate(-34.872 -37.233)" fill="#929393"/>
        </g>
      </g>
      <g id="Group_953599" data-name="Group 953599" transform="translate(76.135 40.492)">
        <g id="Group_953596" data-name="Group 953596" transform="translate(4.66 2.69)">
          <path id="Path_658923" data-name="Path 658923" d="M43.086,39.3v.508L38.455,42.5v-.509Z" transform="translate(-38.455 -39.301)" fill="#686868"/>
        </g>
        <g id="Group_953597" data-name="Group 953597" transform="translate(0 2.691)">
          <path id="Path_658924" data-name="Path 658924" d="M41.524,41.992V42.5l-4.66-2.69V39.3Z" transform="translate(-36.862 -39.302)" fill="#4f4d4d"/>
        </g>
        <g id="Group_953598" data-name="Group 953598" transform="translate(0.001)">
          <path id="Path_658925" data-name="Path 658925" d="M46.152,41.073l-4.63,2.69-4.66-2.69,4.63-2.691Z" transform="translate(-36.863 -38.382)" fill="#929393"/>
        </g>
      </g>
      <g id="Group_953603" data-name="Group 953603" transform="translate(0 7.021)">
        <g id="Group_953600" data-name="Group 953600" transform="translate(4.673 2.698)">
          <path id="Path_658926" data-name="Path 658926" d="M23.115,27.867v.508l-10.67,6.2v-.508Z" transform="translate(-12.444 -27.867)" fill="#686868"/>
        </g>
        <g id="Group_953601" data-name="Group 953601" transform="translate(0 6.2)">
          <path id="Path_658927" data-name="Path 658927" d="M15.522,31.762v.508l-4.673-2.7v-.509Z" transform="translate(-10.847 -29.064)" fill="#4f4d4d"/>
        </g>
        <g id="Group_953602" data-name="Group 953602" transform="translate(0.001)">
          <path id="Path_658928" data-name="Path 658928" d="M26.19,29.643l-10.67,6.2-4.673-2.7,10.67-6.2Z" transform="translate(-10.848 -26.945)" fill="#929393"/>
        </g>
      </g>
      <g id="Group_953607" data-name="Group 953607" transform="translate(11.869 10.386)">
        <g id="Group_953604" data-name="Group 953604" transform="translate(4.66 2.69)">
          <path id="Path_658929" data-name="Path 658929" d="M21.125,29.014v.508L16.5,32.213V31.7Z" transform="translate(-16.495 -29.014)" fill="#686868"/>
        </g>
        <g id="Group_953605" data-name="Group 953605" transform="translate(0 2.69)">
          <path id="Path_658930" data-name="Path 658930" d="M19.564,31.7v.508l-4.66-2.69v-.509Z" transform="translate(-14.903 -29.014)" fill="#4f4d4d"/>
        </g>
        <g id="Group_953606" data-name="Group 953606" transform="translate(0.001)">
          <path id="Path_658931" data-name="Path 658931" d="M24.192,30.785l-4.629,2.69-4.66-2.69,4.629-2.69Z" transform="translate(-14.903 -28.095)" fill="#929393"/>
        </g>
      </g>
      <g id="Group_953611" data-name="Group 953611" transform="translate(17.683 13.743)">
        <g id="Group_953608" data-name="Group 953608" transform="translate(4.673 2.698)">
          <path id="Path_658932" data-name="Path 658932" d="M23.117,30.164v.509l-4.629,2.69v-.509Z" transform="translate(-18.486 -30.164)" fill="#686868"/>
        </g>
        <g id="Group_953609" data-name="Group 953609" transform="translate(0 2.69)">
          <path id="Path_658933" data-name="Path 658933" d="M21.564,32.859v.509l-4.673-2.7v-.509Z" transform="translate(-16.89 -30.161)" fill="#4f4d4d"/>
        </g>
        <g id="Group_953610" data-name="Group 953610" transform="translate(0.001)">
          <path id="Path_658934" data-name="Path 658934" d="M26.192,31.94l-4.629,2.69-4.673-2.7,4.629-2.69Z" transform="translate(-16.89 -29.242)" fill="#929393"/>
        </g>
      </g>
      <g id="Group_953615" data-name="Group 953615" transform="translate(23.511 17.108)">
        <g id="Group_953612" data-name="Group 953612" transform="translate(4.66 2.69)">
          <path id="Path_658935" data-name="Path 658935" d="M25.1,31.311v.509l-4.629,2.69V34Z" transform="translate(-20.473 -31.311)" fill="#686868"/>
        </g>
        <g id="Group_953613" data-name="Group 953613" transform="translate(0 2.69)">
          <path id="Path_658936" data-name="Path 658936" d="M23.542,34v.509l-4.66-2.69v-.508Z" transform="translate(-18.881 -31.311)" fill="#4f4d4d"/>
        </g>
        <g id="Group_953614" data-name="Group 953614" transform="translate(0.001)">
          <path id="Path_658937" data-name="Path 658937" d="M28.17,33.082l-4.629,2.69-4.66-2.69,4.629-2.69Z" transform="translate(-18.882 -30.392)" fill="#929393"/>
        </g>
      </g>
      <g id="Group_953619" data-name="Group 953619" transform="translate(29.339 20.472)">
        <g id="Group_953616" data-name="Group 953616" transform="translate(4.66 2.69)">
          <path id="Path_658938" data-name="Path 658938" d="M27.1,32.461v.508l-4.629,2.69v-.508Z" transform="translate(-22.465 -32.461)" fill="#686868"/>
        </g>
        <g id="Group_953617" data-name="Group 953617" transform="translate(0 2.69)">
          <path id="Path_658939" data-name="Path 658939" d="M25.534,35.151v.508l-4.66-2.69v-.508Z" transform="translate(-20.872 -32.461)" fill="#4f4d4d"/>
        </g>
        <g id="Group_953618" data-name="Group 953618" transform="translate(0.001)">
          <path id="Path_658940" data-name="Path 658940" d="M30.161,34.232l-4.629,2.69-4.66-2.69,4.629-2.69Z" transform="translate(-20.873 -31.542)" fill="#929393"/>
        </g>
      </g>
      <g id="Group_953623" data-name="Group 953623" transform="translate(35.154 23.829)">
        <g id="Group_953620" data-name="Group 953620" transform="translate(4.66 2.69)">
          <path id="Path_658941" data-name="Path 658941" d="M29.082,33.608v.508l-4.629,2.69V36.3Z" transform="translate(-24.452 -33.608)" fill="#686868"/>
        </g>
        <g id="Group_953621" data-name="Group 953621" transform="translate(0 2.69)">
          <path id="Path_658942" data-name="Path 658942" d="M27.52,36.3v.508l-4.66-2.69v-.509Z" transform="translate(-22.859 -33.608)" fill="#4f4d4d"/>
        </g>
        <g id="Group_953622" data-name="Group 953622" transform="translate(0.001)">
          <path id="Path_658943" data-name="Path 658943" d="M32.148,35.379l-4.629,2.69-4.66-2.69,4.629-2.69Z" transform="translate(-22.86 -32.689)" fill="#929393"/>
        </g>
      </g>
      <g id="Group_953627" data-name="Group 953627" transform="translate(40.982 27.194)">
        <g id="Group_953624" data-name="Group 953624" transform="translate(4.66 2.69)">
          <path id="Path_658944" data-name="Path 658944" d="M31.073,34.758v.509l-4.629,2.69v-.508Z" transform="translate(-26.443 -34.758)" fill="#686868"/>
        </g>
        <g id="Group_953625" data-name="Group 953625" transform="translate(0 2.69)">
          <path id="Path_658945" data-name="Path 658945" d="M29.512,37.448v.508l-4.66-2.69v-.509Z" transform="translate(-24.851 -34.758)" fill="#4f4d4d"/>
        </g>
        <g id="Group_953626" data-name="Group 953626" transform="translate(0.001)">
          <path id="Path_658946" data-name="Path 658946" d="M34.14,36.528l-4.629,2.69-4.66-2.69,4.629-2.69Z" transform="translate(-24.851 -33.838)" fill="#929393"/>
        </g>
      </g>
      <g id="Group_953631" data-name="Group 953631" transform="translate(46.796 30.551)">
        <g id="Group_953628" data-name="Group 953628" transform="translate(4.66 2.69)">
          <path id="Path_658947" data-name="Path 658947" d="M33.06,35.9v.509L28.43,39.1v-.509Z" transform="translate(-28.43 -35.905)" fill="#686868"/>
        </g>
        <g id="Group_953629" data-name="Group 953629" transform="translate(0 2.69)">
          <path id="Path_658948" data-name="Path 658948" d="M31.5,38.595V39.1l-4.66-2.69V35.9Z" transform="translate(-26.838 -35.905)" fill="#4f4d4d"/>
        </g>
        <g id="Group_953630" data-name="Group 953630" transform="translate(0.001)">
          <path id="Path_658949" data-name="Path 658949" d="M36.127,37.676,31.5,40.366l-4.66-2.69,4.629-2.69Z" transform="translate(-26.838 -34.986)" fill="#929393"/>
        </g>
      </g>
      <g id="Group_953635" data-name="Group 953635" transform="translate(5.828 13.896)">
        <g id="Group_953632" data-name="Group 953632" transform="translate(4.66 2.69)">
          <path id="Path_658950" data-name="Path 658950" d="M19.061,30.214v.509l-4.629,2.69V32.9Z" transform="translate(-14.431 -30.214)" fill="#686868"/>
        </g>
        <g id="Group_953633" data-name="Group 953633" transform="translate(0 2.69)">
          <path id="Path_658951" data-name="Path 658951" d="M17.5,32.9v.509l-4.66-2.69v-.508Z" transform="translate(-12.839 -30.214)" fill="#4f4d4d"/>
        </g>
        <g id="Group_953634" data-name="Group 953634" transform="translate(0.001)">
          <path id="Path_658952" data-name="Path 658952" d="M22.128,31.985,17.5,34.675l-4.66-2.69,4.629-2.69Z" transform="translate(-12.839 -29.295)" fill="#929393"/>
        </g>
      </g>
      <g id="Group_953639" data-name="Group 953639" transform="translate(11.642 17.254)">
        <g id="Group_953636" data-name="Group 953636" transform="translate(4.673 2.698)">
          <path id="Path_658953" data-name="Path 658953" d="M21.052,31.364v.508l-4.629,2.69v-.509Z" transform="translate(-16.422 -31.364)" fill="#686868"/>
        </g>
        <g id="Group_953637" data-name="Group 953637" transform="translate(0 2.69)">
          <path id="Path_658954" data-name="Path 658954" d="M19.5,34.059v.509l-4.673-2.7v-.508Z" transform="translate(-14.826 -31.361)" fill="#4f4d4d"/>
        </g>
        <g id="Group_953638" data-name="Group 953638" transform="translate(0.001)">
          <path id="Path_658955" data-name="Path 658955" d="M24.128,33.14,19.5,35.829l-4.673-2.7,4.629-2.69Z" transform="translate(-14.826 -30.442)" fill="#929393"/>
        </g>
      </g>
      <g id="Group_953643" data-name="Group 953643" transform="translate(17.47 20.626)">
        <g id="Group_953640" data-name="Group 953640" transform="translate(22.117 12.769)">
          <path id="Path_658956" data-name="Path 658956" d="M28.992,35.957v.508l-4.616,2.683V38.64Z" transform="translate(-24.374 -35.957)" fill="#686868"/>
        </g>
        <g id="Group_953641" data-name="Group 953641" transform="translate(0 2.682)">
          <path id="Path_658957" data-name="Path 658957" d="M38.935,45.28v.509L16.817,33.019v-.508Z" transform="translate(-16.817 -32.511)" fill="#4f4d4d"/>
        </g>
        <g id="Group_953642" data-name="Group 953642" transform="translate(0.001)">
          <path id="Path_658958" data-name="Path 658958" d="M43.55,44.363l-4.616,2.682L16.817,34.276l4.616-2.682Z" transform="translate(-16.817 -31.594)" fill="#929393"/>
        </g>
      </g>
      <g id="Group_953647" data-name="Group 953647" transform="translate(40.756 34.062)">
        <g id="Group_953644" data-name="Group 953644" transform="translate(4.66 2.69)">
          <path id="Path_658959" data-name="Path 658959" d="M31,37.1v.508L26.366,40.3v-.509Z" transform="translate(-26.366 -37.104)" fill="#686868"/>
        </g>
        <g id="Group_953645" data-name="Group 953645" transform="translate(0 2.69)">
          <path id="Path_658960" data-name="Path 658960" d="M29.435,39.794V40.3l-4.66-2.69V37.1Z" transform="translate(-24.773 -37.104)" fill="#4f4d4d"/>
        </g>
        <g id="Group_953646" data-name="Group 953646" transform="translate(0.001)">
          <path id="Path_658961" data-name="Path 658961" d="M34.062,38.875l-4.629,2.69-4.66-2.69,4.629-2.69Z" transform="translate(-24.774 -36.185)" fill="#929393"/>
        </g>
      </g>
      <g id="Group_953651" data-name="Group 953651" transform="translate(46.57 33.909)">
        <g id="Group_953648" data-name="Group 953648" transform="translate(4.673 2.698)">
          <path id="Path_658962" data-name="Path 658962" d="M39.028,37.055v.508l-10.67,6.2v-.508Z" transform="translate(-28.357 -37.055)" fill="#686868"/>
        </g>
        <g id="Group_953649" data-name="Group 953649" transform="translate(0 6.2)">
          <path id="Path_658963" data-name="Path 658963" d="M31.435,40.949v.508l-4.673-2.7v-.508Z" transform="translate(-26.76 -38.251)" fill="#4f4d4d"/>
        </g>
        <g id="Group_953650" data-name="Group 953650" transform="translate(0.001)">
          <path id="Path_658964" data-name="Path 658964" d="M42.1,38.831l-10.67,6.2-4.673-2.7,10.67-6.2Z" transform="translate(-26.761 -36.133)" fill="#929393"/>
        </g>
      </g>
      <g id="Group_953655" data-name="Group 953655" transform="translate(58.439 37.273)">
        <g id="Group_953652" data-name="Group 953652" transform="translate(4.673 2.698)">
          <path id="Path_658965" data-name="Path 658965" d="M37.043,38.2v.508L32.413,41.4v-.508Z" transform="translate(-32.413 -38.204)" fill="#686868"/>
        </g>
        <g id="Group_953653" data-name="Group 953653" transform="translate(0 2.69)">
          <path id="Path_658966" data-name="Path 658966" d="M35.49,40.9v.508l-4.673-2.7V38.2Z" transform="translate(-30.816 -38.202)" fill="#4f4d4d"/>
        </g>
        <g id="Group_953654" data-name="Group 953654" transform="translate(0.001)">
          <path id="Path_658967" data-name="Path 658967" d="M40.118,39.98l-4.629,2.69-4.673-2.7,4.629-2.69Z" transform="translate(-30.816 -37.282)" fill="#929393"/>
        </g>
      </g>
      <g id="Group_953659" data-name="Group 953659" transform="translate(64.267 40.638)">
        <g id="Group_953656" data-name="Group 953656" transform="translate(4.66 2.69)">
          <path id="Path_658968" data-name="Path 658968" d="M39.03,39.351v.509L34.4,42.55v-.508Z" transform="translate(-34.399 -39.351)" fill="#686868"/>
        </g>
        <g id="Group_953657" data-name="Group 953657" transform="translate(0 2.69)">
          <path id="Path_658969" data-name="Path 658969" d="M37.469,42.042v.508l-4.66-2.69v-.509Z" transform="translate(-32.807 -39.351)" fill="#4f4d4d"/>
        </g>
        <g id="Group_953658" data-name="Group 953658" transform="translate(0.001)">
          <path id="Path_658970" data-name="Path 658970" d="M42.1,41.122l-4.629,2.69-4.66-2.69,4.629-2.69Z" transform="translate(-32.808 -38.432)" fill="#929393"/>
        </g>
      </g>
      <g id="Group_953663" data-name="Group 953663" transform="translate(52.398 40.784)">
        <g id="Group_953660" data-name="Group 953660" transform="translate(4.673 2.698)">
          <path id="Path_658971" data-name="Path 658971" d="M34.979,39.4v.509L30.348,42.6v-.509Z" transform="translate(-30.348 -39.404)" fill="#686868"/>
        </g>
        <g id="Group_953661" data-name="Group 953661" transform="translate(0 2.69)">
          <path id="Path_658972" data-name="Path 658972" d="M33.426,42.1v.509l-4.673-2.7V39.4Z" transform="translate(-28.752 -39.401)" fill="#4f4d4d"/>
        </g>
        <g id="Group_953662" data-name="Group 953662" transform="translate(0.001)">
          <path id="Path_658973" data-name="Path 658973" d="M38.054,41.18l-4.629,2.69-4.673-2.7,4.629-2.69Z" transform="translate(-28.752 -38.482)" fill="#929393"/>
        </g>
      </g>
      <g id="Group_953667" data-name="Group 953667" transform="translate(58.226 44.149)">
        <g id="Group_953664" data-name="Group 953664" transform="translate(4.66 2.69)">
          <path id="Path_658974" data-name="Path 658974" d="M36.965,40.551v.509l-4.629,2.69v-.509Z" transform="translate(-32.335 -40.551)" fill="#686868"/>
        </g>
        <g id="Group_953665" data-name="Group 953665" transform="translate(0 2.69)">
          <path id="Path_658975" data-name="Path 658975" d="M35.4,43.241v.509l-4.66-2.69v-.508Z" transform="translate(-30.743 -40.551)" fill="#4f4d4d"/>
        </g>
        <g id="Group_953666" data-name="Group 953666" transform="translate(0.001)">
          <path id="Path_658976" data-name="Path 658976" d="M40.032,42.322,35.4,45.012l-4.66-2.69,4.629-2.69Z" transform="translate(-30.744 -39.632)" fill="#929393"/>
        </g>
      </g>
      <g id="Group_953671" data-name="Group 953671" transform="translate(64.041 43.995)">
        <g id="Group_953668" data-name="Group 953668" transform="translate(4.673 2.698)">
          <path id="Path_658977" data-name="Path 658977" d="M45,40.5v.509l-10.67,6.2V46.7Z" transform="translate(-34.327 -40.501)" fill="#686868"/>
        </g>
        <g id="Group_953669" data-name="Group 953669" transform="translate(0 6.2)">
          <path id="Path_658978" data-name="Path 658978" d="M37.4,44.4V44.9l-4.673-2.7V41.7Z" transform="translate(-32.73 -41.698)" fill="#4f4d4d"/>
        </g>
        <g id="Group_953670" data-name="Group 953670" transform="translate(0.001)">
          <path id="Path_658979" data-name="Path 658979" d="M48.073,42.277l-10.67,6.2-4.673-2.7,10.67-6.2Z" transform="translate(-32.73 -39.579)" fill="#929393"/>
        </g>
      </g>
    </g>
    <g id="Group_953673" data-name="Group 953673" transform="translate(34.543 100.608)">
      <path id="Path_658980" data-name="Path 658980" d="M14.123,40.774l9.942-5.79a1.207,1.207,0,0,1,1.158,0l20,11.552a.539.539,0,0,1,.226.735.415.415,0,0,0-.226-.31l-20-11.553a1.207,1.207,0,0,0-1.158,0l-9.942,5.762a.5.5,0,0,0-.226.255.492.492,0,0,1,.226-.651Z" transform="translate(-13.848 -34.836)" fill="#b0afb0"/>
      <path id="Path_658981" data-name="Path 658981" d="M24.033,35.129a1.207,1.207,0,0,1,1.158,0l20,11.553a.414.414,0,0,1,.226.31.45.45,0,0,1-.226.283l-9.942,5.79a1.145,1.145,0,0,1-1.13,0l-20-11.552a.477.477,0,0,1-.254-.367.5.5,0,0,1,.226-.255Z" transform="translate(-13.815 -34.557)" fill="#b9b9ba"/>
    </g>
  </g>
</svg>
