<svg id="a5" xmlns="http://www.w3.org/2000/svg" width="58.831" height="58.831" viewBox="0 0 58.831 58.831">
  <path id="Path_598925" data-name="Path 598925" d="M366.574,360.007a6.053,6.053,0,0,1-7.025-.879c-.577-.53-1.164-1.107-1.68-1.685l-7.723-9.021,1.044-2.665,3.694-1.324,10.991,9.6a4.824,4.824,0,0,1,1.174,5.612A1.24,1.24,0,0,1,366.574,360.007Z" transform="translate(-308.658 -303.621)" fill="#5d748a"/>
  <path id="Path_598926" data-name="Path 598926" d="M300.889,284.777,299.44,288.6l-2.781.411-3.159-4.964,2.028-2.678Z" transform="translate(-258.723 -248.026)" fill="#5d748a"/>
  <path id="Path_598927" data-name="Path 598927" d="M354.65,381.127l-9.6-10.991-2.605.123.236,2.247,9.6,10.991a4.824,4.824,0,0,0,7.981-1.2A4.824,4.824,0,0,1,354.65,381.127Z" transform="translate(-301.87 -326.278)" fill="#3f597d"/>
  <path id="Path_598928" data-name="Path 598928" d="M322.224,310.154l-3.868,3.868-2.239,1.557L313,311.873l1.627-2.245,3.535-3.535a1.54,1.54,0,0,1,2.178,0l1.883,1.883A1.541,1.541,0,0,1,322.224,310.154Z" transform="translate(-275.912 -269.425)" fill="#faf8f8"/>
  <path id="Path_598929" data-name="Path 598929" d="M287.439,284.833a23.145,23.145,0,0,0,1.637-1.911l-2.437-1.551-1.534,1.662-1.688,2.185,3.169,4.979,2.24.13.357-2.727-1.755-1.966A.59.59,0,0,1,287.439,284.833Z" transform="translate(-249.834 -248.03)" fill="#3f597d"/>
  <path id="Path_598930" data-name="Path 598930" d="M43.376,20.766A20.766,20.766,0,0,0,8.277,5.74,20.5,20.5,0,0,0,2.093,20.766,20.345,20.345,0,0,0,22.611,41.283a20.487,20.487,0,0,0,14.144-5.314A20.709,20.709,0,0,0,43.376,20.766Z" transform="translate(-1.845)" fill="#5d748a"/>
  <path id="Path_598931" data-name="Path 598931" d="M22.625,78.227A20.764,20.764,0,0,1,7.042,43.738,20.765,20.765,0,0,0,20.766,80.087,19.427,19.427,0,0,0,35.555,73.9c-3.659,3.225-7.669,4.329-12.93,4.329Z" transform="translate(0 -38.555)" fill="#3f597d"/>
  <path id="Path_598932" data-name="Path 598932" d="M71.077,64.736A16.117,16.117,0,0,0,48.589,42.25v0a15.9,15.9,0,0,0-1.4,1.128,16.073,16.073,0,0,0-4.98,12.081,15.374,15.374,0,0,0,15.74,15.61,15.892,15.892,0,0,0,10.1-3.142,16.091,16.091,0,0,0,3.024-3.189Z" transform="translate(-37.209 -34.586)" fill="#f6dac0"/>
  <path id="Path_598933" data-name="Path 598933" d="M65.936,95.967a16.116,16.116,0,1,1-21-24.447,16.5,16.5,0,0,0,21,24.447Z" transform="translate(-34.59 -63.045)" fill="#f0e9e6"/>
  <g id="Group_158241" data-name="Group 158241" transform="translate(43.599 43.6)">
    <path id="Path_598934" data-name="Path 598934" d="M375.113,369.131l-5.991,5.991-1.172-1.341,5.822-5.82Z" transform="translate(-367.95 -367.96)" fill="#fd9827"/>
  </g>
  <g id="Group_158242" data-name="Group 158242" transform="translate(43.599 47.051)">
    <path id="Path_598935" data-name="Path 598935" d="M371.492,398.421l-2.37,2.37-1.172-1.341,2.371-2.37Z" transform="translate(-367.95 -397.08)" fill="#cc781a"/>
  </g>
  <path id="Path_598943" data-name="Path 598943" d="M308.774,333.947l-2.681,2.681a1.54,1.54,0,0,0,0,2.178l1.883,1.883a1.54,1.54,0,0,0,2.178,0l2.454-2.454Z" transform="translate(-269.426 -294.377)" fill="#f0e9e6"/>
</svg>
