<svg xmlns="http://www.w3.org/2000/svg" xmlns:xlink="http://www.w3.org/1999/xlink" width="1240" height="458.305" viewBox="0 0 1240 458.305">
  <defs>
    <clipPath id="clip-path">
      <path id="Rectangle_652" data-name="Rectangle 652" d="M1220.473,458.3H19.528C8.743,458.3,0,450.705,0,441.33V16.974C0,7.6,8.743,0,19.528,0H1220.473C1231.257,0,1240,7.6,1240,16.974V441.33C1240,450.705,1231.257,458.3,1220.473,458.3Z" transform="translate(0 0)" fill="none" opacity="0.238"/>
    </clipPath>
  </defs>
  <g id="bg-slyders" transform="translate(-180 -3194.552)">
    <rect id="Rectangle_34912" data-name="Rectangle 34912" width="1240" height="456.856" rx="23" transform="translate(180 3196)" fill="#fff0de"/>
    <g id="Group_80238" data-name="Group 80238" transform="translate(180 3194.552)" clip-path="url(#clip-path)">
      <path id="Path_151747" data-name="Path 151747" d="M1578.979,617.595,1443.1,296.155l26.7-143.541L1225,21.96c-3,3.052-5.74,6.353-9.033,9.115-24.661,20.69-47.647,43.372-74.537,61.447-53.317,35.831-114.093,39.827-179.422,12.517q-34.1-14.256-67.415-30.357c-41.1-19.913-83.4-32.5-128.766-32-28.392.315-53.153,7.308-74.28,23.279-31.622,23.906-52.94,55.7-77.362,85.174-12.941,15.616-26.172,31.148-40.826,45.375-30.136,29.258-67.818,41.648-115.061,35.851-50.819-6.237-93.835-23.585-126.2-63.777-27-33.537-54.342-67.022-83.876-98.771C200.422,18.427,140.214-.725,72.062,9.14,47.664,12.67,24.312,20.108.48,25.761l169.2,386.126Z" transform="translate(60.792 428.309) rotate(-22)" fill="#fd9827" opacity="0.166"/>
      <path id="Path_151748" data-name="Path 151748" d="M984.506,107.594s-86.494-1.978-233.584-79.813S588.2,84.854,499.616,82.873s-112.388-60.118-208.2-45.86S172.222,115.28,57.688,85.026s-21.417,91.758-21.417,91.758l936.724,29.891Z" transform="matrix(0.995, -0.105, 0.105, 0.995, 364.477, 409.305)" fill="none" stroke="#12263f" stroke-width="3" stroke-dasharray="11" opacity="0.142"/>
      <path id="Path_151749" data-name="Path 151749" d="M1810.995,33.64,1686.1,401.219l47.5,173.017L1458.792,704.395c-3.879-3.925-7.49-8.12-11.688-11.732-31.445-27.052-61.132-56.3-94.922-80.473-67-47.926-139.273-58.838-213.452-33.07q-38.724,13.452-76.307,29.172c-46.365,19.453-94.967,30.092-148.636,24.887-33.592-3.257-63.634-14.067-90.379-35.162-40.03-31.575-68.759-71.467-100.9-108.911-17.03-19.842-34.393-39.614-53.294-57.981-38.869-37.774-84.782-56.3-139.975-54.219-59.371,2.24-108.284,18.455-142.068,62.855-28.191,37.049-56.782,74-88.162,108.671-50.792,56.119-119.825,72.727-201.471,54.1-29.229-6.665-57.656-17.861-86.451-26.988L168.178,134.6Z" transform="translate(1604.669 579.823) rotate(157)" fill="#fd9827" opacity="0.166"/>
      <path id="Path_151750" data-name="Path 151750" d="M1810.995,33.64,1686.1,401.219l47.5,173.017L1458.792,704.395c-3.879-3.925-7.49-8.12-11.688-11.732-31.445-27.052-61.132-56.3-94.922-80.473-67-47.926-139.273-58.838-213.452-33.07q-38.724,13.452-76.307,29.172c-46.365,19.453-94.967,30.092-148.636,24.887-33.592-3.257-63.634-14.067-90.379-35.162-40.03-31.575-68.759-71.467-100.9-108.911-17.03-19.842-34.393-39.614-53.294-57.981-38.869-37.774-84.782-56.3-139.975-54.219-59.371,2.24-108.284,18.455-142.068,62.855-28.191,37.049-56.782,74-88.162,108.671-50.792,56.119-119.825,72.727-201.471,54.1-29.229-6.665-57.656-17.861-86.451-26.988L168.178,134.6Z" transform="translate(1754.032 533.498) rotate(157)" fill="none" stroke="#31313c" stroke-width="3" opacity="0.166"/>
      <path id="Path_151751" data-name="Path 151751" d="M1361.259,545.054,1242.231,263.127l21.95-125.4L1052.864,22.057c-2.553,2.653-4.89,5.524-7.7,7.921-21.052,17.957-40.65,37.666-63.638,53.323-45.577,31.038-97.787,34.187-154.128,9.929q-29.412-12.664-58.156-26.935c-35.465-17.651-71.913-28.9-110.9-28.718-24.4.114-45.635,6.089-63.683,19.939-27.013,20.73-45.114,48.423-65.9,74.06-11.014,13.585-22.278,27.1-34.775,39.456-25.7,25.42-58,36.043-98.647,30.7-43.724-5.744-80.816-21.163-108.911-56.5-23.444-29.488-47.175-58.931-72.78-86.869C172.2,13.143,120.317-3.951,61.808,4.291,40.862,7.24,20.842,13.612.4,18.421l148.119,338.7Z" transform="matrix(0.891, -0.454, 0.454, 0.891, 233.24, 481.626)" fill="none" stroke="#fff" stroke-width="1" opacity="0.81"/>
    </g>
  </g>
</svg>
