<svg xmlns="http://www.w3.org/2000/svg" xmlns:xlink="http://www.w3.org/1999/xlink" width="91" height="91" viewBox="0 0 91 91">
  <defs>
    <clipPath id="clip-path">
      <rect id="Rectangle_34868" data-name="Rectangle 34868" width="60.839" height="48.377" fill="none"/>
    </clipPath>
  </defs>
  <g id="sintesis1" transform="translate(-210.333 -304)">
    <circle id="Ellipse_4743" data-name="Ellipse 4743" cx="45.5" cy="45.5" r="45.5" transform="translate(210.333 304)" fill="#f5e8df"/>
    <g id="Group_953676" data-name="Group 953676" transform="matrix(0.978, -0.208, 0.208, 0.978, 222.549, 331.665)">
      <g id="Group_80178" data-name="Group 80178" transform="translate(0 0)" clip-path="url(#clip-path)">
        <path id="Path_151703" data-name="Path 151703" d="M15.395,4.985,2.624,5.029A2.632,2.632,0,0,0,0,7.673L.118,41.9a4.091,4.091,0,0,0,4.1,4.078L49,45.82a2.475,2.475,0,0,0,2.467-2.483l-.111-31.878a2.142,2.142,0,0,0-2.15-2.135l-26.122.09Z" transform="translate(0 2.397)" fill="#b56d25"/>
        <path id="Path_151704" data-name="Path 151704" d="M51.456,38.072l-.077-22.138L.032,16.112.109,38.25a2.473,2.473,0,0,0,2.483,2.466l46.4-.16a2.475,2.475,0,0,0,2.467-2.483" transform="translate(0.015 7.661)" fill="#e59f3f"/>
        <path id="Path_151705" data-name="Path 151705" d="M1.957,16.569l.006,1.608,45.477-.158-.006-1.607a4.811,4.811,0,0,0-4.827-4.795L6.75,11.741a4.81,4.81,0,0,0-4.793,4.827" transform="translate(0.941 5.586)" fill="#fff"/>
        <path id="Path_151706" data-name="Path 151706" d="M30.71,14.188l.01,3.088-1.995.007-.01-3.088a1,1,0,1,1,1.995-.007" transform="translate(13.807 6.344)" fill="#f0e8e0"/>
        <path id="Path_151707" data-name="Path 151707" d="M27.67,14.2l.01,3.088-1.995.007-.01-3.088A1,1,0,0,1,27.67,14.2" transform="translate(12.345 6.349)" fill="#f0e8e0"/>
        <path id="Path_151708" data-name="Path 151708" d="M24.631,14.209l.01,3.088-1.995.007-.01-3.088a1,1,0,0,1,1.995-.007" transform="translate(10.884 6.354)" fill="#f0e8e0"/>
        <path id="Path_151709" data-name="Path 151709" d="M21.591,14.219l.01,3.088-1.995.007-.01-3.088a1,1,0,1,1,1.995-.007" transform="translate(9.422 6.359)" fill="#f0e8e0"/>
        <path id="Path_151710" data-name="Path 151710" d="M18.551,14.23l.01,3.087-1.995.007-.01-3.087a1,1,0,0,1,1.995-.007" transform="translate(7.96 6.364)" fill="#f0e8e0"/>
        <path id="Path_151711" data-name="Path 151711" d="M15.512,14.24l.01,3.088-1.995.007-.01-3.088a1,1,0,1,1,1.995-.007" transform="translate(6.499 6.369)" fill="#f0e8e0"/>
        <path id="Path_151712" data-name="Path 151712" d="M12.472,14.251l.01,3.088-1.995.007-.01-3.088a1,1,0,0,1,1.995-.007" transform="translate(5.038 6.374)" fill="#f0e8e0"/>
        <path id="Path_151713" data-name="Path 151713" d="M9.432,14.261l.01,3.088-1.995.007-.01-3.087a1,1,0,0,1,1.995-.007" transform="translate(3.576 6.379)" fill="#f0e8e0"/>
        <path id="Path_151714" data-name="Path 151714" d="M6.392,14.272l.01,3.088-1.995.007L4.4,14.279a1,1,0,0,1,1.995-.007" transform="translate(2.114 6.384)" fill="#f0e8e0"/>
        <path id="Path_151715" data-name="Path 151715" d="M48.6,11.571A11.571,11.571,0,1,1,37.028,0,11.57,11.57,0,0,1,48.6,11.571" transform="translate(12.24 0)" fill="#31313c"/>
        <path id="Path_151716" data-name="Path 151716" d="M32.956,15.1h0a1.123,1.123,0,0,1-.794-.329l-2.836-2.836a1.122,1.122,0,0,1,1.587-1.587l2.042,2.042,7.956-7.956A1.122,1.122,0,1,1,42.5,6.018l-8.75,8.75a1.123,1.123,0,0,1-.794.329" transform="translate(13.943 1.972)" fill="#fff"/>
      </g>
    </g>
  </g>
</svg>
